<svg id="Layer_1" data-name="Layer 1" xmlns="http://www.w3.org/2000/svg" viewBox="0 0 1920 1080"><defs><style>.cls-1{fill:#ca8cff;}.cls-2{opacity:0.09;}.cls-3{fill:#fff;}.cls-4{fill:#f2f2f2;}</style></defs><title>background_</title><rect class="cls-1" width="1920" height="1080"/><g class="cls-2"><path class="cls-3" d="M-24.16,342.28c-1.64-.27-3.27-.65-4.92-.8-14.59-1.29-28.61-5-42.35-10-14.22-5.09-28-11.27-41.86-17.26-13.5-5.83-27-11.51-41.12-15.86a156.93,156.93,0,0,0-33.76-6.84,111.08,111.08,0,0,0-24.65.6c-.62.09-1.26.1-2.13.17-.06-.95-.14-1.8-.16-2.65-.93-36-.52-72-.47-108,0-7.19.19-14.39.31-21.59,0-.79.11-1.58.18-2.71,2.45-.3,4.87-.67,7.3-.89,18.63-1.7,36.63,1.53,54.34,7,14.69,4.53,28.78,10.59,42.84,16.72,13.55,5.91,27.05,11.91,41,16.81A184.7,184.7,0,0,0-36,205.77a124.89,124.89,0,0,0,31.09.77,121.39,121.39,0,0,0,50-16.27c13.5-7.93,24.61-18.54,34.3-30.72,9-11.29,16.55-23.54,23.74-36,14.09-24.45,28-49,42.24-73.36,15-25.77,31-51,48.47-75.17C208.45-45.22,224-64.72,241.35-82.73c12.5-13,25.83-25,40.69-35.33a132.05,132.05,0,0,1,57.68-22.67c10.48-1.46,21-2.23,31.54-2.7,11.82-.52,23.65-.76,35.48-1.14a9,9,0,0,0,1.58-.35H430.4a11.7,11.7,0,0,0,1.84.35c11,.38,22.07.5,33.08,1.16,26.09,1.58,51.79,5.56,76.69,13.83,3.78,1.26,7.49,2.76,11.29,4a3.06,3.06,0,0,1,2.37,3.36c0,4.87-.07,9.75-.06,14.63,0,7.6.07,15.19.06,22.79,0,23.75,0,47.51-.1,71.26,0,7.52-.34,15-.53,22.54a7.72,7.72,0,0,1-.2,1.05c-.87-.31-1.61-.55-2.33-.83a255.3,255.3,0,0,0-53.68-14A437.61,437.61,0,0,0,443.17-9.3c-19.76-.49-39.5.05-59.24.68-10.87.35-21.74.82-32.58,1.56C323.71-5.17,299,4.57,276.75,21c-14.3,10.53-27,22.74-39.16,35.63-21.45,22.77-40.27,47.6-57.7,73.53C160,159.65,142,190.32,124.61,221.37c-10.2,18.2-20.4,36.4-31.52,54.07-8.18,13-17.52,25-28.89,35.38A116.74,116.74,0,0,1,5.12,340.21c-4.16.75-8.4,1.11-12.59,1.66a7.86,7.86,0,0,0-1.33.41Z"/><path class="cls-4" d="M692.5-54.5s-59,349-150,280-291-139-300,120,60,523,214,598S820,753,899,990s619.5,255.5,619.5,255.5,332,38,141-347-589-332-589-332-380,48-173-323,550-321,550-321l246-45-307-71-284,18-153,69s-270,211-220,633,525,233,525,233,165-52,155,200-254.5,151.5-282,84c0,0-74.5-224.5-431.5-288.5S404.5,786.5,399.5,452.5s114-61,114-61,111,221,177-157,93-428,93-428Z"/><path class="cls-4" d="M488.64,1412a13.54,13.54,0,0,0-2.08-.37,334.85,334.85,0,0,1-93.73-17.49,373.29,373.29,0,0,1-118.52-65.66c-34.71-28.37-64-61.6-89-98.75s-44.62-77.18-60-119.26c-9.8-26.81-18.1-54.1-26.42-81.4-15.21-49.92-29.1-100.22-42.27-150.72-4.24-16.25-9.28-32.25-16.16-47.62C33,814,23.22,798.62,12.19,784-23.41,737-65.94,697.21-114.75,664.12q-19.38-13.12-39.84-24.49a3.94,3.94,0,0,1-2.46-3.85c-.07-9-.39-18.07-.45-27.1q-.25-39.12-.37-78.23c0-13.44-.06-26.88.13-40.32.2-14.87.66-29.74,1-44.61.05-2.23,0-4.46,0-7,.89.42,1.51.68,2.09,1a541.81,541.81,0,0,1,114.21,85A488.54,488.54,0,0,1,8.5,578.78c10.43,13.7,20.14,27.86,27.68,43.42a275.73,275.73,0,0,1,17,45c4.79,16.91,9.21,33.93,13.71,50.92,8.58,32.46,18,64.66,27.85,96.75,7.31,23.92,14.64,47.84,22.34,71.64a610.43,610.43,0,0,0,31.08,78.14c20,41.33,44.59,79.65,75,114.16,30.2,34.32,64.69,63.47,104.51,86.12a359.3,359.3,0,0,0,108.22,40.49,322.71,322.71,0,0,0,71.79,6.25,298,298,0,0,0,44.59-4.46c.53-.1,1.08-.08,1.82-.14.08,2.11.19,4.09.22,6.07.28,20.47.63,40.95.78,61.42s.16,41,.11,61.44c-.06,21-.25,42.07-.42,63.1,0,2.54-.27,5.08-.42,7.82-3.47.58-6.76,1.18-10.06,1.67a282.72,282.72,0,0,1-32.22,3,11.73,11.73,0,0,0-1.84.36Z"/><path class="cls-3" d="M1725-114s-330,445-523,342c-128.17-68.4-203,116-7,186s320-59,350,93,175,388,223,361,385-63,328,152,229,94,229,94,73-324,73-336-393-199-566-85-55-308-64-345,8.35-43.48-276-31c-205,9,217-181,217-181l266-81c51.33-7.6,89.41-27.13,59.2-69.33C1994.71-69.5,1930.62-136.12,1834-177,1782-199,1725-114,1725-114Z"/></g></svg>