<svg id="Layer_1" data-name="Layer 1" xmlns="http://www.w3.org/2000/svg" viewBox="0 0 1920 1080"><defs><style>.cls-1{fill:#c0effb;}.cls-2{opacity:0.2;}.cls-3{fill:#fff;}.cls-4{fill:#f2f2f2;}</style></defs><title>background_</title><rect class="cls-1" width="1920" height="1080"/><g class="cls-2"><path class="cls-3" d="M990.72,1453.76a15.77,15.77,0,0,0-3.52-1.38c-41.56-5.21-79.9-19.81-116.34-39.91a506.6,506.6,0,0,1-67.72-45.33c-30-23.54-57.77-49.59-84.14-77.12-22.36-23.35-43.83-47.51-65.37-71.6-20.47-22.9-41-45.74-62.54-67.67-22-22.41-44.86-43.83-69.48-63.33a468.84,468.84,0,0,0-62-41.88,366,366,0,0,0-97.35-37.18,457,457,0,0,0-66.34-10,793,793,0,0,0-90.15-2.22c-5.75.2-11.51.35-17.27.49-22.08.53-44.1,1.93-66.13,3.51q-23.94,1.73-47.75,4.58c-52.83,6.38-104.83,16.63-155.2,34.21-33,11.52-64.72,25.85-94.68,44A416.5,416.5,0,0,0-226,1118.93c-2,1.63-3.93,3.27-5.92,4.89-.75.61-1.64,1.07-2.54.44a3.61,3.61,0,0,1-.9-1.51,2.61,2.61,0,0,1-.12-.94c-.67-13.1-1.59-26.19-1.57-39.32q.09-51.84.14-103.67c0-6.71-.3-13.43-.31-20.14,0-5.76.1-11.51.29-17.26a7.77,7.77,0,0,1,2.93-5.83c3.41-2.9,6.77-5.87,10.21-8.73,32.26-26.75,68.05-47.68,106.47-64.2A584.32,584.32,0,0,1-23.6,831.87c24.26-5.86,48.77-10.41,73.47-14,19.32-2.82,38.71-5,58.13-6.82,13.69-1.29,27.45-1.84,41.17-2.86,26.82-2,53.71-2.16,80.58-2.33,16.95-.11,33.93.29,50.85,1.21,29.1,1.57,58,5.2,86.37,12a373.91,373.91,0,0,1,106.85,44.17c27.49,16.6,52.8,36.09,76.77,57.39q30.52,27.12,58.22,57.12c20.44,22.07,40.52,44.47,60.78,66.69,16.17,17.74,32.23,35.58,48.62,53.11,19.23,20.58,39.29,40.34,60.47,58.93,24.83,21.8,51.16,41.54,79.66,58.31,25.73,15.13,52.66,27.58,81.25,36.35,31.49,9.65,63.63,14.2,96.57,12.43a250.16,250.16,0,0,0,58.43-10.41c24.28-7.28,47.41-17.35,69.9-29,15.63-8.08,30.87-16.87,45.94-26q194.94-117.54,348.47-285.6c26.39-28.77,51.62-58.57,76.83-88.37,25.63-30.29,51.17-60.66,77.1-90.68,28-32.47,57.3-63.81,88.43-93.36,31.86-30.24,65.69-58,102.37-82.27s75.53-44.35,117-59.19A448,448,0,0,1,2094.7,479,379.5,379.5,0,0,1,2173,473c40,1.36,78.73,8.93,115.68,24.69,10.56,4.5,9.84,3.12,9.83,14.6q-.08,73.9-.34,147.83c0,9.27-.44,18.55-.72,27.82-.06,1.86-1.58,2.74-3.37,2.09-.9-.33-1.81-.64-2.7-1-1.77-.74-3.51-1.53-5.28-2.27a308.18,308.18,0,0,0-74.69-20.61,339.19,339.19,0,0,0-69.89-2.87A419.46,419.46,0,0,0,2051,679.1c-50.8,14.62-98.12,36.77-142.44,65.47A702.36,702.36,0,0,0,1823.44,810c-27.28,24.28-52.94,50.18-77.7,77-23.23,25.16-45.62,51.07-67.76,77.19-28.34,33.44-56.53,67-85.06,100.29a1577.74,1577.74,0,0,1-127.09,132,1590.12,1590.12,0,0,1-187.94,148.85c-23.58,16-47.41,31.54-72,46-19.87,11.67-40,22.77-61,32.45s-42.48,17.74-65,23.14a226.21,226.21,0,0,1-27.31,5.17c-1.59.17-3.2.35-4.37,1.64Z"/><path class="cls-3" d="M551-237.76a37.25,37.25,0,0,0-.32,3.79c.94,48.95.7,97.9.5,146.86,0,10.56-.07,21.12-.16,31.68a41.28,41.28,0,0,1-.55,6.66,3.39,3.39,0,0,1-1.75,2.05,14,14,0,0,1-3.68.94C465.16-31.67,396.59,4.44,338.73,61.07c-37.33,36.53-65.52,79.26-85.32,127.54-7.76,18.93-15.25,38-22.84,57-5.34,13.37-10.92,26.63-17.16,39.6-4.85,10.1-10.12,20-15.9,29.57a230.93,230.93,0,0,1-80.18,79.72,259.1,259.1,0,0,1-92.28,33.63,258.27,258.27,0,0,1-55.5,2.62A227,227,0,0,1-101.4,415.4c-1.78-.7-3.51-1.59-5.34-2.13-4.79-1.4-6.19-4.73-6.2-9.41,0-17.59-.29-35.19-.32-52.79q-.06-44.64.11-89.27c.05-11.84.55-23.67.86-35.51,0-1.59.06-3.22,1.9-4.43,1.86.7,4,1.41,6,2.25A225.41,225.41,0,0,0-42.28,239.8a243.47,243.47,0,0,0,41.22.86c50.5-3,96.3-19.23,137.19-49a225.59,225.59,0,0,0,60.09-65.24,352.53,352.53,0,0,0,24.47-47.77c7.92-18.87,15.38-37.93,23.1-56.88,4.59-11.25,9.1-22.54,14-33.65,32-72.39,82.25-129,149-171.09a381.28,381.28,0,0,1,124.75-50.44c4.38-.93,8.82-1.6,13.19-2.55a26.37,26.37,0,0,0,4.37-1.78Z"/><path class="cls-3" d="M-182.4,646.65c0-18.23,0-36.47,0-54.7,0-9.6-.25-19.2-.21-28.8.05-11.07-.35-9.53,6.86-16.79,15.35-15.46,31.6-29.9,49.46-42.45,17.61-12.38,36.31-22.7,56.64-30a190.43,190.43,0,0,1,59.15-11,313.82,313.82,0,0,1,64,5.14c41.63,7.38,82.37,18.3,122.78,30.51,42.25,12.76,83.89,27.33,125.44,42.16,38.24,13.64,76.4,27.5,114.9,40.42,37.89,12.71,76.06,24.51,114.78,34.48a963.42,963.42,0,0,0,94.8,19.7c20.23,3.1,40.56,5.43,61,6.76,12.78.83,25.55,1.39,38.34,1.5a547.9,547.9,0,0,0,68-3.53,507.75,507.75,0,0,0,55.75-9.48c52.3-12.08,100.64-33.3,145.36-62.87,37.05-24.51,69.78-54,99.39-87a656.82,656.82,0,0,0,81-112.84q15.48-27.06,30-54.64,45.23-85.69,90.09-171.58c29.74-57,58.85-114.29,86.32-172.41,16.81-35.56,33.06-71.37,48-107.77,8.61-21,16.46-42.3,22.52-64.22.43-1.53,1-3,1.52-4.54.22-.72.63-1.09,1.41-.92a.9.9,0,0,1,.49.65c.18,1.58.4,3.16.43,4.74q1.18,62.87.56,125.72c-.11,12.16-.63,24.31.22,36.46a62.54,62.54,0,0,1-2.5,20.86c-5.74,21-13.06,41.46-20.86,61.76-12.18,31.65-26.15,62.53-40.39,93.29-29.56,63.86-61.18,126.7-93.73,189.07-25.44,48.76-51.27,97.32-77,146-12.4,23.46-24.77,46.95-37.41,70.29a714.15,714.15,0,0,1-44.8,72.64,613.25,613.25,0,0,1-77.36,90.2c-28.84,27.48-60.22,51.59-94.93,71.26A443.11,443.11,0,0,1,851.88,820a486.23,486.23,0,0,1-59.51,10.26A568.15,568.15,0,0,1,704.21,833c-23.32-1-46.56-3.24-69.71-6.51-42.5-6-84.24-15.42-125.59-26.8-44.42-12.22-88.1-26.72-131.54-42-39.82-14-79.53-28.26-119.35-42.22-44.67-15.65-89.75-30-135.49-42.18a706.85,706.85,0,0,0-71.16-15.61c-18-2.86-36.12-4.85-54.43-4.67-38,.37-73.3,9.91-105.84,29.61a304.61,304.61,0,0,0-45.4,33.7c-7.15,6.4-14,13.17-20.95,19.74-1.38,1.3-2.87,2.49-4.33,3.7-.65.53-2.15-.19-2.21-1.07-.17-2.55-.4-5.1-.42-7.64q-.24-42.24-.43-84.47Z"/><path class="cls-4" d="M781-59S454,65,442,268,645,505,645,505s246,60,335-161c118.83-295.07,283-452,283-452S1107.75-299,980,110C836,571,833-32,745,325c-29.77,120.79-188,80-118-84S939-132,939-132Z"/><path class="cls-4" d="M1807-42s-371.94,160.92-346,405c22,207-125.42,442.54-255,406-266-75-150,111-150,111s49,148,216,99c85-24.92,512-311,389-509-108.39-174.49,300-245,300-245l262-117s150-399-155-297S1807-42,1807-42Z"/></g></svg>