<svg id="Layer_1" data-name="Layer 1" xmlns="http://www.w3.org/2000/svg" viewBox="0 0 878 723"><defs><style>.cls-1{fill:#ffcc1d;}.cls-2{fill:#ffd74f;}.cls-3{fill:#fee79a;}.cls-4{fill:#57b8fe;}.cls-5{fill:#373737;}.cls-6{fill:#fff;}.cls-7{fill:#4de4c4;}.cls-8{fill:#43ed93;}.cls-9{fill:#f7d7c7;}.cls-10{fill:#f0503d;}</style></defs><title>finance</title><path class="cls-1" d="M406.79,477.54c-45.56,0-82.5,16.79-82.5,37.5v22.5c0,20.71,36.94,37.5,82.5,37.5s82.5-16.79,82.5-37.5V515c0-20.71-36.93-37.5-82.5-37.5Z"/><path class="cls-2" d="M350.54,501.75V565c10.37,4.39,23.22,7.58,37.5,9.09V493.8a141.84,141.84,0,0,0-37.5,7.95Z"/><path class="cls-2" d="M425.54,493.8v80.26c14.29-1.51,27.14-4.7,37.5-9.09V501.75a141.84,141.84,0,0,0-37.5-7.95Z"/><path class="cls-3" d="M489.29,515c0,20.71-36.93,37.5-82.5,37.5s-82.5-16.79-82.5-37.5,36.94-37.5,82.5-37.5,82.5,16.79,82.5,37.5Z"/><path class="cls-1" d="M478,513.54c0,15.74-31.9,28.5-71.25,28.5s-71.25-12.76-71.25-28.5,31.9-28.5,71.25-28.5S478,497.8,478,513.54Z"/><path class="cls-3" d="M425.77,525.6a62.14,62.14,0,0,1-13.69,1.63v-12.4q9,.92,13.46,1.85c4.41.91,6.62,2.38,6.62,4.39s-2.13,3.42-6.39,4.53ZM389.3,507.18q-4.6-1.14-4.6-3.44c0-1.67,1.91-3,5.72-4a53.23,53.23,0,0,1,11.08-1.42V509a94.61,94.61,0,0,1-12.2-1.77ZM439,514.77a51.82,51.82,0,0,0-12.65-3.25q-5.64-.79-14.3-1.61v-11.6q16.21.79,17.83,6.51h12.14q-.58-5.24-10.34-8.1A82.13,82.13,0,0,0,412.08,494v-3.74H401.5v3.7q-12,.38-19.78,2.77-9.15,2.85-9.15,7.28,0,3.93,7,6.31,6.75,2.27,21.9,3.59V527a64.76,64.76,0,0,1-11.43-1.71q-7.81-1.95-8.77-6h-12q.52,5.43,10.37,8.9,7.79,2.73,21.84,3.31v3.74h10.58v-3.61q13.73-.25,22.55-3.09,9.66-3.12,9.66-7.83c0-2.47-1.75-4.45-5.26-5.92Z"/><path class="cls-1" d="M406.79,444.54c-45.56,0-82.5,16.79-82.5,37.5v22.5c0,20.71,36.94,37.5,82.5,37.5s82.5-16.79,82.5-37.5V482c0-20.71-36.93-37.5-82.5-37.5Z"/><path class="cls-2" d="M350.54,468.75V532c10.37,4.39,23.22,7.58,37.5,9.09V460.8a141.84,141.84,0,0,0-37.5,7.95Z"/><path class="cls-2" d="M425.54,460.8v80.26c14.29-1.51,27.14-4.7,37.5-9.09V468.75a141.84,141.84,0,0,0-37.5-7.95Z"/><path class="cls-3" d="M489.29,482c0,20.71-36.93,37.5-82.5,37.5s-82.5-16.79-82.5-37.5,36.94-37.5,82.5-37.5,82.5,16.79,82.5,37.5Z"/><path class="cls-1" d="M478,480.54c0,15.74-31.9,28.5-71.25,28.5s-71.25-12.76-71.25-28.5,31.9-28.5,71.25-28.5S478,464.8,478,480.54Z"/><path class="cls-3" d="M425.77,492.6a62.14,62.14,0,0,1-13.69,1.63v-12.4q9,.92,13.46,1.85c4.41.91,6.62,2.38,6.62,4.39s-2.13,3.42-6.39,4.53ZM389.3,474.18q-4.6-1.14-4.6-3.44c0-1.67,1.91-3,5.72-4a53.23,53.23,0,0,1,11.08-1.42V476a94.61,94.61,0,0,1-12.2-1.77ZM439,481.77a51.82,51.82,0,0,0-12.65-3.25q-5.64-.79-14.3-1.61v-11.6q16.21.79,17.83,6.51h12.14q-.58-5.24-10.34-8.1A82.13,82.13,0,0,0,412.08,461v-3.74H401.5v3.7q-12,.38-19.78,2.77-9.15,2.85-9.15,7.28,0,3.93,7,6.31,6.75,2.27,21.9,3.59V494a64.76,64.76,0,0,1-11.43-1.71q-7.81-1.95-8.77-6h-12q.52,5.43,10.37,8.9,7.79,2.73,21.84,3.31v3.74h10.58v-3.61q13.73-.25,22.55-3.09,9.66-3.12,9.66-7.83c0-2.47-1.75-4.45-5.26-5.92Z"/><path class="cls-1" d="M406.79,411.54c-45.56,0-82.5,16.79-82.5,37.5v22.5c0,20.71,36.94,37.5,82.5,37.5s82.5-16.79,82.5-37.5V449c0-20.71-36.93-37.5-82.5-37.5Z"/><path class="cls-2" d="M350.54,435.75V499c10.37,4.39,23.22,7.58,37.5,9.09V427.8a141.84,141.84,0,0,0-37.5,7.95Z"/><path class="cls-2" d="M425.54,427.8v80.26c14.29-1.51,27.14-4.7,37.5-9.09V435.75a141.84,141.84,0,0,0-37.5-7.95Z"/><path class="cls-3" d="M489.29,449c0,20.72-36.93,37.5-82.5,37.5s-82.5-16.78-82.5-37.5,36.94-37.5,82.5-37.5,82.5,16.79,82.5,37.5Z"/><path class="cls-1" d="M478,447.54c0,15.74-31.9,28.5-71.25,28.5s-71.25-12.76-71.25-28.5,31.9-28.5,71.25-28.5S478,431.8,478,447.54Z"/><path class="cls-3" d="M425.77,459.6a62.14,62.14,0,0,1-13.69,1.63v-12.4q9,.92,13.46,1.85c4.41.91,6.62,2.38,6.62,4.39s-2.13,3.42-6.39,4.53ZM389.3,441.18q-4.6-1.14-4.6-3.44c0-1.67,1.91-3,5.72-4a52.56,52.56,0,0,1,11.08-1.42V443a94.61,94.61,0,0,1-12.2-1.77ZM439,448.77a51.82,51.82,0,0,0-12.65-3.25q-5.64-.79-14.3-1.61v-11.6q16.21.79,17.83,6.51h12.14q-.58-5.24-10.34-8.1A82.13,82.13,0,0,0,412.08,428v-3.74H401.5v3.7q-12,.38-19.78,2.77-9.15,2.85-9.15,7.28c0,2.62,2.34,4.73,7,6.3q6.75,2.28,21.9,3.6V461a64.76,64.76,0,0,1-11.43-1.71q-7.81-1.95-8.77-6h-12q.52,5.43,10.37,8.9,7.79,2.73,21.84,3.31v3.74h10.58v-3.61q13.73-.25,22.55-3.09,9.66-3.12,9.66-7.83c0-2.47-1.75-4.45-5.26-5.92Z"/><path class="cls-1" d="M391.79,378.54c-45.56,0-82.5,16.79-82.5,37.5v22.5c0,20.71,36.94,37.5,82.5,37.5s82.5-16.79,82.5-37.5V416c0-20.71-36.93-37.5-82.5-37.5Z"/><path class="cls-2" d="M335.54,402.75V466c10.37,4.39,23.22,7.58,37.5,9.09V394.8a141.84,141.84,0,0,0-37.5,7.95Z"/><path class="cls-2" d="M410.54,394.8v80.26c14.29-1.51,27.14-4.7,37.5-9.09V402.75a141.84,141.84,0,0,0-37.5-7.95Z"/><path class="cls-3" d="M474.29,416c0,20.71-36.93,37.5-82.5,37.5s-82.5-16.79-82.5-37.5,36.94-37.5,82.5-37.5,82.5,16.79,82.5,37.5Z"/><path class="cls-1" d="M463,414.54c0,15.74-31.9,28.5-71.25,28.5s-71.25-12.76-71.25-28.5,31.9-28.5,71.25-28.5S463,398.8,463,414.54Z"/><path class="cls-3" d="M410.77,426.6a62.14,62.14,0,0,1-13.69,1.63v-12.4q9,.92,13.46,1.85c4.41.91,6.62,2.38,6.62,4.39s-2.13,3.42-6.39,4.53ZM374.3,408.18q-4.6-1.14-4.6-3.44c0-1.67,1.91-3,5.72-4a52.56,52.56,0,0,1,11.08-1.42V410a96.45,96.45,0,0,1-12.2-1.77ZM424,415.77a51.82,51.82,0,0,0-12.65-3.25q-5.64-.79-14.3-1.61v-11.6q16.21.79,17.83,6.51h12.14q-.58-5.24-10.34-8.1A82.13,82.13,0,0,0,397.08,395v-3.74H386.5v3.7q-12,.38-19.78,2.77-9.15,2.85-9.15,7.28c0,2.62,2.34,4.73,7,6.3q6.75,2.28,21.9,3.6V428a64.76,64.76,0,0,1-11.43-1.71q-7.81-1.95-8.77-6h-12q.52,5.43,10.37,8.9,7.79,2.73,21.84,3.31v3.74h10.58v-3.61q13.73-.25,22.55-3.09,9.66-3.12,9.66-7.83c0-2.47-1.75-4.45-5.26-5.92Z"/><path class="cls-1" d="M406.79,345.54c-45.56,0-82.5,16.79-82.5,37.5v22.5c0,20.71,36.94,37.5,82.5,37.5s82.5-16.79,82.5-37.5V383c0-20.71-36.93-37.5-82.5-37.5Z"/><path class="cls-2" d="M350.54,369.75V433c10.37,4.4,23.22,7.59,37.5,9.1V361.8a141.84,141.84,0,0,0-37.5,7.95Z"/><path class="cls-2" d="M425.54,361.8v80.26c14.29-1.51,27.14-4.7,37.5-9.1V369.75a141.84,141.84,0,0,0-37.5-7.95Z"/><path class="cls-3" d="M489.29,383c0,20.71-36.93,37.5-82.5,37.5s-82.5-16.79-82.5-37.5,36.94-37.5,82.5-37.5,82.5,16.79,82.5,37.5Z"/><path class="cls-1" d="M478,381.54c0,15.74-31.9,28.5-71.25,28.5s-71.25-12.76-71.25-28.5,31.9-28.5,71.25-28.5S478,365.8,478,381.54Z"/><path class="cls-3" d="M425.77,393.6a62.14,62.14,0,0,1-13.69,1.63v-12.4q9,.92,13.46,1.85c4.41.91,6.62,2.38,6.62,4.39s-2.13,3.42-6.39,4.53ZM389.3,375.18q-4.6-1.14-4.6-3.44c0-1.67,1.91-3,5.72-4a52.56,52.56,0,0,1,11.08-1.42V377a96.45,96.45,0,0,1-12.2-1.77ZM439,382.77a51.82,51.82,0,0,0-12.65-3.25q-5.64-.79-14.3-1.61v-11.6q16.21.79,17.83,6.51h12.14q-.58-5.24-10.34-8.1A82.13,82.13,0,0,0,412.08,362v-3.74H401.5v3.7q-12,.38-19.78,2.77-9.15,2.85-9.15,7.28c0,2.62,2.34,4.73,7,6.3q6.75,2.28,21.9,3.6V395a64.76,64.76,0,0,1-11.43-1.71q-7.81-1.95-8.77-6h-12q.52,5.43,10.37,8.9,7.79,2.73,21.84,3.31v3.74h10.58v-3.61q13.73-.25,22.55-3.09,9.66-3.12,9.66-7.83c0-2.47-1.75-4.45-5.26-5.92Z"/><path class="cls-1" d="M376,312.54c-45.56,0-82.5,16.79-82.5,37.5v22.5c0,20.71,36.94,37.5,82.5,37.5s82.5-16.79,82.5-37.5V350c0-20.71-36.93-37.5-82.5-37.5Z"/><path class="cls-2" d="M319.79,336.75V400c10.37,4.4,23.22,7.59,37.5,9.1V328.8a141.84,141.84,0,0,0-37.5,7.95Z"/><path class="cls-2" d="M394.79,328.8v80.26c14.29-1.51,27.14-4.7,37.5-9.1V336.75a141.84,141.84,0,0,0-37.5-7.95Z"/><path class="cls-3" d="M458.54,350c0,20.71-36.93,37.5-82.5,37.5s-82.5-16.79-82.5-37.5,36.94-37.5,82.5-37.5,82.5,16.79,82.5,37.5Z"/><path class="cls-1" d="M447.29,348.54c0,15.74-31.9,28.5-71.25,28.5s-71.25-12.76-71.25-28.5S336.69,320,376,320s71.25,12.76,71.25,28.5Z"/><path class="cls-3" d="M395,360.6a62.14,62.14,0,0,1-13.69,1.63v-12.4q9,.92,13.46,1.85c4.41.91,6.62,2.38,6.62,4.39s-2.13,3.42-6.39,4.53Zm-36.47-18.42q-4.6-1.14-4.6-3.44c0-1.67,1.91-3,5.72-4a52.56,52.56,0,0,1,11.08-1.42V344a96.45,96.45,0,0,1-12.2-1.77Zm49.73,7.59a51.82,51.82,0,0,0-12.65-3.25q-5.64-.79-14.3-1.61v-11.6q16.21.79,17.83,6.51H411.3q-.58-5.24-10.34-8.1A82.13,82.13,0,0,0,381.33,329v-3.74H370.75v3.7q-12,.38-19.78,2.77-9.15,2.85-9.15,7.28c0,2.62,2.34,4.73,7,6.3q6.75,2.28,21.9,3.6V362a64.76,64.76,0,0,1-11.43-1.71q-7.81-1.95-8.77-6h-12q.52,5.43,10.37,8.9,7.79,2.73,21.84,3.31v3.74h10.58v-3.61q13.73-.25,22.55-3.09,9.66-3.12,9.66-7.83c0-2.47-1.75-4.45-5.26-5.92Z"/><path class="cls-1" d="M361,279.54c-45.56,0-82.5,16.79-82.5,37.5v22.5c0,20.71,36.94,37.5,82.5,37.5s82.5-16.79,82.5-37.5V317c0-20.71-36.93-37.5-82.5-37.5Z"/><path class="cls-2" d="M304.79,303.75V367c10.37,4.4,23.22,7.59,37.5,9.1V295.8a141.84,141.84,0,0,0-37.5,7.95Z"/><path class="cls-2" d="M379.79,295.8v80.26c14.29-1.51,27.14-4.7,37.5-9.1V303.75a141.84,141.84,0,0,0-37.5-7.95Z"/><path class="cls-3" d="M443.54,317c0,20.71-36.93,37.5-82.5,37.5s-82.5-16.79-82.5-37.5,36.94-37.5,82.5-37.5,82.5,16.79,82.5,37.5Z"/><path class="cls-1" d="M432.29,315.54c0,15.74-31.9,28.5-71.25,28.5s-71.25-12.76-71.25-28.5S321.69,287,361,287s71.25,12.76,71.25,28.5Z"/><path class="cls-3" d="M380,327.6a62.14,62.14,0,0,1-13.69,1.63v-12.4q9,.92,13.46,1.85c4.41.91,6.62,2.38,6.62,4.39s-2.13,3.42-6.39,4.53Zm-36.47-18.42q-4.6-1.14-4.6-3.44c0-1.67,1.91-3,5.72-4a52.56,52.56,0,0,1,11.08-1.42V311a94.61,94.61,0,0,1-12.2-1.77Zm49.73,7.59a51.82,51.82,0,0,0-12.65-3.25q-5.64-.79-14.3-1.61v-11.6q16.21.79,17.83,6.51H396.3q-.58-5.24-10.34-8.1A82.13,82.13,0,0,0,366.33,296v-3.74H355.75v3.7q-12,.38-19.78,2.77-9.15,2.85-9.15,7.28c0,2.62,2.34,4.73,7,6.3q6.75,2.28,21.9,3.6V329a64.76,64.76,0,0,1-11.43-1.71q-7.81-1.95-8.77-6h-12q.52,5.43,10.37,8.9,7.79,2.73,21.84,3.31v3.74h10.58v-3.61q13.73-.25,22.55-3.09,9.66-3.12,9.66-7.83c0-2.47-1.75-4.45-5.26-5.92Z"/><path class="cls-1" d="M376,246.54c-45.56,0-82.5,16.79-82.5,37.5v22.5c0,20.71,36.94,37.5,82.5,37.5s82.5-16.79,82.5-37.5V284c0-20.71-36.93-37.5-82.5-37.5Z"/><path class="cls-2" d="M319.79,270.75V334c10.37,4.4,23.22,7.59,37.5,9.1V262.8a141.84,141.84,0,0,0-37.5,7.95Z"/><path class="cls-2" d="M394.79,262.8v80.26c14.29-1.51,27.14-4.7,37.5-9.1V270.75a141.84,141.84,0,0,0-37.5-7.95Z"/><path class="cls-3" d="M458.54,284c0,20.71-36.93,37.5-82.5,37.5s-82.5-16.79-82.5-37.5,36.94-37.5,82.5-37.5,82.5,16.79,82.5,37.5Z"/><path class="cls-1" d="M447.29,282.54c0,15.74-31.9,28.5-71.25,28.5s-71.25-12.76-71.25-28.5S336.69,254,376,254s71.25,12.76,71.25,28.5Z"/><path class="cls-3" d="M395,294.6a62.14,62.14,0,0,1-13.69,1.63v-12.4q9,.92,13.46,1.85c4.41.91,6.62,2.38,6.62,4.39s-2.13,3.42-6.39,4.53Zm-36.47-18.42q-4.6-1.14-4.6-3.44c0-1.67,1.91-3,5.72-4a52.56,52.56,0,0,1,11.08-1.42V278a94.61,94.61,0,0,1-12.2-1.77Zm49.73,7.59a51.82,51.82,0,0,0-12.65-3.25q-5.64-.79-14.3-1.61v-11.6q16.21.79,17.83,6.51H411.3q-.58-5.24-10.34-8.1A82.13,82.13,0,0,0,381.33,263v-3.74H370.75v3.7q-12,.38-19.78,2.77-9.15,2.85-9.15,7.28c0,2.62,2.34,4.73,7,6.3q6.75,2.28,21.9,3.6V296a64.76,64.76,0,0,1-11.43-1.71q-7.81-1.95-8.77-6h-12q.52,5.43,10.37,8.9,7.79,2.73,21.84,3.31v3.74h10.58v-3.61q13.73-.25,22.55-3.09,9.66-3.12,9.66-7.83c0-2.47-1.75-4.45-5.26-5.92Z"/><path class="cls-1" d="M452.89,182.4c-39.47-22.78-79.85-26.71-90.2-8.77l-11.25,19.48c-10.36,17.94,13.23,50.95,52.7,73.73s79.84,26.71,90.19,8.77l11.25-19.48c10.36-17.94-13.24-50.95-52.69-73.73Z"/><path class="cls-2" d="M392.07,175.24,360.46,230c6.78,9,16.32,18.18,27.93,26.63l40.13-69.5a141.53,141.53,0,0,0-36.45-11.87Z"/><path class="cls-2" d="M461,205.86l-40.13,69.5c13.13,5.83,25.85,9.5,37,10.87l31.61-54.74A141.46,141.46,0,0,0,461,205.86Z"/><path class="cls-3" d="M505.58,256.13c-10.35,17.93-50.74,14-90.19-8.78s-63.06-55.79-52.7-73.72,50.73-14,90.2,8.77,63.05,55.79,52.69,73.73Z"/><path class="cls-1" d="M496.59,249.2c-7.87,13.63-41.88,8.73-75.95-10.94S365.31,191.58,373.18,178s41.88-8.73,76,11,55.32,46.67,47.45,60.3Z"/><path class="cls-3" d="M445.29,233.51a62.71,62.71,0,0,1-12.67-5.43l6.2-10.74q7.29,5.26,10.73,8.33c3.37,3,4.54,5.36,3.54,7.1s-3.56,1.9-7.8.74Zm-22.38-34.19q-3.41-3.28-2.26-5.27c.84-1.46,3.17-1.67,7-.64a53,53,0,0,1,10.31,4.31L432.6,207a95.81,95.81,0,0,1-9.69-7.63Zm39.28,31.44a51.75,51.75,0,0,0-9.33-9.14q-4.49-3.51-11.58-8.54l5.8-10q13.65,8.79,12.19,14.54l10.51,6.07q2.12-4.83-4.91-12.19a82.35,82.35,0,0,0-15.61-12.19l1.87-3.24L442,190.74l-1.85,3.2q-10.61-5.7-18.51-7.49-9.36-2.12-11.57,1.72-2,3.42,2.94,9,4.71,5.34,17.17,14.06l-6.58,11.4a66.54,66.54,0,0,1-9.05-7.2q-5.77-5.59-4.57-9.62l-10.4-6q-2.27,5,4.54,12.89,5.37,6.25,17.26,13.78l-1.88,3.25,9.17,5.29,1.81-3.13q12,6.65,21.06,8.59,9.93,2.14,12.29-1.94,1.84-3.21-1.6-7.76Z"/><polygon class="cls-4" points="629 599 589 599 589 439 629 439 629 599 629 599"/><path class="cls-5" d="M629,623H569v-8a16,16,0,0,1,16-16h44v24Z"/><path class="cls-5" d="M829,547.23,804.21,600.4,797,597a16,16,0,0,1-7.74-21.26l18-38.67L829,547.23Z"/><path class="cls-4" d="M735.52,543.79h0a21.33,21.33,0,0,0,12.75-27.34l-26.45-72.68-40.1,14.6L708.17,531a21.34,21.34,0,0,0,27.35,12.75Z"/><path class="cls-4" d="M789.34,575.74l18-38.67-70.09-32.68a21.33,21.33,0,1,0-18,38.67l70.09,32.68Z"/><path class="cls-6" d="M689,277.08l.59-.05a105.41,105.41,0,0,1,113.71,96.4h0c.59,7.17-4,14-11.07,15.45a14,14,0,0,1-16.79-12.56l-.05-.59a77.41,77.41,0,0,0-83.5-70.8h-.06c-7.13.59-13.94-4-15.38-11A14,14,0,0,1,689,277.08Z"/><path class="cls-6" d="M578,416H738V324a48,48,0,0,0-48-48H578V416Z"/><path class="cls-4" d="M638,476h40a60,60,0,0,0,60-60H578a60,60,0,0,0,60,60Z"/><polygon class="cls-7" points="639.33 304 659.33 304 667.33 276 631.33 276 639.33 304 639.33 304"/><polygon class="cls-8" points="639.33 304 659.33 304 667.33 396 649.33 408 631.33 396 639.33 304 639.33 304"/><path class="cls-9" d="M787.85,357.16a18,18,0,1,1-16.46,19.41,18,18,0,0,1,16.46-19.41Z"/><path class="cls-6" d="M502.6,193.33l108.78,91.28a14,14,0,0,1,1.72,19.72h0a14,14,0,0,1-19.72,1.73L484.6,214.78a14,14,0,0,1,18-21.45Z"/><path class="cls-9" d="M475.07,205.77a18,18,0,1,0,16.36-19.5,18,18,0,0,0-16.36,19.5Z"/><path class="cls-5" d="M771.86,198.26A104,104,0,1,1,698.32,70.88a104,104,0,0,1,73.54,127.38Z"/><path class="cls-9" d="M716.43,224.81a22,22,0,1,0,26.94-15.55,22,22,0,0,0-26.94,15.55Z"/><path class="cls-9" d="M739.89,214.54a92,92,0,1,1-65.06-112.68,92,92,0,0,1,65.06,112.68Z"/><path class="cls-5" d="M661.66,202.55a10,10,0,1,0,12.25-7.07,10,10,0,0,0-12.25,7.07Z"/><path class="cls-5" d="M576.66,179.77a10,10,0,1,0,12.25-7.07,10,10,0,0,0-12.25,7.07Z"/><path class="cls-10" d="M604,224.38A16,16,0,0,0,635,232.66L604,224.38Z"/><path class="cls-5" d="M769,193.36,645.39,160.23a72,72,0,0,1-50.91-88.18l7.25-27,96.59,25.88A100,100,0,0,1,769,193.36Z"/><path class="cls-1" d="M250.83,444.85c-45.56,0-82.49,16.79-82.49,37.5v22.5c0,20.71,36.93,37.5,82.49,37.5s82.5-16.79,82.5-37.5v-22.5c0-20.71-36.93-37.5-82.5-37.5Z"/><path class="cls-2" d="M194.59,469.05v63.22c10.36,4.4,23.21,7.59,37.49,9.1V461.11a141.69,141.69,0,0,0-37.49,7.94Z"/><path class="cls-2" d="M269.58,461.11v80.26c14.29-1.51,27.14-4.7,37.5-9.1V469.05a141.68,141.68,0,0,0-37.5-7.94Z"/><path class="cls-3" d="M333.33,482.35c0,20.71-36.93,37.5-82.5,37.5s-82.49-16.79-82.49-37.5,36.93-37.5,82.49-37.5,82.5,16.79,82.5,37.5Z"/><path class="cls-1" d="M322.08,480.85c0,15.74-31.9,28.5-71.25,28.5s-71.24-12.76-71.24-28.5,31.89-28.5,71.24-28.5,71.25,12.76,71.25,28.5Z"/><path class="cls-3" d="M269.81,492.91a62,62,0,0,1-13.68,1.63V482.13c6,.62,10.45,1.23,13.45,1.86q6.62,1.36,6.62,4.38c0,1.91-2.13,3.43-6.39,4.54Zm-36.47-18.42q-4.59-1.14-4.59-3.44c0-1.67,1.9-3,5.71-4a52.56,52.56,0,0,1,11.08-1.42v10.65a97.23,97.23,0,0,1-12.2-1.76Zm49.73,7.59a51.82,51.82,0,0,0-12.65-3.25q-5.64-.79-14.29-1.61v-11.6q16.22.79,17.82,6.51h12.14q-.58-5.24-10.34-8.11a82.68,82.68,0,0,0-19.62-2.75v-3.74H245.54v3.7q-12,.38-19.78,2.77-9.15,2.83-9.15,7.28,0,3.93,7,6.3,6.75,2.28,21.9,3.59v13.16a65.7,65.7,0,0,1-11.43-1.71q-7.8-2-8.77-6h-12q.51,5.43,10.37,8.9,7.77,2.73,21.83,3.3v3.75h10.59v-3.62q13.71-.24,22.54-3.08,9.66-3.12,9.66-7.83c0-2.47-1.75-4.45-5.26-5.92Z"/><path class="cls-1" d="M250.83,411.85c-45.56,0-82.49,16.79-82.49,37.5v22.5c0,20.71,36.93,37.5,82.49,37.5s82.5-16.79,82.5-37.5v-22.5c0-20.71-36.93-37.5-82.5-37.5Z"/><path class="cls-2" d="M194.59,436.05v63.22c10.36,4.4,23.21,7.59,37.49,9.1V428.11a141.69,141.69,0,0,0-37.49,7.94Z"/><path class="cls-2" d="M269.58,428.11v80.26c14.29-1.51,27.14-4.7,37.5-9.1V436.05a141.68,141.68,0,0,0-37.5-7.94Z"/><path class="cls-3" d="M333.33,449.35c0,20.71-36.93,37.5-82.5,37.5s-82.49-16.79-82.49-37.5,36.93-37.5,82.49-37.5,82.5,16.79,82.5,37.5Z"/><path class="cls-1" d="M322.08,447.85c0,15.74-31.9,28.5-71.25,28.5s-71.24-12.76-71.24-28.5,31.89-28.5,71.24-28.5,71.25,12.76,71.25,28.5Z"/><path class="cls-3" d="M269.81,459.91a62,62,0,0,1-13.68,1.63v-12.4q8.94.92,13.45,1.85,6.62,1.36,6.62,4.38c0,1.91-2.13,3.43-6.39,4.54Zm-36.47-18.42q-4.59-1.14-4.59-3.44c0-1.67,1.9-3,5.71-4a52.56,52.56,0,0,1,11.08-1.42v10.65a97.23,97.23,0,0,1-12.2-1.76Zm49.73,7.59a51.82,51.82,0,0,0-12.65-3.25q-5.64-.79-14.29-1.61v-11.6q16.22.79,17.82,6.51h12.14q-.58-5.24-10.34-8.11a82.68,82.68,0,0,0-19.62-2.75v-3.74H245.54v3.7q-12,.38-19.78,2.77-9.15,2.83-9.15,7.28,0,3.93,7,6.3,6.75,2.28,21.9,3.59v13.16a65.7,65.7,0,0,1-11.43-1.71q-7.8-2-8.77-6h-12q.51,5.43,10.37,8.9,7.77,2.73,21.83,3.3v3.75h10.59v-3.62q13.71-.24,22.54-3.08,9.66-3.12,9.66-7.83,0-3.72-5.26-5.92Z"/><path class="cls-1" d="M250.83,378.85c-45.56,0-82.49,16.79-82.49,37.5v22.5c0,20.71,36.93,37.5,82.49,37.5s82.5-16.79,82.5-37.5v-22.5c0-20.71-36.93-37.5-82.5-37.5Z"/><path class="cls-2" d="M194.59,403.05v63.22c10.36,4.4,23.21,7.59,37.49,9.1V395.11a141.69,141.69,0,0,0-37.49,7.94Z"/><path class="cls-2" d="M269.58,395.11v80.26c14.29-1.51,27.14-4.7,37.5-9.1V403.05a141.68,141.68,0,0,0-37.5-7.94Z"/><path class="cls-3" d="M333.33,416.35c0,20.71-36.93,37.5-82.5,37.5s-82.49-16.79-82.49-37.5,36.93-37.5,82.49-37.5,82.5,16.79,82.5,37.5Z"/><path class="cls-1" d="M322.08,414.85c0,15.74-31.9,28.5-71.25,28.5s-71.24-12.76-71.24-28.5,31.89-28.5,71.24-28.5,71.25,12.76,71.25,28.5Z"/><path class="cls-3" d="M269.81,426.91a62,62,0,0,1-13.68,1.63v-12.4q8.94.92,13.45,1.85,6.62,1.36,6.62,4.38c0,1.91-2.13,3.43-6.39,4.54Zm-36.47-18.42q-4.59-1.14-4.59-3.44,0-2.52,5.71-4a52.56,52.56,0,0,1,11.08-1.42v10.66a98.68,98.68,0,0,1-12.2-1.77Zm49.73,7.59a51.82,51.82,0,0,0-12.65-3.25q-5.64-.79-14.29-1.61v-11.6q16.22.79,17.82,6.5h12.14q-.58-5.22-10.34-8.1a82.68,82.68,0,0,0-19.62-2.75v-3.74H245.54v3.7q-12,.38-19.78,2.77-9.15,2.83-9.15,7.28,0,3.93,7,6.3,6.75,2.28,21.9,3.59v13.16a65.7,65.7,0,0,1-11.43-1.71q-7.8-2-8.77-6h-12q.51,5.43,10.37,8.9,7.77,2.73,21.83,3.3v3.75h10.59v-3.62q13.71-.24,22.54-3.08,9.66-3.12,9.66-7.83,0-3.72-5.26-5.92Z"/><path class="cls-1" d="M235.83,345.85c-45.56,0-82.49,16.79-82.49,37.5v22.5c0,20.71,36.93,37.5,82.49,37.5s82.5-16.79,82.5-37.5v-22.5c0-20.71-36.93-37.5-82.5-37.5Z"/><path class="cls-2" d="M179.59,370.05v63.22c10.36,4.4,23.21,7.59,37.49,9.1V362.11a142.08,142.08,0,0,0-37.49,7.94Z"/><path class="cls-2" d="M254.58,362.11v80.26c14.29-1.51,27.14-4.7,37.5-9.1V370.05a142.08,142.08,0,0,0-37.5-7.94Z"/><path class="cls-3" d="M318.33,383.35c0,20.71-36.93,37.5-82.5,37.5s-82.49-16.79-82.49-37.5,36.93-37.5,82.49-37.5,82.5,16.79,82.5,37.5Z"/><path class="cls-1" d="M307.08,381.85c0,15.74-31.9,28.5-71.25,28.5s-71.24-12.76-71.24-28.5,31.89-28.5,71.24-28.5,71.25,12.76,71.25,28.5Z"/><path class="cls-3" d="M254.81,393.91a62,62,0,0,1-13.68,1.63V383.13c6,.62,10.45,1.23,13.45,1.86q6.61,1.36,6.62,4.38t-6.39,4.54Zm-36.47-18.42q-4.59-1.14-4.59-3.44,0-2.52,5.71-4a52.56,52.56,0,0,1,11.08-1.42v10.66a98.37,98.37,0,0,1-12.2-1.77Zm49.73,7.59a51.82,51.82,0,0,0-12.65-3.25q-5.64-.79-14.29-1.61v-11.6q16.22.79,17.82,6.5h12.14q-.58-5.22-10.34-8.1a82.68,82.68,0,0,0-19.62-2.75v-3.74H230.54v3.7q-12,.38-19.78,2.77-9.15,2.83-9.15,7.28,0,3.93,7,6.3,6.75,2.28,21.9,3.59v13.16a65.7,65.7,0,0,1-11.43-1.71q-7.8-2-8.77-6h-12q.51,5.43,10.36,8.9,7.78,2.73,21.84,3.3v3.75h10.59v-3.62q13.71-.24,22.54-3.08,9.66-3.12,9.66-7.83,0-3.72-5.26-5.92Z"/><path class="cls-1" d="M250.83,312.85c-45.56,0-82.49,16.79-82.49,37.5v22.5c0,20.71,36.93,37.5,82.49,37.5s82.5-16.79,82.5-37.5v-22.5c0-20.71-36.93-37.5-82.5-37.5Z"/><path class="cls-2" d="M194.59,337.05v63.22c10.36,4.4,23.21,7.59,37.49,9.1V329.11a142.08,142.08,0,0,0-37.49,7.94Z"/><path class="cls-2" d="M269.58,329.11v80.26c14.29-1.51,27.14-4.7,37.5-9.1V337.05a142.08,142.08,0,0,0-37.5-7.94Z"/><path class="cls-3" d="M333.33,350.35c0,20.71-36.93,37.5-82.5,37.5s-82.49-16.79-82.49-37.5,36.93-37.5,82.49-37.5,82.5,16.79,82.5,37.5Z"/><path class="cls-1" d="M322.08,348.85c0,15.74-31.9,28.5-71.25,28.5s-71.24-12.76-71.24-28.5,31.89-28.5,71.24-28.5,71.25,12.76,71.25,28.5Z"/><path class="cls-3" d="M269.81,360.91a62,62,0,0,1-13.68,1.63V350.13c6,.62,10.45,1.23,13.45,1.86q6.62,1.36,6.62,4.38t-6.39,4.54Zm-36.47-18.42q-4.59-1.14-4.59-3.44,0-2.52,5.71-4a52.56,52.56,0,0,1,11.08-1.42v10.65a97.23,97.23,0,0,1-12.2-1.76Zm49.73,7.59a51.82,51.82,0,0,0-12.65-3.25q-5.64-.79-14.29-1.61v-11.6q16.22.79,17.82,6.5h12.14q-.58-5.22-10.34-8.1a82.68,82.68,0,0,0-19.62-2.75v-3.74H245.54v3.7q-12,.38-19.78,2.77-9.15,2.83-9.15,7.28,0,3.93,7,6.3,6.75,2.28,21.9,3.59v13.16a65.7,65.7,0,0,1-11.43-1.71q-7.8-2-8.77-6h-12q.51,5.43,10.37,8.9,7.77,2.73,21.83,3.3v3.75h10.59v-3.62q13.71-.24,22.54-3.08,9.66-3.12,9.66-7.83,0-3.72-5.26-5.92Z"/><path class="cls-1" d="M461.5,588c-45.56,0-82.5,16.79-82.5,37.5V648c0,20.71,36.94,37.5,82.5,37.5S544,668.71,544,648V625.5c0-20.71-36.94-37.5-82.5-37.5Z"/><path class="cls-2" d="M405.25,612.2v63.22c10.36,4.4,23.22,7.59,37.5,9.09V604.26a141.46,141.46,0,0,0-37.5,7.94Z"/><path class="cls-2" d="M480.25,604.26v80.25c14.28-1.5,27.14-4.69,37.5-9.09V612.2a141.46,141.46,0,0,0-37.5-7.94Z"/><path class="cls-3" d="M544,625.5c0,20.71-36.94,37.5-82.5,37.5S379,646.21,379,625.5,415.94,588,461.5,588,544,604.79,544,625.5Z"/><path class="cls-1" d="M532.75,624c0,15.74-31.9,28.5-71.25,28.5s-71.25-12.76-71.25-28.5,31.9-28.5,71.25-28.5,71.25,12.76,71.25,28.5Z"/><path class="cls-3" d="M480.48,636.06a61.61,61.61,0,0,1-13.69,1.62v-12.4c6,.62,10.45,1.23,13.46,1.86q6.62,1.36,6.61,4.38c0,1.91-2.13,3.43-6.38,4.54ZM444,617.64q-4.59-1.14-4.59-3.44c0-1.68,1.91-3,5.72-4a53.82,53.82,0,0,1,11.08-1.42V619.4A97.47,97.47,0,0,1,444,617.64Zm49.73,7.59A51.26,51.26,0,0,0,481.08,622c-3.75-.54-8.52-1.07-14.29-1.62V608.77q16.21.79,17.83,6.5h12.13q-.57-5.24-10.34-8.1a82.09,82.09,0,0,0-19.62-2.75v-3.74H456.21v3.7q-12,.36-19.79,2.77c-6.09,1.89-9.15,4.32-9.15,7.28q0,3.93,7,6.3,6.74,2.28,21.9,3.59v13.16a66.79,66.79,0,0,1-11.44-1.71q-7.8-1.95-8.76-6H424q.51,5.43,10.37,8.9,7.78,2.73,21.84,3.3v3.75h10.58v-3.62q13.72-.24,22.55-3.09,9.66-3.11,9.66-7.82,0-3.72-5.27-5.92Z"/><path class="cls-1" d="M145.5,515C99.94,515,63,531.79,63,552.5V575c0,20.71,36.94,37.5,82.5,37.5S228,595.71,228,575V552.5c0-20.71-36.94-37.5-82.5-37.5Z"/><path class="cls-2" d="M89.25,539.2v63.22c10.36,4.39,23.22,7.59,37.5,9.1V531.26a141.46,141.46,0,0,0-37.5,7.94Z"/><path class="cls-2" d="M164.25,531.26v80.26c14.28-1.51,27.14-4.71,37.5-9.1V539.2a141.46,141.46,0,0,0-37.5-7.94Z"/><path class="cls-3" d="M228,552.5c0,20.71-36.94,37.5-82.5,37.5S63,573.21,63,552.5,99.94,515,145.5,515,228,531.79,228,552.5Z"/><path class="cls-1" d="M216.75,551c0,15.74-31.9,28.5-71.25,28.5S74.25,566.74,74.25,551s31.9-28.5,71.25-28.5,71.25,12.76,71.25,28.5Z"/><path class="cls-3" d="M164.47,563.06a62,62,0,0,1-13.68,1.63V552.28c6,.62,10.45,1.23,13.46,1.86q6.62,1.36,6.61,4.38,0,2.87-6.39,4.54ZM128,544.64q-4.59-1.14-4.59-3.44c0-1.68,1.9-3,5.72-4a53.82,53.82,0,0,1,11.08-1.42V546.4A97.47,97.47,0,0,1,128,544.64Zm49.73,7.59A51.26,51.26,0,0,0,165.08,549c-3.75-.54-8.52-1.07-14.29-1.62V535.77q16.22.79,17.83,6.5h12.13q-.57-5.24-10.34-8.1a82.09,82.09,0,0,0-19.62-2.75v-3.74H140.21v3.7q-12,.36-19.78,2.77-9.17,2.83-9.16,7.28,0,3.93,7,6.3,6.73,2.28,21.9,3.59v13.16a66.79,66.79,0,0,1-11.44-1.71q-7.8-1.95-8.76-6H108q.51,5.43,10.37,8.89,7.78,2.75,21.84,3.31v3.75h10.58v-3.62q13.72-.24,22.55-3.09,9.66-3.11,9.66-7.82,0-3.72-5.27-5.92Z"/><path class="cls-1" d="M268.83,549.5c-45.56,0-82.49,16.79-82.49,37.5v22.5c0,20.71,36.93,37.5,82.49,37.5s82.5-16.79,82.5-37.5V587c0-20.71-36.93-37.5-82.5-37.5Z"/><path class="cls-2" d="M212.59,573.7v63.22c10.36,4.39,23.21,7.59,37.49,9.1V565.76a141.69,141.69,0,0,0-37.49,7.94Z"/><path class="cls-2" d="M287.58,565.76V646c14.29-1.51,27.14-4.71,37.5-9.1V573.7a141.68,141.68,0,0,0-37.5-7.94Z"/><path class="cls-3" d="M351.33,587c0,20.71-36.93,37.5-82.5,37.5s-82.49-16.79-82.49-37.5,36.93-37.5,82.49-37.5,82.5,16.79,82.5,37.5Z"/><path class="cls-1" d="M340.08,585.5c0,15.74-31.9,28.5-71.25,28.5s-71.24-12.76-71.24-28.5S229.48,557,268.83,557s71.25,12.76,71.25,28.5Z"/><path class="cls-3" d="M287.81,597.56a61.51,61.51,0,0,1-13.68,1.62v-12.4c6,.62,10.45,1.23,13.45,1.86Q294.2,590,294.2,593q0,2.87-6.39,4.54Zm-36.47-18.42q-4.59-1.14-4.59-3.44c0-1.68,1.9-3,5.71-4a53.92,53.92,0,0,1,11.08-1.42V580.9a97.23,97.23,0,0,1-12.2-1.76Zm49.73,7.59a51.37,51.37,0,0,0-12.65-3.25c-3.76-.54-8.53-1.07-14.29-1.62V570.27q16.22.79,17.82,6.5h12.14q-.58-5.24-10.34-8.1a82.17,82.17,0,0,0-19.62-2.75v-3.74H263.54v3.7q-12,.36-19.78,2.77-9.15,2.83-9.15,7.28,0,3.93,7,6.3,6.75,2.28,21.9,3.59V599a66.67,66.67,0,0,1-11.43-1.71q-7.8-1.95-8.77-6h-12q.53,5.43,10.37,8.89,7.78,2.75,21.84,3.31v3.75h10.59v-3.62q13.71-.24,22.54-3.09,9.66-3.11,9.66-7.82,0-3.72-5.26-5.92Z"/><path class="cls-1" d="M268.83,509c-45.56,0-82.49,16.79-82.49,37.5V569c0,20.71,36.93,37.5,82.49,37.5s82.5-16.79,82.5-37.5V546.5c0-20.71-36.93-37.5-82.5-37.5Z"/><path class="cls-2" d="M212.59,533.2v63.22c10.36,4.39,23.21,7.59,37.49,9.1V525.26a141.29,141.29,0,0,0-37.49,7.94Z"/><path class="cls-2" d="M287.58,525.26v80.26c14.29-1.51,27.14-4.71,37.5-9.1V533.2a141.28,141.28,0,0,0-37.5-7.94Z"/><path class="cls-3" d="M351.33,546.5c0,20.71-36.93,37.5-82.5,37.5s-82.49-16.79-82.49-37.5S223.27,509,268.83,509s82.5,16.79,82.5,37.5Z"/><path class="cls-1" d="M340.08,545c0,15.74-31.9,28.5-71.25,28.5s-71.24-12.76-71.24-28.5,31.89-28.5,71.24-28.5,71.25,12.76,71.25,28.5Z"/><path class="cls-3" d="M287.81,557.06a62,62,0,0,1-13.68,1.63V546.28c6,.62,10.45,1.23,13.45,1.86q6.62,1.36,6.62,4.38,0,2.87-6.39,4.54Zm-36.47-18.42q-4.59-1.14-4.59-3.44c0-1.68,1.9-3,5.71-4a53.92,53.92,0,0,1,11.08-1.42V540.4a97.23,97.23,0,0,1-12.2-1.76Zm49.73,7.59A51.37,51.37,0,0,0,288.42,543c-3.76-.54-8.53-1.07-14.29-1.62V529.77q16.22.79,17.82,6.5h12.14q-.58-5.24-10.34-8.1a82.17,82.17,0,0,0-19.62-2.75v-3.74H263.54v3.7q-12,.36-19.78,2.77-9.15,2.83-9.15,7.28,0,3.93,7,6.3,6.75,2.28,21.9,3.59v13.16a66.67,66.67,0,0,1-11.43-1.71q-7.8-1.95-8.77-6h-12q.53,5.43,10.37,8.89,7.78,2.75,21.84,3.31v3.75h10.59v-3.62q13.71-.24,22.54-3.09,9.66-3.11,9.66-7.82,0-3.72-5.26-5.92Z"/></svg>