<svg viewBox="0 0 878 723" xmlns="http://www.w3.org/2000/svg"><path d="m406.79 477.54c-45.56 0-82.5 16.79-82.5 37.5v22.5c0 20.71 36.94 37.5 82.5 37.5s82.5-16.79 82.5-37.5v-22.54c0-20.71-36.93-37.5-82.5-37.5z" fill="#ffcc1d"/><path d="m350.54 501.75v63.25c10.37 4.39 23.22 7.58 37.5 9.09v-80.29a141.84 141.84 0 0 0 -37.5 7.95z" fill="#ffd74f"/><path d="m425.54 493.8v80.26c14.29-1.51 27.14-4.7 37.5-9.09v-63.22a141.84 141.84 0 0 0 -37.5-7.95z" fill="#ffd74f"/><path d="m489.29 515c0 20.71-36.93 37.5-82.5 37.5s-82.5-16.79-82.5-37.5 36.94-37.5 82.5-37.5 82.5 16.79 82.5 37.5z" fill="#fee79a"/><path d="m478 513.54c0 15.74-31.9 28.5-71.25 28.5s-71.25-12.76-71.25-28.5 31.9-28.5 71.25-28.5 71.25 12.76 71.25 28.5z" fill="#ffcc1d"/><path d="m425.77 525.6a62.14 62.14 0 0 1 -13.69 1.63v-12.4q9 .92 13.46 1.85c4.41.91 6.62 2.38 6.62 4.39s-2.13 3.42-6.39 4.53zm-36.47-18.42q-4.6-1.14-4.6-3.44c0-1.67 1.91-3 5.72-4a53.23 53.23 0 0 1 11.08-1.42v10.68a94.61 94.61 0 0 1 -12.2-1.77zm49.7 7.59a51.82 51.82 0 0 0 -12.65-3.25q-5.64-.79-14.3-1.61v-11.6q16.21.79 17.83 6.51h12.14q-.58-5.24-10.34-8.1a82.13 82.13 0 0 0 -19.6-2.72v-3.74h-10.58v3.7q-12 .38-19.78 2.77-9.15 2.85-9.15 7.28 0 3.93 7 6.31 6.75 2.27 21.9 3.59v13.09a64.76 64.76 0 0 1 -11.43-1.71q-7.81-1.95-8.77-6h-12q.52 5.43 10.37 8.9 7.79 2.73 21.84 3.31v3.74h10.58v-3.61q13.73-.25 22.55-3.09 9.66-3.12 9.66-7.83c0-2.47-1.75-4.45-5.26-5.92z" fill="#fee79a"/><path d="m406.79 444.54c-45.56 0-82.5 16.79-82.5 37.5v22.5c0 20.71 36.94 37.5 82.5 37.5s82.5-16.79 82.5-37.5v-22.54c0-20.71-36.93-37.5-82.5-37.5z" fill="#ffcc1d"/><path d="m350.54 468.75v63.25c10.37 4.39 23.22 7.58 37.5 9.09v-80.29a141.84 141.84 0 0 0 -37.5 7.95z" fill="#ffd74f"/><path d="m425.54 460.8v80.26c14.29-1.51 27.14-4.7 37.5-9.09v-63.22a141.84 141.84 0 0 0 -37.5-7.95z" fill="#ffd74f"/><path d="m489.29 482c0 20.71-36.93 37.5-82.5 37.5s-82.5-16.79-82.5-37.5 36.94-37.5 82.5-37.5 82.5 16.79 82.5 37.5z" fill="#fee79a"/><path d="m478 480.54c0 15.74-31.9 28.5-71.25 28.5s-71.25-12.76-71.25-28.5 31.9-28.5 71.25-28.5 71.25 12.76 71.25 28.5z" fill="#ffcc1d"/><path d="m425.77 492.6a62.14 62.14 0 0 1 -13.69 1.63v-12.4q9 .92 13.46 1.85c4.41.91 6.62 2.38 6.62 4.39s-2.13 3.42-6.39 4.53zm-36.47-18.42q-4.6-1.14-4.6-3.44c0-1.67 1.91-3 5.72-4a53.23 53.23 0 0 1 11.08-1.42v10.68a94.61 94.61 0 0 1 -12.2-1.77zm49.7 7.59a51.82 51.82 0 0 0 -12.65-3.25q-5.64-.79-14.3-1.61v-11.6q16.21.79 17.83 6.51h12.14q-.58-5.24-10.34-8.1a82.13 82.13 0 0 0 -19.6-2.72v-3.74h-10.58v3.7q-12 .38-19.78 2.77-9.15 2.85-9.15 7.28 0 3.93 7 6.31 6.75 2.27 21.9 3.59v13.09a64.76 64.76 0 0 1 -11.43-1.71q-7.81-1.95-8.77-6h-12q.52 5.43 10.37 8.9 7.79 2.73 21.84 3.31v3.74h10.58v-3.61q13.73-.25 22.55-3.09 9.66-3.12 9.66-7.83c0-2.47-1.75-4.45-5.26-5.92z" fill="#fee79a"/><path d="m406.79 411.54c-45.56 0-82.5 16.79-82.5 37.5v22.5c0 20.71 36.94 37.5 82.5 37.5s82.5-16.79 82.5-37.5v-22.54c0-20.71-36.93-37.5-82.5-37.5z" fill="#ffcc1d"/><path d="m350.54 435.75v63.25c10.37 4.39 23.22 7.58 37.5 9.09v-80.29a141.84 141.84 0 0 0 -37.5 7.95z" fill="#ffd74f"/><path d="m425.54 427.8v80.26c14.29-1.51 27.14-4.7 37.5-9.09v-63.22a141.84 141.84 0 0 0 -37.5-7.95z" fill="#ffd74f"/><path d="m489.29 449c0 20.72-36.93 37.5-82.5 37.5s-82.5-16.78-82.5-37.5 36.94-37.5 82.5-37.5 82.5 16.79 82.5 37.5z" fill="#fee79a"/><path d="m478 447.54c0 15.74-31.9 28.5-71.25 28.5s-71.25-12.76-71.25-28.5 31.9-28.5 71.25-28.5 71.25 12.76 71.25 28.5z" fill="#ffcc1d"/><path d="m425.77 459.6a62.14 62.14 0 0 1 -13.69 1.63v-12.4q9 .92 13.46 1.85c4.41.91 6.62 2.38 6.62 4.39s-2.13 3.42-6.39 4.53zm-36.47-18.42q-4.6-1.14-4.6-3.44c0-1.67 1.91-3 5.72-4a52.56 52.56 0 0 1 11.08-1.42v10.68a94.61 94.61 0 0 1 -12.2-1.77zm49.7 7.59a51.82 51.82 0 0 0 -12.65-3.25q-5.64-.79-14.3-1.61v-11.6q16.21.79 17.83 6.51h12.14q-.58-5.24-10.34-8.1a82.13 82.13 0 0 0 -19.6-2.72v-3.74h-10.58v3.7q-12 .38-19.78 2.77-9.15 2.85-9.15 7.28c0 2.62 2.34 4.73 7 6.3q6.75 2.28 21.9 3.6v13.09a64.76 64.76 0 0 1 -11.43-1.71q-7.81-1.95-8.77-6h-12q.52 5.43 10.37 8.9 7.79 2.73 21.84 3.31v3.74h10.58v-3.61q13.73-.25 22.55-3.09 9.66-3.12 9.66-7.83c0-2.47-1.75-4.45-5.26-5.92z" fill="#fee79a"/><path d="m391.79 378.54c-45.56 0-82.5 16.79-82.5 37.5v22.5c0 20.71 36.94 37.5 82.5 37.5s82.5-16.79 82.5-37.5v-22.54c0-20.71-36.93-37.5-82.5-37.5z" fill="#ffcc1d"/><path d="m335.54 402.75v63.25c10.37 4.39 23.22 7.58 37.5 9.09v-80.29a141.84 141.84 0 0 0 -37.5 7.95z" fill="#ffd74f"/><path d="m410.54 394.8v80.26c14.29-1.51 27.14-4.7 37.5-9.09v-63.22a141.84 141.84 0 0 0 -37.5-7.95z" fill="#ffd74f"/><path d="m474.29 416c0 20.71-36.93 37.5-82.5 37.5s-82.5-16.79-82.5-37.5 36.94-37.5 82.5-37.5 82.5 16.79 82.5 37.5z" fill="#fee79a"/><path d="m463 414.54c0 15.74-31.9 28.5-71.25 28.5s-71.25-12.76-71.25-28.5 31.9-28.5 71.25-28.5 71.25 12.76 71.25 28.5z" fill="#ffcc1d"/><path d="m410.77 426.6a62.14 62.14 0 0 1 -13.69 1.63v-12.4q9 .92 13.46 1.85c4.41.91 6.62 2.38 6.62 4.39s-2.13 3.42-6.39 4.53zm-36.47-18.42q-4.6-1.14-4.6-3.44c0-1.67 1.91-3 5.72-4a52.56 52.56 0 0 1 11.08-1.42v10.68a96.45 96.45 0 0 1 -12.2-1.77zm49.7 7.59a51.82 51.82 0 0 0 -12.65-3.25q-5.64-.79-14.3-1.61v-11.6q16.21.79 17.83 6.51h12.14q-.58-5.24-10.34-8.1a82.13 82.13 0 0 0 -19.6-2.72v-3.74h-10.58v3.7q-12 .38-19.78 2.77-9.15 2.85-9.15 7.28c0 2.62 2.34 4.73 7 6.3q6.75 2.28 21.9 3.6v13.09a64.76 64.76 0 0 1 -11.43-1.71q-7.81-1.95-8.77-6h-12q.52 5.43 10.37 8.9 7.79 2.73 21.84 3.31v3.74h10.58v-3.61q13.73-.25 22.55-3.09 9.66-3.12 9.66-7.83c0-2.47-1.75-4.45-5.26-5.92z" fill="#fee79a"/><path d="m406.79 345.54c-45.56 0-82.5 16.79-82.5 37.5v22.5c0 20.71 36.94 37.5 82.5 37.5s82.5-16.79 82.5-37.5v-22.54c0-20.71-36.93-37.5-82.5-37.5z" fill="#ffcc1d"/><path d="m350.54 369.75v63.25c10.37 4.4 23.22 7.59 37.5 9.1v-80.3a141.84 141.84 0 0 0 -37.5 7.95z" fill="#ffd74f"/><path d="m425.54 361.8v80.26c14.29-1.51 27.14-4.7 37.5-9.1v-63.21a141.84 141.84 0 0 0 -37.5-7.95z" fill="#ffd74f"/><path d="m489.29 383c0 20.71-36.93 37.5-82.5 37.5s-82.5-16.79-82.5-37.5 36.94-37.5 82.5-37.5 82.5 16.79 82.5 37.5z" fill="#fee79a"/><path d="m478 381.54c0 15.74-31.9 28.5-71.25 28.5s-71.25-12.76-71.25-28.5 31.9-28.5 71.25-28.5 71.25 12.76 71.25 28.5z" fill="#ffcc1d"/><path d="m425.77 393.6a62.14 62.14 0 0 1 -13.69 1.63v-12.4q9 .92 13.46 1.85c4.41.91 6.62 2.38 6.62 4.39s-2.13 3.42-6.39 4.53zm-36.47-18.42q-4.6-1.14-4.6-3.44c0-1.67 1.91-3 5.72-4a52.56 52.56 0 0 1 11.08-1.42v10.68a96.45 96.45 0 0 1 -12.2-1.77zm49.7 7.59a51.82 51.82 0 0 0 -12.65-3.25q-5.64-.79-14.3-1.61v-11.6q16.21.79 17.83 6.51h12.14q-.58-5.24-10.34-8.1a82.13 82.13 0 0 0 -19.6-2.72v-3.74h-10.58v3.7q-12 .38-19.78 2.77-9.15 2.85-9.15 7.28c0 2.62 2.34 4.73 7 6.3q6.75 2.28 21.9 3.6v13.09a64.76 64.76 0 0 1 -11.43-1.71q-7.81-1.95-8.77-6h-12q.52 5.43 10.37 8.9 7.79 2.73 21.84 3.31v3.74h10.58v-3.61q13.73-.25 22.55-3.09 9.66-3.12 9.66-7.83c0-2.47-1.75-4.45-5.26-5.92z" fill="#fee79a"/><path d="m376 312.54c-45.56 0-82.5 16.79-82.5 37.5v22.5c0 20.71 36.94 37.5 82.5 37.5s82.5-16.79 82.5-37.5v-22.54c0-20.71-36.93-37.5-82.5-37.5z" fill="#ffcc1d"/><path d="m319.79 336.75v63.25c10.37 4.4 23.22 7.59 37.5 9.1v-80.3a141.84 141.84 0 0 0 -37.5 7.95z" fill="#ffd74f"/><path d="m394.79 328.8v80.26c14.29-1.51 27.14-4.7 37.5-9.1v-63.21a141.84 141.84 0 0 0 -37.5-7.95z" fill="#ffd74f"/><path d="m458.54 350c0 20.71-36.93 37.5-82.5 37.5s-82.5-16.79-82.5-37.5 36.94-37.5 82.5-37.5 82.5 16.79 82.5 37.5z" fill="#fee79a"/><path d="m447.29 348.54c0 15.74-31.9 28.5-71.25 28.5s-71.25-12.76-71.25-28.5 31.9-28.54 71.21-28.54 71.25 12.76 71.25 28.5z" fill="#ffcc1d"/><path d="m395 360.6a62.14 62.14 0 0 1 -13.69 1.63v-12.4q9 .92 13.46 1.85c4.41.91 6.62 2.38 6.62 4.39s-2.13 3.42-6.39 4.53zm-36.47-18.42q-4.6-1.14-4.6-3.44c0-1.67 1.91-3 5.72-4a52.56 52.56 0 0 1 11.08-1.42v10.68a96.45 96.45 0 0 1 -12.2-1.77zm49.73 7.59a51.82 51.82 0 0 0 -12.65-3.25q-5.64-.79-14.3-1.61v-11.6q16.21.79 17.83 6.51h12.16q-.58-5.24-10.34-8.1a82.13 82.13 0 0 0 -19.63-2.72v-3.74h-10.58v3.7q-12 .38-19.78 2.77-9.15 2.85-9.15 7.28c0 2.62 2.34 4.73 7 6.3q6.75 2.28 21.9 3.6v13.09a64.76 64.76 0 0 1 -11.43-1.71q-7.81-1.95-8.77-6h-12q.52 5.43 10.37 8.9 7.79 2.73 21.84 3.31v3.74h10.58v-3.61q13.73-.25 22.55-3.09 9.66-3.12 9.66-7.83c0-2.47-1.75-4.45-5.26-5.92z" fill="#fee79a"/><path d="m361 279.54c-45.56 0-82.5 16.79-82.5 37.5v22.5c0 20.71 36.94 37.5 82.5 37.5s82.5-16.79 82.5-37.5v-22.54c0-20.71-36.93-37.5-82.5-37.5z" fill="#ffcc1d"/><path d="m304.79 303.75v63.25c10.37 4.4 23.22 7.59 37.5 9.1v-80.3a141.84 141.84 0 0 0 -37.5 7.95z" fill="#ffd74f"/><path d="m379.79 295.8v80.26c14.29-1.51 27.14-4.7 37.5-9.1v-63.21a141.84 141.84 0 0 0 -37.5-7.95z" fill="#ffd74f"/><path d="m443.54 317c0 20.71-36.93 37.5-82.5 37.5s-82.5-16.79-82.5-37.5 36.94-37.5 82.5-37.5 82.5 16.79 82.5 37.5z" fill="#fee79a"/><path d="m432.29 315.54c0 15.74-31.9 28.5-71.25 28.5s-71.25-12.76-71.25-28.5 31.9-28.54 71.21-28.54 71.25 12.76 71.25 28.5z" fill="#ffcc1d"/><path d="m380 327.6a62.14 62.14 0 0 1 -13.69 1.63v-12.4q9 .92 13.46 1.85c4.41.91 6.62 2.38 6.62 4.39s-2.13 3.42-6.39 4.53zm-36.47-18.42q-4.6-1.14-4.6-3.44c0-1.67 1.91-3 5.72-4a52.56 52.56 0 0 1 11.08-1.42v10.68a94.61 94.61 0 0 1 -12.2-1.77zm49.73 7.59a51.82 51.82 0 0 0 -12.65-3.25q-5.64-.79-14.3-1.61v-11.6q16.21.79 17.83 6.51h12.16q-.58-5.24-10.34-8.1a82.13 82.13 0 0 0 -19.63-2.72v-3.74h-10.58v3.7q-12 .38-19.78 2.77-9.15 2.85-9.15 7.28c0 2.62 2.34 4.73 7 6.3q6.75 2.28 21.9 3.6v13.09a64.76 64.76 0 0 1 -11.43-1.71q-7.81-1.95-8.77-6h-12q.52 5.43 10.37 8.9 7.79 2.73 21.84 3.31v3.74h10.58v-3.61q13.73-.25 22.55-3.09 9.66-3.12 9.66-7.83c0-2.47-1.75-4.45-5.26-5.92z" fill="#fee79a"/><path d="m376 246.54c-45.56 0-82.5 16.79-82.5 37.5v22.5c0 20.71 36.94 37.5 82.5 37.5s82.5-16.79 82.5-37.5v-22.54c0-20.71-36.93-37.5-82.5-37.5z" fill="#ffcc1d"/><path d="m319.79 270.75v63.25c10.37 4.4 23.22 7.59 37.5 9.1v-80.3a141.84 141.84 0 0 0 -37.5 7.95z" fill="#ffd74f"/><path d="m394.79 262.8v80.26c14.29-1.51 27.14-4.7 37.5-9.1v-63.21a141.84 141.84 0 0 0 -37.5-7.95z" fill="#ffd74f"/><path d="m458.54 284c0 20.71-36.93 37.5-82.5 37.5s-82.5-16.79-82.5-37.5 36.94-37.5 82.5-37.5 82.5 16.79 82.5 37.5z" fill="#fee79a"/><path d="m447.29 282.54c0 15.74-31.9 28.5-71.25 28.5s-71.25-12.76-71.25-28.5 31.9-28.54 71.21-28.54 71.25 12.76 71.25 28.5z" fill="#ffcc1d"/><path d="m395 294.6a62.14 62.14 0 0 1 -13.69 1.63v-12.4q9 .92 13.46 1.85c4.41.91 6.62 2.38 6.62 4.39s-2.13 3.42-6.39 4.53zm-36.47-18.42q-4.6-1.14-4.6-3.44c0-1.67 1.91-3 5.72-4a52.56 52.56 0 0 1 11.08-1.42v10.68a94.61 94.61 0 0 1 -12.2-1.77zm49.73 7.59a51.82 51.82 0 0 0 -12.65-3.25q-5.64-.79-14.3-1.61v-11.6q16.21.79 17.83 6.51h12.16q-.58-5.24-10.34-8.1a82.13 82.13 0 0 0 -19.63-2.72v-3.74h-10.58v3.7q-12 .38-19.78 2.77-9.15 2.85-9.15 7.28c0 2.62 2.34 4.73 7 6.3q6.75 2.28 21.9 3.6v13.09a64.76 64.76 0 0 1 -11.43-1.71q-7.81-1.95-8.77-6h-12q.52 5.43 10.37 8.9 7.79 2.73 21.84 3.31v3.74h10.58v-3.61q13.73-.25 22.55-3.09 9.66-3.12 9.66-7.83c0-2.47-1.75-4.45-5.26-5.92z" fill="#fee79a"/><path d="m452.89 182.4c-39.47-22.78-79.85-26.71-90.2-8.77l-11.25 19.48c-10.36 17.94 13.23 50.95 52.7 73.73s79.84 26.71 90.19 8.77l11.25-19.48c10.36-17.94-13.24-50.95-52.69-73.73z" fill="#ffcc1d"/><path d="m392.07 175.24-31.61 54.76c6.78 9 16.32 18.18 27.93 26.63l40.13-69.5a141.53 141.53 0 0 0 -36.45-11.87z" fill="#ffd74f"/><path d="m461 205.86-40.13 69.5c13.13 5.83 25.85 9.5 37 10.87l31.61-54.74a141.46 141.46 0 0 0 -28.48-25.63z" fill="#ffd74f"/><path d="m505.58 256.13c-10.35 17.93-50.74 14-90.19-8.78s-63.06-55.79-52.7-73.72 50.73-14 90.2 8.77 63.05 55.79 52.69 73.73z" fill="#fee79a"/><path d="m496.59 249.2c-7.87 13.63-41.88 8.73-75.95-10.94s-55.33-46.68-47.46-60.26 41.88-8.73 76 11 55.32 46.67 47.45 60.3z" fill="#ffcc1d"/><path d="m445.29 233.51a62.71 62.71 0 0 1 -12.67-5.43l6.2-10.74q7.29 5.26 10.73 8.33c3.37 3 4.54 5.36 3.54 7.1s-3.56 1.9-7.8.74zm-22.38-34.19q-3.41-3.28-2.26-5.27c.84-1.46 3.17-1.67 7-.64a53 53 0 0 1 10.31 4.31l-5.36 9.28a95.81 95.81 0 0 1 -9.69-7.63zm39.28 31.44a51.75 51.75 0 0 0 -9.33-9.14q-4.49-3.51-11.58-8.54l5.8-10q13.65 8.79 12.19 14.54l10.51 6.07q2.12-4.83-4.91-12.19a82.35 82.35 0 0 0 -15.61-12.19l1.87-3.24-9.13-5.33-1.85 3.2q-10.61-5.7-18.51-7.49-9.36-2.12-11.57 1.72-2 3.42 2.94 9 4.71 5.34 17.17 14.06l-6.58 11.4a66.54 66.54 0 0 1 -9.05-7.2q-5.77-5.59-4.57-9.62l-10.4-6q-2.27 5 4.54 12.89 5.37 6.25 17.26 13.78l-1.88 3.25 9.17 5.29 1.81-3.13q12 6.65 21.06 8.59 9.93 2.14 12.29-1.94 1.84-3.21-1.6-7.76z" fill="#fee79a"/><path d="m629 599h-40v-160h40z" fill="#57b8fe"/><path d="m629 623h-60v-8a16 16 0 0 1 16-16h44z" fill="#373737"/><path d="m829 547.23-24.79 53.17-7.21-3.4a16 16 0 0 1 -7.74-21.26l18-38.67z" fill="#373737"/><path d="m735.52 543.79a21.33 21.33 0 0 0 12.75-27.34l-26.45-72.68-40.1 14.6 26.45 72.63a21.34 21.34 0 0 0 27.35 12.75z" fill="#57b8fe"/><path d="m789.34 575.74 18-38.67-70.09-32.68a21.33 21.33 0 1 0 -18 38.67z" fill="#57b8fe"/><path d="m689 277.08.59-.05a105.41 105.41 0 0 1 113.71 96.4c.59 7.17-4 14-11.07 15.45a14 14 0 0 1 -16.79-12.56l-.05-.59a77.41 77.41 0 0 0 -83.5-70.8h-.06c-7.13.59-13.94-4-15.38-11a14 14 0 0 1 12.55-16.85z" fill="#fff"/><path d="m578 416h160v-92a48 48 0 0 0 -48-48h-112z" fill="#fff"/><path d="m638 476h40a60 60 0 0 0 60-60h-160a60 60 0 0 0 60 60z" fill="#57b8fe"/><path d="m639.33 304h20l8-28h-36z" fill="#4de4c4"/><path d="m639.33 304h20l8 92-18 12-18-12z" fill="#43ed93"/><path d="m787.85 357.16a18 18 0 1 1 -16.46 19.41 18 18 0 0 1 16.46-19.41z" fill="#f7d7c7"/><path d="m502.6 193.33 108.78 91.28a14 14 0 0 1 1.72 19.72 14 14 0 0 1 -19.72 1.73l-108.78-91.28a14 14 0 0 1 18-21.45z" fill="#fff"/><path d="m475.07 205.77a18 18 0 1 0 16.36-19.5 18 18 0 0 0 -16.36 19.5z" fill="#f7d7c7"/><path d="m771.86 198.26a104 104 0 1 1 -73.54-127.38 104 104 0 0 1 73.54 127.38z" fill="#373737"/><path d="m716.43 224.81a22 22 0 1 0 26.94-15.55 22 22 0 0 0 -26.94 15.55z" fill="#f7d7c7"/><path d="m739.89 214.54a92 92 0 1 1 -65.06-112.68 92 92 0 0 1 65.06 112.68z" fill="#f7d7c7"/><path d="m661.66 202.55a10 10 0 1 0 12.25-7.07 10 10 0 0 0 -12.25 7.07z" fill="#373737"/><path d="m576.66 179.77a10 10 0 1 0 12.25-7.07 10 10 0 0 0 -12.25 7.07z" fill="#373737"/><path d="m604 224.38a16 16 0 0 0 31 8.28z" fill="#f0503d"/><path d="m769 193.36-123.61-33.13a72 72 0 0 1 -50.91-88.18l7.25-27 96.59 25.88a100 100 0 0 1 70.68 122.43z" fill="#373737"/><path d="m250.83 444.85c-45.56 0-82.49 16.79-82.49 37.5v22.5c0 20.71 36.93 37.5 82.49 37.5s82.5-16.79 82.5-37.5v-22.5c0-20.71-36.93-37.5-82.5-37.5z" fill="#ffcc1d"/><path d="m194.59 469.05v63.22c10.36 4.4 23.21 7.59 37.49 9.1v-80.26a141.69 141.69 0 0 0 -37.49 7.94z" fill="#ffd74f"/><path d="m269.58 461.11v80.26c14.29-1.51 27.14-4.7 37.5-9.1v-63.22a141.68 141.68 0 0 0 -37.5-7.94z" fill="#ffd74f"/><path d="m333.33 482.35c0 20.71-36.93 37.5-82.5 37.5s-82.49-16.79-82.49-37.5 36.93-37.5 82.49-37.5 82.5 16.79 82.5 37.5z" fill="#fee79a"/><path d="m322.08 480.85c0 15.74-31.9 28.5-71.25 28.5s-71.24-12.76-71.24-28.5 31.89-28.5 71.24-28.5 71.25 12.76 71.25 28.5z" fill="#ffcc1d"/><path d="m269.81 492.91a62 62 0 0 1 -13.68 1.63v-12.41c6 .62 10.45 1.23 13.45 1.86q6.62 1.36 6.62 4.38c0 1.91-2.13 3.43-6.39 4.54zm-36.47-18.42q-4.59-1.14-4.59-3.44c0-1.67 1.9-3 5.71-4a52.56 52.56 0 0 1 11.08-1.42v10.65a97.23 97.23 0 0 1 -12.2-1.76zm49.73 7.59a51.82 51.82 0 0 0 -12.65-3.25q-5.64-.79-14.29-1.61v-11.6q16.22.79 17.82 6.51h12.14q-.58-5.24-10.34-8.11a82.68 82.68 0 0 0 -19.62-2.75v-3.74h-10.59v3.7q-12 .38-19.78 2.77-9.15 2.83-9.15 7.28 0 3.93 7 6.3 6.75 2.28 21.9 3.59v13.16a65.7 65.7 0 0 1 -11.43-1.71q-7.8-2-8.77-6h-12q.51 5.43 10.37 8.9 7.77 2.73 21.83 3.3v3.75h10.59v-3.62q13.71-.24 22.54-3.08 9.66-3.12 9.66-7.83c0-2.47-1.75-4.45-5.26-5.92z" fill="#fee79a"/><path d="m250.83 411.85c-45.56 0-82.49 16.79-82.49 37.5v22.5c0 20.71 36.93 37.5 82.49 37.5s82.5-16.79 82.5-37.5v-22.5c0-20.71-36.93-37.5-82.5-37.5z" fill="#ffcc1d"/><path d="m194.59 436.05v63.22c10.36 4.4 23.21 7.59 37.49 9.1v-80.26a141.69 141.69 0 0 0 -37.49 7.94z" fill="#ffd74f"/><path d="m269.58 428.11v80.26c14.29-1.51 27.14-4.7 37.5-9.1v-63.22a141.68 141.68 0 0 0 -37.5-7.94z" fill="#ffd74f"/><path d="m333.33 449.35c0 20.71-36.93 37.5-82.5 37.5s-82.49-16.79-82.49-37.5 36.93-37.5 82.49-37.5 82.5 16.79 82.5 37.5z" fill="#fee79a"/><path d="m322.08 447.85c0 15.74-31.9 28.5-71.25 28.5s-71.24-12.76-71.24-28.5 31.89-28.5 71.24-28.5 71.25 12.76 71.25 28.5z" fill="#ffcc1d"/><path d="m269.81 459.91a62 62 0 0 1 -13.68 1.63v-12.4q8.94.92 13.45 1.85 6.62 1.36 6.62 4.38c0 1.91-2.13 3.43-6.39 4.54zm-36.47-18.42q-4.59-1.14-4.59-3.44c0-1.67 1.9-3 5.71-4a52.56 52.56 0 0 1 11.08-1.42v10.65a97.23 97.23 0 0 1 -12.2-1.76zm49.73 7.59a51.82 51.82 0 0 0 -12.65-3.25q-5.64-.79-14.29-1.61v-11.6q16.22.79 17.82 6.51h12.14q-.58-5.24-10.34-8.11a82.68 82.68 0 0 0 -19.62-2.75v-3.74h-10.59v3.7q-12 .38-19.78 2.77-9.15 2.83-9.15 7.28 0 3.93 7 6.3 6.75 2.28 21.9 3.59v13.16a65.7 65.7 0 0 1 -11.43-1.71q-7.8-2-8.77-6h-12q.51 5.43 10.37 8.9 7.77 2.73 21.83 3.3v3.75h10.59v-3.62q13.71-.24 22.54-3.08 9.66-3.12 9.66-7.83 0-3.72-5.26-5.92z" fill="#fee79a"/><path d="m250.83 378.85c-45.56 0-82.49 16.79-82.49 37.5v22.5c0 20.71 36.93 37.5 82.49 37.5s82.5-16.79 82.5-37.5v-22.5c0-20.71-36.93-37.5-82.5-37.5z" fill="#ffcc1d"/><path d="m194.59 403.05v63.22c10.36 4.4 23.21 7.59 37.49 9.1v-80.26a141.69 141.69 0 0 0 -37.49 7.94z" fill="#ffd74f"/><path d="m269.58 395.11v80.26c14.29-1.51 27.14-4.7 37.5-9.1v-63.22a141.68 141.68 0 0 0 -37.5-7.94z" fill="#ffd74f"/><path d="m333.33 416.35c0 20.71-36.93 37.5-82.5 37.5s-82.49-16.79-82.49-37.5 36.93-37.5 82.49-37.5 82.5 16.79 82.5 37.5z" fill="#fee79a"/><path d="m322.08 414.85c0 15.74-31.9 28.5-71.25 28.5s-71.24-12.76-71.24-28.5 31.89-28.5 71.24-28.5 71.25 12.76 71.25 28.5z" fill="#ffcc1d"/><path d="m269.81 426.91a62 62 0 0 1 -13.68 1.63v-12.4q8.94.92 13.45 1.85 6.62 1.36 6.62 4.38c0 1.91-2.13 3.43-6.39 4.54zm-36.47-18.42q-4.59-1.14-4.59-3.44 0-2.52 5.71-4a52.56 52.56 0 0 1 11.08-1.42v10.66a98.68 98.68 0 0 1 -12.2-1.77zm49.73 7.59a51.82 51.82 0 0 0 -12.65-3.25q-5.64-.79-14.29-1.61v-11.6q16.22.79 17.82 6.5h12.14q-.58-5.22-10.34-8.1a82.68 82.68 0 0 0 -19.62-2.75v-3.74h-10.59v3.7q-12 .38-19.78 2.77-9.15 2.83-9.15 7.28 0 3.93 7 6.3 6.75 2.28 21.9 3.59v13.16a65.7 65.7 0 0 1 -11.43-1.71q-7.8-2-8.77-6h-12q.51 5.43 10.37 8.9 7.77 2.73 21.83 3.3v3.75h10.59v-3.62q13.71-.24 22.54-3.08 9.66-3.12 9.66-7.83 0-3.72-5.26-5.92z" fill="#fee79a"/><path d="m235.83 345.85c-45.56 0-82.49 16.79-82.49 37.5v22.5c0 20.71 36.93 37.5 82.49 37.5s82.5-16.79 82.5-37.5v-22.5c0-20.71-36.93-37.5-82.5-37.5z" fill="#ffcc1d"/><path d="m179.59 370.05v63.22c10.36 4.4 23.21 7.59 37.49 9.1v-80.26a142.08 142.08 0 0 0 -37.49 7.94z" fill="#ffd74f"/><path d="m254.58 362.11v80.26c14.29-1.51 27.14-4.7 37.5-9.1v-63.22a142.08 142.08 0 0 0 -37.5-7.94z" fill="#ffd74f"/><path d="m318.33 383.35c0 20.71-36.93 37.5-82.5 37.5s-82.49-16.79-82.49-37.5 36.93-37.5 82.49-37.5 82.5 16.79 82.5 37.5z" fill="#fee79a"/><path d="m307.08 381.85c0 15.74-31.9 28.5-71.25 28.5s-71.24-12.76-71.24-28.5 31.89-28.5 71.24-28.5 71.25 12.76 71.25 28.5z" fill="#ffcc1d"/><path d="m254.81 393.91a62 62 0 0 1 -13.68 1.63v-12.41c6 .62 10.45 1.23 13.45 1.86q6.61 1.36 6.62 4.38t-6.39 4.54zm-36.47-18.42q-4.59-1.14-4.59-3.44 0-2.52 5.71-4a52.56 52.56 0 0 1 11.08-1.42v10.66a98.37 98.37 0 0 1 -12.2-1.77zm49.73 7.59a51.82 51.82 0 0 0 -12.65-3.25q-5.64-.79-14.29-1.61v-11.6q16.22.79 17.82 6.5h12.14q-.58-5.22-10.34-8.1a82.68 82.68 0 0 0 -19.62-2.75v-3.74h-10.59v3.7q-12 .38-19.78 2.77-9.15 2.83-9.15 7.28 0 3.93 7 6.3 6.75 2.28 21.9 3.59v13.16a65.7 65.7 0 0 1 -11.43-1.71q-7.8-2-8.77-6h-12q.51 5.43 10.36 8.9 7.78 2.73 21.84 3.3v3.75h10.59v-3.62q13.71-.24 22.54-3.08 9.66-3.12 9.66-7.83 0-3.72-5.26-5.92z" fill="#fee79a"/><path d="m250.83 312.85c-45.56 0-82.49 16.79-82.49 37.5v22.5c0 20.71 36.93 37.5 82.49 37.5s82.5-16.79 82.5-37.5v-22.5c0-20.71-36.93-37.5-82.5-37.5z" fill="#ffcc1d"/><path d="m194.59 337.05v63.22c10.36 4.4 23.21 7.59 37.49 9.1v-80.26a142.08 142.08 0 0 0 -37.49 7.94z" fill="#ffd74f"/><path d="m269.58 329.11v80.26c14.29-1.51 27.14-4.7 37.5-9.1v-63.22a142.08 142.08 0 0 0 -37.5-7.94z" fill="#ffd74f"/><path d="m333.33 350.35c0 20.71-36.93 37.5-82.5 37.5s-82.49-16.79-82.49-37.5 36.93-37.5 82.49-37.5 82.5 16.79 82.5 37.5z" fill="#fee79a"/><path d="m322.08 348.85c0 15.74-31.9 28.5-71.25 28.5s-71.24-12.76-71.24-28.5 31.89-28.5 71.24-28.5 71.25 12.76 71.25 28.5z" fill="#ffcc1d"/><path d="m269.81 360.91a62 62 0 0 1 -13.68 1.63v-12.41c6 .62 10.45 1.23 13.45 1.86q6.62 1.36 6.62 4.38t-6.39 4.54zm-36.47-18.42q-4.59-1.14-4.59-3.44 0-2.52 5.71-4a52.56 52.56 0 0 1 11.08-1.42v10.65a97.23 97.23 0 0 1 -12.2-1.76zm49.73 7.59a51.82 51.82 0 0 0 -12.65-3.25q-5.64-.79-14.29-1.61v-11.6q16.22.79 17.82 6.5h12.14q-.58-5.22-10.34-8.1a82.68 82.68 0 0 0 -19.62-2.75v-3.74h-10.59v3.7q-12 .38-19.78 2.77-9.15 2.83-9.15 7.28 0 3.93 7 6.3 6.75 2.28 21.9 3.59v13.16a65.7 65.7 0 0 1 -11.43-1.71q-7.8-2-8.77-6h-12q.51 5.43 10.37 8.9 7.77 2.73 21.83 3.3v3.75h10.59v-3.62q13.71-.24 22.54-3.08 9.66-3.12 9.66-7.83 0-3.72-5.26-5.92z" fill="#fee79a"/><path d="m461.5 588c-45.56 0-82.5 16.79-82.5 37.5v22.5c0 20.71 36.94 37.5 82.5 37.5s82.5-16.79 82.5-37.5v-22.5c0-20.71-36.94-37.5-82.5-37.5z" fill="#ffcc1d"/><path d="m405.25 612.2v63.22c10.36 4.4 23.22 7.59 37.5 9.09v-80.25a141.46 141.46 0 0 0 -37.5 7.94z" fill="#ffd74f"/><path d="m480.25 604.26v80.25c14.28-1.5 27.14-4.69 37.5-9.09v-63.22a141.46 141.46 0 0 0 -37.5-7.94z" fill="#ffd74f"/><path d="m544 625.5c0 20.71-36.94 37.5-82.5 37.5s-82.5-16.79-82.5-37.5 36.94-37.5 82.5-37.5 82.5 16.79 82.5 37.5z" fill="#fee79a"/><path d="m532.75 624c0 15.74-31.9 28.5-71.25 28.5s-71.25-12.76-71.25-28.5 31.9-28.5 71.25-28.5 71.25 12.76 71.25 28.5z" fill="#ffcc1d"/><path d="m480.48 636.06a61.61 61.61 0 0 1 -13.69 1.62v-12.4c6 .62 10.45 1.23 13.46 1.86q6.62 1.36 6.61 4.38c0 1.91-2.13 3.43-6.38 4.54zm-36.48-18.42q-4.59-1.14-4.59-3.44c0-1.68 1.91-3 5.72-4a53.82 53.82 0 0 1 11.08-1.42v10.62a97.47 97.47 0 0 1 -12.21-1.76zm49.73 7.59a51.26 51.26 0 0 0 -12.65-3.23c-3.75-.54-8.52-1.07-14.29-1.62v-11.61q16.21.79 17.83 6.5h12.13q-.57-5.24-10.34-8.1a82.09 82.09 0 0 0 -19.62-2.75v-3.74h-10.58v3.7q-12 .36-19.79 2.77c-6.09 1.89-9.15 4.32-9.15 7.28q0 3.93 7 6.3 6.74 2.28 21.9 3.59v13.16a66.79 66.79 0 0 1 -11.44-1.71q-7.8-1.95-8.76-6h-11.97q.51 5.43 10.37 8.9 7.78 2.73 21.84 3.3v3.75h10.58v-3.62q13.72-.24 22.55-3.09 9.66-3.11 9.66-7.82 0-3.72-5.27-5.92z" fill="#fee79a"/><path d="m145.5 515c-45.56 0-82.5 16.79-82.5 37.5v22.5c0 20.71 36.94 37.5 82.5 37.5s82.5-16.79 82.5-37.5v-22.5c0-20.71-36.94-37.5-82.5-37.5z" fill="#ffcc1d"/><path d="m89.25 539.2v63.22c10.36 4.39 23.22 7.59 37.5 9.1v-80.26a141.46 141.46 0 0 0 -37.5 7.94z" fill="#ffd74f"/><path d="m164.25 531.26v80.26c14.28-1.51 27.14-4.71 37.5-9.1v-63.22a141.46 141.46 0 0 0 -37.5-7.94z" fill="#ffd74f"/><path d="m228 552.5c0 20.71-36.94 37.5-82.5 37.5s-82.5-16.79-82.5-37.5 36.94-37.5 82.5-37.5 82.5 16.79 82.5 37.5z" fill="#fee79a"/><path d="m216.75 551c0 15.74-31.9 28.5-71.25 28.5s-71.25-12.76-71.25-28.5 31.9-28.5 71.25-28.5 71.25 12.76 71.25 28.5z" fill="#ffcc1d"/><path d="m164.47 563.06a62 62 0 0 1 -13.68 1.63v-12.41c6 .62 10.45 1.23 13.46 1.86q6.62 1.36 6.61 4.38 0 2.87-6.39 4.54zm-36.47-18.42q-4.59-1.14-4.59-3.44c0-1.68 1.9-3 5.72-4a53.82 53.82 0 0 1 11.08-1.42v10.62a97.47 97.47 0 0 1 -12.21-1.76zm49.73 7.59a51.26 51.26 0 0 0 -12.65-3.23c-3.75-.54-8.52-1.07-14.29-1.62v-11.61q16.22.79 17.83 6.5h12.13q-.57-5.24-10.34-8.1a82.09 82.09 0 0 0 -19.62-2.75v-3.74h-10.58v3.7q-12 .36-19.78 2.77-9.17 2.83-9.16 7.28 0 3.93 7 6.3 6.73 2.28 21.9 3.59v13.16a66.79 66.79 0 0 1 -11.44-1.71q-7.8-1.95-8.76-6h-11.97q.51 5.43 10.37 8.89 7.78 2.75 21.84 3.31v3.75h10.58v-3.62q13.72-.24 22.55-3.09 9.66-3.11 9.66-7.82 0-3.72-5.27-5.92z" fill="#fee79a"/><path d="m268.83 549.5c-45.56 0-82.49 16.79-82.49 37.5v22.5c0 20.71 36.93 37.5 82.49 37.5s82.5-16.79 82.5-37.5v-22.5c0-20.71-36.93-37.5-82.5-37.5z" fill="#ffcc1d"/><path d="m212.59 573.7v63.22c10.36 4.39 23.21 7.59 37.49 9.1v-80.26a141.69 141.69 0 0 0 -37.49 7.94z" fill="#ffd74f"/><path d="m287.58 565.76v80.24c14.29-1.51 27.14-4.71 37.5-9.1v-63.2a141.68 141.68 0 0 0 -37.5-7.94z" fill="#ffd74f"/><path d="m351.33 587c0 20.71-36.93 37.5-82.5 37.5s-82.49-16.79-82.49-37.5 36.93-37.5 82.49-37.5 82.5 16.79 82.5 37.5z" fill="#fee79a"/><path d="m340.08 585.5c0 15.74-31.9 28.5-71.25 28.5s-71.24-12.76-71.24-28.5 31.89-28.5 71.24-28.5 71.25 12.76 71.25 28.5z" fill="#ffcc1d"/><path d="m287.81 597.56a61.51 61.51 0 0 1 -13.68 1.62v-12.4c6 .62 10.45 1.23 13.45 1.86q6.62 1.36 6.62 4.36 0 2.87-6.39 4.54zm-36.47-18.42q-4.59-1.14-4.59-3.44c0-1.68 1.9-3 5.71-4a53.92 53.92 0 0 1 11.08-1.42v10.62a97.23 97.23 0 0 1 -12.2-1.76zm49.73 7.59a51.37 51.37 0 0 0 -12.65-3.25c-3.76-.54-8.53-1.07-14.29-1.62v-11.59q16.22.79 17.82 6.5h12.14q-.58-5.24-10.34-8.1a82.17 82.17 0 0 0 -19.62-2.75v-3.74h-10.59v3.7q-12 .36-19.78 2.77-9.15 2.83-9.15 7.28 0 3.93 7 6.3 6.75 2.28 21.9 3.59v13.18a66.67 66.67 0 0 1 -11.43-1.71q-7.8-1.95-8.77-6h-12q.53 5.43 10.37 8.89 7.78 2.75 21.84 3.31v3.75h10.59v-3.62q13.71-.24 22.54-3.09 9.66-3.11 9.66-7.82 0-3.72-5.26-5.92z" fill="#fee79a"/><path d="m268.83 509c-45.56 0-82.49 16.79-82.49 37.5v22.5c0 20.71 36.93 37.5 82.49 37.5s82.5-16.79 82.5-37.5v-22.5c0-20.71-36.93-37.5-82.5-37.5z" fill="#ffcc1d"/><path d="m212.59 533.2v63.22c10.36 4.39 23.21 7.59 37.49 9.1v-80.26a141.29 141.29 0 0 0 -37.49 7.94z" fill="#ffd74f"/><path d="m287.58 525.26v80.26c14.29-1.51 27.14-4.71 37.5-9.1v-63.22a141.28 141.28 0 0 0 -37.5-7.94z" fill="#ffd74f"/><path d="m351.33 546.5c0 20.71-36.93 37.5-82.5 37.5s-82.49-16.79-82.49-37.5 36.93-37.5 82.49-37.5 82.5 16.79 82.5 37.5z" fill="#fee79a"/><path d="m340.08 545c0 15.74-31.9 28.5-71.25 28.5s-71.24-12.76-71.24-28.5 31.89-28.5 71.24-28.5 71.25 12.76 71.25 28.5z" fill="#ffcc1d"/><path d="m287.81 557.06a62 62 0 0 1 -13.68 1.63v-12.41c6 .62 10.45 1.23 13.45 1.86q6.62 1.36 6.62 4.38 0 2.87-6.39 4.54zm-36.47-18.42q-4.59-1.14-4.59-3.44c0-1.68 1.9-3 5.71-4a53.92 53.92 0 0 1 11.08-1.42v10.62a97.23 97.23 0 0 1 -12.2-1.76zm49.73 7.59a51.37 51.37 0 0 0 -12.65-3.23c-3.76-.54-8.53-1.07-14.29-1.62v-11.61q16.22.79 17.82 6.5h12.14q-.58-5.24-10.34-8.1a82.17 82.17 0 0 0 -19.62-2.75v-3.74h-10.59v3.7q-12 .36-19.78 2.77-9.15 2.83-9.15 7.28 0 3.93 7 6.3 6.75 2.28 21.9 3.59v13.16a66.67 66.67 0 0 1 -11.43-1.71q-7.8-1.95-8.77-6h-12q.53 5.43 10.37 8.89 7.78 2.75 21.84 3.31v3.75h10.59v-3.62q13.71-.24 22.54-3.09 9.66-3.11 9.66-7.82 0-3.72-5.26-5.92z" fill="#fee79a"/></svg>