<svg id="Layer_1" data-name="Layer 1" xmlns="http://www.w3.org/2000/svg" viewBox="0 0 958 523"><defs><style>.cls-1{fill:#ffcc1d;}.cls-2{fill:#ffd74f;}.cls-3{fill:#fee79a;}.cls-4{fill:#ffcc4b;}.cls-5{fill:#ffd66f;}.cls-6{fill:#feeaa4;}.cls-7{fill:#dd647b;}.cls-8{fill:#ea7591;}.cls-9{fill:#ff8396;}.cls-10{fill:#fff;}.cls-11{fill:#221f1f;}.cls-12{fill:#1a1a1a;opacity:0.25;}.cls-13{fill:#ba3655;}.cls-14{fill:#7345b5;}.cls-15{fill:#6a33aa;}.cls-16{fill:#9042db;}.cls-17{fill:#ddaa1a;}.cls-18{fill:#f5da62;}</style></defs><title>Headers</title><path class="cls-1" d="M209.94,238.74c-13.36,0-24.19,4.92-24.19,11v6.6c0,6.07,10.83,11,24.19,11s24.19-4.93,24.19-11v-6.6c0-6.07-10.83-11-24.19-11Z"/><path class="cls-2" d="M193.44,245.83v18.54a39,39,0,0,0,11,2.67V243.5a42,42,0,0,0-11,2.33Z"/><path class="cls-2" d="M215.44,243.5V267a39,39,0,0,0,11-2.67V245.83a42,42,0,0,0-11-2.33Z"/><path class="cls-3" d="M234.13,249.73c0,6.07-10.83,11-24.19,11s-24.19-4.93-24.19-11,10.83-11,24.19-11,24.19,4.92,24.19,11Z"/><path class="cls-1" d="M230.83,249.29c0,4.62-9.35,8.36-20.89,8.36s-20.9-3.74-20.9-8.36,9.36-8.36,20.9-8.36,20.89,3.75,20.89,8.36Z"/><path class="cls-3" d="M215.5,252.83a18.3,18.3,0,0,1-4,.47v-3.63c1.75.18,3.06.36,3.95.54,1.29.27,1.94.7,1.94,1.29s-.63,1-1.88,1.33Zm-10.69-5.4c-.9-.23-1.35-.56-1.35-1s.56-.89,1.68-1.19a15.91,15.91,0,0,1,3.25-.41v3.12a28.57,28.57,0,0,1-3.58-.51Zm14.58,2.22a15.06,15.06,0,0,0-3.71-1c-1.1-.16-2.5-.32-4.19-.47v-3.4c3.17.15,4.91.79,5.23,1.9h3.56c-.12-1-1.13-1.81-3-2.37a24,24,0,0,0-5.75-.81v-1.1h-3.1v1.09a22.13,22.13,0,0,0-5.8.81c-1.79.56-2.69,1.27-2.69,2.13s.69,1.39,2.06,1.85a30.22,30.22,0,0,0,6.43,1.06v3.86a19.51,19.51,0,0,1-3.36-.51c-1.52-.38-2.38-1-2.57-1.77h-3.52c.1,1.06,1.12,1.93,3,2.61a22.71,22.71,0,0,0,6.41,1v1.1h3.1v-1.06a23.22,23.22,0,0,0,6.61-.91c1.89-.61,2.83-1.37,2.83-2.29,0-.73-.51-1.31-1.54-1.74Z"/><path class="cls-1" d="M209.94,229.06c-13.36,0-24.19,4.92-24.19,11v6.6c0,6.08,10.83,11,24.19,11s24.19-4.92,24.19-11v-6.6c0-6.07-10.83-11-24.19-11Z"/><path class="cls-2" d="M193.44,236.16v18.53a39,39,0,0,0,11,2.67V233.83a41.25,41.25,0,0,0-11,2.33Z"/><path class="cls-2" d="M215.44,233.83v23.53a39,39,0,0,0,11-2.67V236.16a41.17,41.17,0,0,0-11-2.33Z"/><path class="cls-3" d="M234.13,240.05c0,6.08-10.83,11-24.19,11s-24.19-4.92-24.19-11,10.83-11,24.19-11,24.19,4.92,24.19,11Z"/><path class="cls-1" d="M230.83,239.61c0,4.62-9.35,8.36-20.89,8.36s-20.9-3.74-20.9-8.36,9.36-8.35,20.9-8.35,20.89,3.74,20.89,8.35Z"/><path class="cls-3" d="M215.5,243.15a18.23,18.23,0,0,1-4,.48V240c1.75.18,3.06.36,3.95.54,1.29.27,1.94.7,1.94,1.29s-.63,1-1.88,1.33Zm-10.69-5.4c-.9-.22-1.35-.56-1.35-1s.56-.88,1.68-1.18a15.82,15.82,0,0,1,3.25-.42v3.13a28.09,28.09,0,0,1-3.58-.52ZM219.39,240a15,15,0,0,0-3.71-1c-1.1-.15-2.5-.31-4.19-.47v-3.4q4.75.22,5.23,1.91h3.56c-.12-1-1.13-1.82-3-2.38a24,24,0,0,0-5.75-.81v-1.09h-3.1v1.08a22.13,22.13,0,0,0-5.8.81c-1.79.56-2.69,1.27-2.69,2.14s.69,1.38,2.06,1.85a31,31,0,0,0,6.43,1.05v3.86a20.59,20.59,0,0,1-3.36-.5c-1.52-.39-2.38-1-2.57-1.78h-3.52c.1,1.07,1.12,1.94,3,2.61a22.71,22.71,0,0,0,6.41,1V246h3.1v-1.06a23.62,23.62,0,0,0,6.61-.9c1.89-.61,2.83-1.38,2.83-2.3,0-.73-.51-1.3-1.54-1.73Z"/><path class="cls-1" d="M209.94,219.38c-13.36,0-24.19,4.92-24.19,11V237c0,6.07,10.83,11,24.19,11s24.19-4.92,24.19-11v-6.6c0-6.08-10.83-11-24.19-11Z"/><path class="cls-2" d="M193.44,226.48V245a39,39,0,0,0,11,2.66V224.15a41.25,41.25,0,0,0-11,2.33Z"/><path class="cls-2" d="M215.44,224.15v23.53a39,39,0,0,0,11-2.66V226.48a41.17,41.17,0,0,0-11-2.33Z"/><path class="cls-3" d="M234.13,230.38c0,6.07-10.83,11-24.19,11s-24.19-4.92-24.19-11,10.83-11,24.19-11,24.19,4.92,24.19,11Z"/><path class="cls-1" d="M230.83,229.94c0,4.61-9.35,8.36-20.89,8.36s-20.9-3.75-20.9-8.36,9.36-8.36,20.9-8.36,20.89,3.74,20.89,8.36Z"/><path class="cls-1" d="M143.15,224c-13.37,0-24.2,4.93-24.2,11v6.6c0,6.07,10.83,11,24.2,11s24.19-4.93,24.19-11V235c0-6.07-10.83-11-24.19-11Z"/><path class="cls-2" d="M126.65,231.07v18.54a39.33,39.33,0,0,0,11,2.67V228.74a41.64,41.64,0,0,0-11,2.33Z"/><path class="cls-2" d="M148.64,228.74v23.54a39.33,39.33,0,0,0,11-2.67V231.07a41.64,41.64,0,0,0-11-2.33Z"/><path class="cls-3" d="M167.34,235c0,6.07-10.83,11-24.19,11S119,241,119,235s10.83-11,24.2-11,24.19,4.93,24.19,11Z"/><path class="cls-1" d="M164,234.53c0,4.62-9.35,8.36-20.89,8.36s-20.9-3.74-20.9-8.36,9.36-8.36,20.9-8.36S164,229.91,164,234.53Z"/><path class="cls-3" d="M148.71,238.07a18.3,18.3,0,0,1-4,.47v-3.63c1.75.18,3.06.36,3.94.54,1.3.27,1.94.7,1.94,1.29s-.62,1-1.87,1.33Zm-10.7-5.4c-.89-.23-1.34-.56-1.34-1s.56-.89,1.67-1.19a15.33,15.33,0,0,1,3.25-.41v3.12a31,31,0,0,1-3.58-.51Zm14.59,2.22a15.06,15.06,0,0,0-3.71-.95c-1.1-.16-2.5-.32-4.19-.48v-3.4c3.17.16,4.91.79,5.22,1.91h3.56q-.16-1.53-3-2.37a24.11,24.11,0,0,0-5.75-.81v-1.1h-3.11v1.09a22.26,22.26,0,0,0-5.8.81c-1.79.55-2.68,1.27-2.68,2.13s.69,1.39,2.06,1.85a29.6,29.6,0,0,0,6.42,1.05v3.86a18.51,18.51,0,0,1-3.35-.5c-1.52-.38-2.38-1-2.57-1.77h-3.52c.1,1.06,1.11,1.93,3,2.61a23.06,23.06,0,0,0,6.4,1v1.1h3.11v-1.06a23.27,23.27,0,0,0,6.61-.91c1.89-.61,2.83-1.37,2.83-2.29,0-.73-.51-1.31-1.54-1.74Z"/><path class="cls-1" d="M143.15,214.3c-13.37,0-24.2,4.92-24.2,11v6.6c0,6.07,10.83,11,24.2,11s24.19-4.93,24.19-11v-6.6c0-6.07-10.83-11-24.19-11Z"/><path class="cls-2" d="M126.65,221.39v18.54a39,39,0,0,0,11,2.67V219.06a42,42,0,0,0-11,2.33Z"/><path class="cls-2" d="M148.64,219.06V242.6a39,39,0,0,0,11-2.67V221.39a42,42,0,0,0-11-2.33Z"/><path class="cls-3" d="M167.34,225.29c0,6.08-10.83,11-24.19,11s-24.2-4.92-24.2-11,10.83-11,24.2-11,24.19,4.92,24.19,11Z"/><path class="cls-1" d="M164,224.85c0,4.62-9.35,8.36-20.89,8.36s-20.9-3.74-20.9-8.36,9.36-8.35,20.9-8.35S164,220.24,164,224.85Z"/><path class="cls-1" d="M164.2,229.15c-13.36,0-24.19,4.92-24.19,11v6.6c0,6.08,10.83,11,24.19,11s24.2-4.92,24.2-11v-6.6c0-6.07-10.83-11-24.2-11Z"/><path class="cls-2" d="M147.71,236.25v18.53a39,39,0,0,0,11,2.67V233.92a41.25,41.25,0,0,0-11,2.33Z"/><path class="cls-2" d="M169.7,233.92v23.53a39,39,0,0,0,11-2.67V236.25a41.25,41.25,0,0,0-11-2.33Z"/><path class="cls-3" d="M188.4,240.14c0,6.08-10.83,11-24.2,11s-24.19-4.92-24.19-11,10.83-11,24.19-11,24.2,4.92,24.2,11Z"/><path class="cls-1" d="M185.1,239.71c0,4.61-9.36,8.35-20.9,8.35s-20.89-3.74-20.89-8.35,9.36-8.36,20.89-8.36,20.9,3.74,20.9,8.36Z"/><path class="cls-3" d="M169.77,243.24a18.31,18.31,0,0,1-4,.48v-3.64c1.74.18,3.06.36,3.94.54,1.3.27,1.94.7,1.94,1.29s-.62,1-1.87,1.33Zm-10.7-5.4c-.89-.22-1.34-.56-1.34-1s.56-.88,1.67-1.18a15.92,15.92,0,0,1,3.25-.42v3.13a28.39,28.39,0,0,1-3.58-.52Zm14.59,2.23a15,15,0,0,0-3.71-1c-1.1-.15-2.5-.31-4.19-.47v-3.4q4.76.22,5.22,1.91h3.56c-.11-1-1.12-1.82-3-2.38a24.11,24.11,0,0,0-5.75-.81v-1.09h-3.11V234a22.19,22.19,0,0,0-5.8.81c-1.79.56-2.68,1.27-2.68,2.14s.69,1.38,2.06,1.85a30.91,30.91,0,0,0,6.42,1.05v3.86a20.29,20.29,0,0,1-3.35-.5c-1.53-.39-2.38-1-2.57-1.78h-3.52c.1,1.07,1.11,1.94,3,2.61a22.69,22.69,0,0,0,6.4,1v1.1h3.11V245a23.68,23.68,0,0,0,6.61-.9c1.89-.61,2.83-1.38,2.83-2.3,0-.72-.51-1.3-1.54-1.73Z"/><path class="cls-1" d="M132.45,249.72c-13.36,0-24.2,4.92-24.2,11v6.59c0,6.08,10.84,11,24.2,11s24.19-4.92,24.19-11v-6.59c0-6.08-10.83-11-24.19-11Z"/><path class="cls-2" d="M116,256.82v18.53A39,39,0,0,0,127,278V254.49a41.25,41.25,0,0,0-11,2.33Z"/><path class="cls-2" d="M138,254.49V278a39,39,0,0,0,11-2.67V256.82a41.26,41.26,0,0,0-11-2.33Z"/><path class="cls-3" d="M156.64,260.72c0,6.07-10.83,11-24.19,11s-24.2-4.92-24.2-11,10.84-11,24.2-11,24.19,4.92,24.19,11Z"/><path class="cls-1" d="M153.34,260.28c0,4.61-9.35,8.35-20.89,8.35s-20.9-3.74-20.9-8.35,9.36-8.36,20.9-8.36,20.89,3.74,20.89,8.36Z"/><path class="cls-3" d="M138,263.81a17.65,17.65,0,0,1-4,.48v-3.64c1.75.18,3.06.36,3.95.55,1.29.26,1.93.69,1.93,1.28s-.62,1-1.87,1.33Zm-10.69-5.4c-.9-.22-1.35-.56-1.35-1s.56-.88,1.68-1.18a15.82,15.82,0,0,1,3.25-.42v3.13a27.8,27.8,0,0,1-3.58-.52Zm14.58,2.23a15.5,15.5,0,0,0-3.71-1c-1.1-.15-2.5-.31-4.19-.47v-3.4q4.75.23,5.23,1.91h3.56c-.12-1-1.13-1.82-3-2.38a24.11,24.11,0,0,0-5.75-.81v-1.09h-3.1v1.08a22.27,22.27,0,0,0-5.81.81c-1.78.56-2.68,1.27-2.68,2.14s.69,1.38,2.06,1.85a30.91,30.91,0,0,0,6.43,1.05v3.86a20.59,20.59,0,0,1-3.36-.5c-1.52-.38-2.38-1-2.57-1.77h-3.52c.1,1.06,1.11,1.93,3,2.6a22.71,22.71,0,0,0,6.41,1v1.1H134v-1.06a23.62,23.62,0,0,0,6.61-.9c1.89-.61,2.83-1.38,2.83-2.3,0-.72-.51-1.3-1.54-1.73Z"/><path class="cls-1" d="M169.48,259.84c-13.36,0-24.19,4.92-24.19,11v6.6c0,6.07,10.83,11,24.19,11s24.2-4.93,24.2-11v-6.6c0-6.07-10.84-11-24.2-11Z"/><path class="cls-2" d="M153,266.93v18.54a39,39,0,0,0,11,2.67V264.6a42.05,42.05,0,0,0-11,2.33Z"/><path class="cls-2" d="M175,264.6v23.54a39,39,0,0,0,11-2.67V266.93a42,42,0,0,0-11-2.33Z"/><path class="cls-3" d="M193.68,270.83c0,6.08-10.84,11-24.2,11s-24.19-4.92-24.19-11,10.83-11,24.19-11,24.2,4.92,24.2,11Z"/><path class="cls-1" d="M190.38,270.39c0,4.62-9.36,8.36-20.9,8.36s-20.89-3.74-20.89-8.36,9.35-8.35,20.89-8.35,20.9,3.74,20.9,8.35Z"/><path class="cls-3" d="M175.05,273.93a19.05,19.05,0,0,1-4,.48v-3.64c1.75.18,3.07.36,3.95.54,1.29.27,1.94.7,1.94,1.29s-.62,1-1.87,1.33Zm-10.7-5.4c-.9-.23-1.34-.56-1.34-1s.55-.89,1.67-1.18a15.25,15.25,0,0,1,3.25-.42V269a28.57,28.57,0,0,1-3.58-.51Zm14.59,2.22a15.06,15.06,0,0,0-3.71-.95c-1.11-.16-2.5-.31-4.2-.47v-3.4c3.17.15,4.92.79,5.23,1.9h3.56q-.16-1.53-3-2.37a24.13,24.13,0,0,0-5.76-.81v-1.1h-3.1v1.09a22.19,22.19,0,0,0-5.8.81c-1.79.56-2.68,1.27-2.68,2.14s.68,1.38,2.06,1.84a30.1,30.1,0,0,0,6.42,1.06v3.86a19.23,19.23,0,0,1-3.35-.51c-1.53-.38-2.38-1-2.57-1.77h-3.52c.1,1.06,1.11,1.93,3,2.61a22.63,22.63,0,0,0,6.4,1v1.1H171v-1.06a23.3,23.3,0,0,0,6.62-.91c1.88-.61,2.83-1.37,2.83-2.29,0-.73-.52-1.31-1.54-1.74Z"/><path class="cls-1" d="M169.48,248c-13.36,0-24.19,4.92-24.19,11v6.59c0,6.08,10.83,11,24.19,11s24.2-4.92,24.2-11V259c0-6.08-10.84-11-24.2-11Z"/><path class="cls-2" d="M153,255.06V273.6a39.36,39.36,0,0,0,11,2.66V252.73a41.26,41.26,0,0,0-11,2.33Z"/><path class="cls-2" d="M175,252.73v23.53a39.34,39.34,0,0,0,11-2.66V255.06a41.25,41.25,0,0,0-11-2.33Z"/><path class="cls-3" d="M193.68,259c0,6.07-10.84,11-24.2,11s-24.19-4.92-24.19-11,10.83-11,24.19-11,24.2,4.92,24.2,11Z"/><path class="cls-1" d="M190.38,258.52c0,4.61-9.36,8.35-20.9,8.35s-20.89-3.74-20.89-8.35,9.35-8.36,20.89-8.36,20.9,3.74,20.9,8.36Z"/><path class="cls-3" d="M175.05,262.05a17.82,17.82,0,0,1-4,.48v-3.64a39.78,39.78,0,0,1,3.95.55c1.29.26,1.94.69,1.94,1.28s-.62,1-1.87,1.33Zm-10.7-5.4c-.9-.22-1.34-.56-1.34-1s.55-.88,1.67-1.18a15.92,15.92,0,0,1,3.25-.42v3.13a28.09,28.09,0,0,1-3.58-.52Zm14.59,2.23a15.5,15.5,0,0,0-3.71-1c-1.11-.15-2.5-.31-4.2-.47v-3.4c3.17.15,4.92.79,5.23,1.91h3.56c-.11-1-1.12-1.82-3-2.38a23.68,23.68,0,0,0-5.76-.8v-1.1h-3.1v1.08a22.19,22.19,0,0,0-5.8.81c-1.79.56-2.68,1.27-2.68,2.14s.68,1.38,2.06,1.85a30.91,30.91,0,0,0,6.42,1.05v3.86a19.29,19.29,0,0,1-3.35-.5c-1.53-.38-2.38-1-2.57-1.77h-3.52c.1,1.06,1.11,1.93,3,2.61a23.05,23.05,0,0,0,6.4,1v1.1H171v-1.06a23.7,23.7,0,0,0,6.62-.9c1.88-.61,2.83-1.38,2.83-2.3,0-.72-.52-1.3-1.54-1.73Z"/><path class="cls-3" d="M145.5,228.47a17.65,17.65,0,0,1-4,.48v-3.64c1.75.18,3.06.36,3.95.55,1.29.27,1.94.69,1.94,1.28s-.63,1-1.88,1.33Zm-10.69-5.4c-.9-.22-1.35-.56-1.35-1s.56-.88,1.68-1.18a15.82,15.82,0,0,1,3.25-.42v3.13a28.09,28.09,0,0,1-3.58-.52Zm14.58,2.23a15.5,15.5,0,0,0-3.71-1c-1.1-.15-2.5-.31-4.19-.47v-3.4c3.17.16,4.91.79,5.23,1.91h3.56c-.12-1-1.13-1.82-3-2.38a24.09,24.09,0,0,0-5.75-.8v-1.1h-3.1v1.08a22.51,22.51,0,0,0-5.8.82c-1.79.55-2.69,1.26-2.69,2.13s.69,1.39,2.06,1.85a31,31,0,0,0,6.43,1.05v3.86a19.56,19.56,0,0,1-3.36-.5c-1.52-.38-2.38-1-2.57-1.77h-3.52c.1,1.06,1.12,1.93,3,2.61a23.46,23.46,0,0,0,6.41,1v1.09h3.1v-1.06a23.26,23.26,0,0,0,6.61-.9c1.89-.61,2.83-1.38,2.83-2.3,0-.72-.51-1.3-1.54-1.73Z"/><path class="cls-3" d="M215.5,233.47a17.65,17.65,0,0,1-4,.48v-3.64c1.75.18,3.06.36,3.95.55,1.29.27,1.94.69,1.94,1.28s-.63,1-1.88,1.33Zm-10.69-5.4c-.9-.22-1.35-.56-1.35-1s.56-.88,1.68-1.18a15.82,15.82,0,0,1,3.25-.42v3.13a28.09,28.09,0,0,1-3.58-.52Zm14.58,2.23a15.5,15.5,0,0,0-3.71-1c-1.1-.15-2.5-.31-4.19-.47v-3.4c3.17.16,4.91.79,5.23,1.91h3.56c-.12-1-1.13-1.82-3-2.38a24.09,24.09,0,0,0-5.75-.8v-1.1h-3.1v1.08a22.51,22.51,0,0,0-5.8.82c-1.79.55-2.69,1.26-2.69,2.13s.69,1.39,2.06,1.85a31,31,0,0,0,6.43,1.05v3.86a19.56,19.56,0,0,1-3.36-.5c-1.52-.38-2.38-1-2.57-1.77h-3.52c.1,1.06,1.12,1.93,3,2.61a23.46,23.46,0,0,0,6.41,1v1.09h3.1v-1.06a23.26,23.26,0,0,0,6.61-.9c1.89-.61,2.83-1.38,2.83-2.3,0-.72-.51-1.3-1.54-1.73Z"/><path class="cls-1" d="M298.59,232.34c-13.36,0-24.2,4.92-24.2,11v6.6c0,6.07,10.84,11,24.2,11s24.19-4.92,24.19-11v-6.6c0-6.08-10.83-11-24.19-11Z"/><path class="cls-2" d="M282.09,239.44V258a39,39,0,0,0,11,2.66V237.11a41.25,41.25,0,0,0-11,2.33Z"/><path class="cls-2" d="M304.08,237.11v23.53a39,39,0,0,0,11-2.66V239.44a41.25,41.25,0,0,0-11-2.33Z"/><path class="cls-3" d="M322.78,243.34c0,6.07-10.83,11-24.19,11s-24.2-4.92-24.2-11,10.84-11,24.2-11,24.19,4.92,24.19,11Z"/><path class="cls-1" d="M319.48,242.9c0,4.61-9.35,8.35-20.89,8.35s-20.9-3.74-20.9-8.35,9.36-8.36,20.9-8.36,20.89,3.74,20.89,8.36Z"/><path class="cls-3" d="M304.15,246.43a17.65,17.65,0,0,1-4,.48v-3.64a39.48,39.48,0,0,1,3.94.55c1.3.27,1.94.69,1.94,1.28s-.62,1-1.87,1.33ZM293.46,241c-.9-.22-1.35-.56-1.35-1s.56-.88,1.68-1.18a15.82,15.82,0,0,1,3.25-.42v3.13a27.8,27.8,0,0,1-3.58-.52ZM308,243.26a15.5,15.5,0,0,0-3.71-1c-1.1-.15-2.5-.31-4.19-.47v-3.4c3.17.16,4.91.79,5.23,1.91h3.55c-.11-1-1.12-1.82-3-2.38a24.16,24.16,0,0,0-5.75-.8v-1.1H297v1.08a22.66,22.66,0,0,0-5.81.82c-1.79.55-2.68,1.26-2.68,2.13s.69,1.39,2.06,1.85A30.91,30.91,0,0,0,297,243v3.86a19.41,19.41,0,0,1-3.36-.5c-1.52-.38-2.38-1-2.57-1.77h-3.52c.1,1.06,1.11,1.93,3,2.61a23.46,23.46,0,0,0,6.41,1v1.1h3.1v-1.07a23.31,23.31,0,0,0,6.61-.9c1.89-.61,2.83-1.38,2.83-2.3,0-.72-.51-1.3-1.54-1.73Z"/><path class="cls-1" d="M298.59,222.66c-13.36,0-24.2,4.93-24.2,11v6.6c0,6.07,10.84,11,24.2,11s24.19-4.93,24.19-11v-6.6c0-6.07-10.83-11-24.19-11Z"/><path class="cls-2" d="M282.09,229.76V248.3a39.33,39.33,0,0,0,11,2.67V227.43a41.64,41.64,0,0,0-11,2.33Z"/><path class="cls-2" d="M304.08,227.43V251a39.33,39.33,0,0,0,11-2.67V229.76a41.64,41.64,0,0,0-11-2.33Z"/><path class="cls-3" d="M322.78,233.66c0,6.07-10.83,11-24.19,11s-24.2-4.93-24.2-11,10.84-11,24.2-11,24.19,4.93,24.19,11Z"/><path class="cls-1" d="M319.48,233.22c0,4.62-9.35,8.36-20.89,8.36s-20.9-3.74-20.9-8.36,9.36-8.36,20.9-8.36,20.89,3.74,20.89,8.36Z"/><path class="cls-3" d="M304.15,236.76a18.3,18.3,0,0,1-4,.47V233.6c1.75.18,3.06.36,3.94.54,1.3.27,1.94.7,1.94,1.29s-.62,1-1.87,1.33Zm-10.69-5.4c-.9-.23-1.35-.56-1.35-1s.56-.89,1.68-1.19a15.24,15.24,0,0,1,3.25-.41v3.12a30.29,30.29,0,0,1-3.58-.51ZM308,233.58a15.06,15.06,0,0,0-3.71-1c-1.1-.16-2.5-.32-4.19-.48v-3.39q4.75.23,5.23,1.9h3.55q-.17-1.53-3-2.37a24.11,24.11,0,0,0-5.75-.81v-1.1H297v1.09a22.27,22.27,0,0,0-5.81.81c-1.79.55-2.68,1.27-2.68,2.13s.69,1.39,2.06,1.85a30.1,30.1,0,0,0,6.43,1.06v3.85a18.49,18.49,0,0,1-3.36-.5c-1.52-.38-2.38-1-2.57-1.77h-3.52c.1,1.06,1.11,1.93,3,2.61a23.08,23.08,0,0,0,6.41,1v1.1h3.1v-1.06a23.27,23.27,0,0,0,6.61-.91c1.89-.61,2.83-1.37,2.83-2.29,0-.73-.51-1.31-1.54-1.74Z"/><path class="cls-1" d="M298.59,213c-13.36,0-24.2,4.92-24.2,11v6.6c0,6.07,10.84,11,24.2,11s24.19-4.93,24.19-11V224c0-6.07-10.83-11-24.19-11Z"/><path class="cls-2" d="M282.09,220.08v18.54a39,39,0,0,0,11,2.67V217.75a42,42,0,0,0-11,2.33Z"/><path class="cls-2" d="M304.08,217.75v23.54a39,39,0,0,0,11-2.67V220.08a42,42,0,0,0-11-2.33Z"/><path class="cls-3" d="M322.78,224c0,6.08-10.83,11-24.19,11s-24.2-4.92-24.2-11,10.84-11,24.2-11,24.19,4.92,24.19,11Z"/><path class="cls-1" d="M319.48,223.54c0,4.62-9.35,8.36-20.89,8.36s-20.9-3.74-20.9-8.36,9.36-8.35,20.9-8.35,20.89,3.74,20.89,8.35Z"/><path class="cls-3" d="M304.15,227.08a18.86,18.86,0,0,1-4,.48v-3.64c1.75.18,3.06.36,3.94.54,1.3.27,1.94.7,1.94,1.29s-.62,1-1.87,1.33Zm-10.69-5.4c-.9-.23-1.35-.56-1.35-1s.56-.89,1.68-1.18a15.82,15.82,0,0,1,3.25-.42v3.13a27.8,27.8,0,0,1-3.58-.52ZM308,223.9a15.52,15.52,0,0,0-3.71-1c-1.1-.16-2.5-.31-4.19-.47v-3.4c3.17.15,4.91.79,5.23,1.9h3.55q-.17-1.53-3-2.37a24.11,24.11,0,0,0-5.75-.81v-1.1H297v1.09a22.27,22.27,0,0,0-5.81.81c-1.79.56-2.68,1.27-2.68,2.14s.69,1.38,2.06,1.84a30.1,30.1,0,0,0,6.43,1.06v3.86a20.42,20.42,0,0,1-3.36-.5c-1.52-.39-2.38-1-2.57-1.78h-3.52c.1,1.07,1.11,1.94,3,2.61a22.71,22.71,0,0,0,6.41,1v1.1h3.1v-1.06a23.27,23.27,0,0,0,6.61-.91c1.89-.6,2.83-1.37,2.83-2.29,0-.73-.51-1.3-1.54-1.74Z"/><path class="cls-1" d="M294.19,203.31c-13.36,0-24.19,4.92-24.19,11v6.59c0,6.08,10.83,11,24.19,11s24.19-4.92,24.19-11v-6.59c0-6.08-10.83-11-24.19-11Z"/><path class="cls-2" d="M277.69,210.41V229a39.34,39.34,0,0,0,11,2.66V208.08a41.25,41.25,0,0,0-11,2.33Z"/><path class="cls-2" d="M299.69,208.08v23.53a39.36,39.36,0,0,0,11-2.66V210.41a41.17,41.17,0,0,0-11-2.33Z"/><path class="cls-3" d="M318.38,214.31c0,6.07-10.83,11-24.19,11s-24.19-4.92-24.19-11,10.83-11,24.19-11,24.19,4.92,24.19,11Z"/><path class="cls-1" d="M315.08,213.87c0,4.61-9.35,8.35-20.89,8.35s-20.9-3.74-20.9-8.35,9.36-8.36,20.9-8.36,20.89,3.74,20.89,8.36Z"/><path class="cls-3" d="M299.75,217.4a17.65,17.65,0,0,1-4,.48v-3.64c1.75.18,3.06.36,3.95.55,1.29.26,1.94.69,1.94,1.28s-.63,1-1.88,1.33ZM289.06,212c-.9-.22-1.35-.56-1.35-1s.56-.88,1.68-1.18a15.82,15.82,0,0,1,3.25-.42v3.13a27.8,27.8,0,0,1-3.58-.52Zm14.58,2.23a15.5,15.5,0,0,0-3.71-1c-1.1-.15-2.5-.31-4.19-.47v-3.4q4.75.22,5.23,1.91h3.56c-.12-1-1.13-1.82-3-2.38a23.59,23.59,0,0,0-5.75-.8V207h-3.1v1.08a22.13,22.13,0,0,0-5.8.81c-1.79.56-2.69,1.27-2.69,2.14s.69,1.39,2.06,1.85a31,31,0,0,0,6.43,1.05v3.86a19.56,19.56,0,0,1-3.36-.5c-1.52-.38-2.38-1-2.57-1.77h-3.52c.1,1.06,1.12,1.93,3,2.61a23.13,23.13,0,0,0,6.41,1v1.1h3.1v-1.06a23.62,23.62,0,0,0,6.61-.9c1.89-.61,2.83-1.38,2.83-2.3,0-.72-.51-1.3-1.54-1.73Z"/><path class="cls-1" d="M298.59,193.63c-13.36,0-24.2,4.93-24.2,11v6.6c0,6.07,10.84,11,24.2,11s24.19-4.92,24.19-11v-6.6c0-6.07-10.83-11-24.19-11Z"/><path class="cls-2" d="M282.09,200.73v18.54a39.33,39.33,0,0,0,11,2.67V198.4a41.64,41.64,0,0,0-11,2.33Z"/><path class="cls-2" d="M304.08,198.4v23.54a39.33,39.33,0,0,0,11-2.67V200.73a41.64,41.64,0,0,0-11-2.33Z"/><path class="cls-3" d="M322.78,204.63c0,6.07-10.83,11-24.19,11s-24.2-4.93-24.2-11,10.84-11,24.2-11,24.19,4.93,24.19,11Z"/><path class="cls-1" d="M319.48,204.19c0,4.62-9.35,8.36-20.89,8.36s-20.9-3.74-20.9-8.36,9.36-8.36,20.9-8.36,20.89,3.74,20.89,8.36Z"/><path class="cls-3" d="M304.15,207.73a18.3,18.3,0,0,1-4,.47v-3.63c1.75.18,3.06.36,3.94.54,1.3.27,1.94.7,1.94,1.29s-.62,1-1.87,1.33Zm-10.69-5.41c-.9-.22-1.35-.56-1.35-1s.56-.89,1.68-1.19a15.24,15.24,0,0,1,3.25-.41v3.12a27.8,27.8,0,0,1-3.58-.52ZM308,204.55a15.06,15.06,0,0,0-3.71-1c-1.1-.16-2.5-.32-4.19-.48v-3.4c3.17.16,4.91.79,5.23,1.91h3.55c-.11-1-1.12-1.81-3-2.38a24.69,24.69,0,0,0-5.75-.8v-1.1H297v1.09a22.27,22.27,0,0,0-5.81.81c-1.79.55-2.68,1.26-2.68,2.13s.69,1.39,2.06,1.85a29.6,29.6,0,0,0,6.43,1.05v3.86a18.49,18.49,0,0,1-3.36-.5c-1.52-.38-2.38-1-2.57-1.77h-3.52c.1,1.06,1.11,1.93,3,2.61a23.08,23.08,0,0,0,6.41,1v1.1h3.1v-1.06a23.27,23.27,0,0,0,6.61-.91c1.89-.61,2.83-1.37,2.83-2.29,0-.73-.51-1.31-1.54-1.74Z"/><path class="cls-1" d="M289.57,184c-13.36,0-24.19,4.92-24.19,11v6.6c0,6.07,10.83,11,24.19,11s24.19-4.93,24.19-11V195c0-6.07-10.83-11-24.19-11Z"/><path class="cls-2" d="M273.07,191.05v18.54a39,39,0,0,0,11,2.67V188.72a42,42,0,0,0-11,2.33Z"/><path class="cls-2" d="M295.07,188.72v23.54a38.83,38.83,0,0,0,11-2.67V191.05a42,42,0,0,0-11-2.33Z"/><path class="cls-3" d="M313.76,195c0,6.08-10.83,11-24.19,11s-24.19-4.92-24.19-11,10.83-11,24.19-11,24.19,4.92,24.19,11Z"/><path class="cls-1" d="M310.46,194.51c0,4.62-9.35,8.36-20.89,8.36s-20.89-3.74-20.89-8.36,9.35-8.36,20.89-8.36,20.89,3.75,20.89,8.36Z"/><path class="cls-3" d="M295.13,198.05a18.86,18.86,0,0,1-4,.48v-3.64c1.75.18,3.07.36,3.95.54,1.29.27,1.94.7,1.94,1.29s-.63,1-1.88,1.33Zm-10.69-5.4c-.9-.23-1.35-.56-1.35-1s.56-.89,1.68-1.18A15.16,15.16,0,0,1,288,190v3.12a28.57,28.57,0,0,1-3.58-.51ZM299,194.87a14.94,14.94,0,0,0-3.71-1c-1.1-.16-2.5-.31-4.19-.47v-3.4c3.17.15,4.91.79,5.23,1.9h3.56q-.18-1.53-3-2.37a24.13,24.13,0,0,0-5.76-.81v-1.1H288v1.09a22.13,22.13,0,0,0-5.8.81c-1.79.56-2.69,1.27-2.69,2.13s.69,1.39,2.07,1.85a30,30,0,0,0,6.42,1.06v3.86a19.51,19.51,0,0,1-3.36-.51c-1.52-.38-2.38-1-2.57-1.77h-3.52c.1,1.06,1.12,1.93,3,2.61a22.77,22.77,0,0,0,6.41,1v1.1h3.1v-1.06a23.22,23.22,0,0,0,6.61-.91c1.89-.61,2.84-1.37,2.84-2.29,0-.73-.52-1.31-1.55-1.74Z"/><path class="cls-1" d="M285.17,174.28c-13.36,0-24.19,4.92-24.19,11v6.59c0,6.08,10.83,11,24.19,11s24.19-4.92,24.19-11v-6.59c0-6.08-10.83-11-24.19-11Z"/><path class="cls-2" d="M268.68,181.38v18.53a38.91,38.91,0,0,0,11,2.67V179.05a41.17,41.17,0,0,0-11,2.33Z"/><path class="cls-2" d="M290.67,179.05v23.53a39,39,0,0,0,11-2.67V181.38a41.25,41.25,0,0,0-11-2.33Z"/><path class="cls-3" d="M309.36,185.28c0,6.07-10.83,11-24.19,11s-24.19-4.92-24.19-11,10.83-11,24.19-11,24.19,4.92,24.19,11Z"/><path class="cls-1" d="M306.06,184.83c0,4.62-9.35,8.36-20.89,8.36s-20.89-3.74-20.89-8.36,9.35-8.35,20.89-8.35,20.89,3.74,20.89,8.35Z"/><path class="cls-3" d="M290.73,188.37a17.65,17.65,0,0,1-4,.48v-3.64c1.75.18,3.07.36,3.95.54,1.29.27,1.94.7,1.94,1.29s-.63,1-1.88,1.33ZM280,183c-.9-.22-1.35-.56-1.35-1s.56-.89,1.68-1.18a15.82,15.82,0,0,1,3.25-.42v3.13A28.09,28.09,0,0,1,280,183Zm14.58,2.23a14.92,14.92,0,0,0-3.71-1c-1.1-.15-2.5-.31-4.19-.47v-3.4c3.17.15,4.92.79,5.23,1.91h3.56c-.11-1-1.13-1.82-3-2.38a24.13,24.13,0,0,0-5.76-.81V178h-3.1v1.08a22.19,22.19,0,0,0-5.8.81c-1.79.56-2.69,1.27-2.69,2.14s.69,1.38,2.07,1.85a30.91,30.91,0,0,0,6.42,1.05v3.86a20.29,20.29,0,0,1-3.35-.5c-1.53-.39-2.39-1-2.57-1.77h-3.53c.1,1.06,1.12,1.93,3.05,2.6a22.63,22.63,0,0,0,6.4,1v1.1h3.1v-1.06a23.62,23.62,0,0,0,6.61-.9c1.89-.61,2.84-1.38,2.84-2.3,0-.72-.52-1.3-1.55-1.73Z"/><path class="cls-1" d="M289.57,164.6c-13.36,0-24.19,4.92-24.19,11v6.6c0,6.07,10.83,11,24.19,11s24.19-4.92,24.19-11v-6.6c0-6.08-10.83-11-24.19-11Z"/><path class="cls-2" d="M273.07,171.7v18.54a39,39,0,0,0,11,2.66V169.37a41.25,41.25,0,0,0-11,2.33Z"/><path class="cls-2" d="M295.07,169.37V192.9a38.84,38.84,0,0,0,11-2.66V171.7a41.17,41.17,0,0,0-11-2.33Z"/><path class="cls-3" d="M313.76,175.6c0,6.07-10.83,11-24.19,11s-24.19-4.92-24.19-11,10.83-11,24.19-11,24.19,4.92,24.19,11Z"/><path class="cls-1" d="M310.46,175.16c0,4.61-9.35,8.36-20.89,8.36s-20.89-3.75-20.89-8.36,9.35-8.36,20.89-8.36,20.89,3.74,20.89,8.36Z"/><path class="cls-3" d="M295.13,178.69a17.65,17.65,0,0,1-4,.48v-3.64a39.78,39.78,0,0,1,3.95.55c1.29.27,1.94.69,1.94,1.28s-.63,1-1.88,1.33Zm-10.69-5.4c-.9-.22-1.35-.56-1.35-1s.56-.88,1.68-1.18a15.82,15.82,0,0,1,3.25-.42v3.13a28.09,28.09,0,0,1-3.58-.52ZM299,175.52a15.37,15.37,0,0,0-3.71-1c-1.1-.15-2.5-.31-4.19-.47v-3.4c3.17.16,4.91.79,5.23,1.91h3.56c-.12-1-1.13-1.82-3-2.38a24.18,24.18,0,0,0-5.76-.8v-1.1H288v1.08a22.51,22.51,0,0,0-5.8.82c-1.79.55-2.69,1.26-2.69,2.13s.69,1.39,2.07,1.85a30.78,30.78,0,0,0,6.42,1.05v3.86a19.56,19.56,0,0,1-3.36-.5c-1.52-.38-2.38-1-2.57-1.77h-3.52c.1,1.06,1.12,1.93,3,2.61a23.53,23.53,0,0,0,6.41,1v1.1h3.1v-1.07a22.9,22.9,0,0,0,6.61-.9c1.89-.61,2.84-1.37,2.84-2.3,0-.72-.52-1.3-1.55-1.73Z"/><path class="cls-1" d="M231.79,217.58c-13.36,0-24.19,4.92-24.19,11v6.59c0,6.08,10.83,11,24.19,11s24.2-4.92,24.2-11v-6.59c0-6.08-10.83-11-24.2-11Z"/><path class="cls-2" d="M215.3,224.68v18.54a39.34,39.34,0,0,0,11,2.66V222.35a41.25,41.25,0,0,0-11,2.33Z"/><path class="cls-2" d="M237.29,222.35v23.53a39.34,39.34,0,0,0,11-2.66V224.68a41.25,41.25,0,0,0-11-2.33Z"/><path class="cls-3" d="M256,228.58c0,6.07-10.83,11-24.2,11s-24.19-4.92-24.19-11,10.83-11,24.19-11,24.2,4.92,24.2,11Z"/><path class="cls-1" d="M252.69,228.14c0,4.61-9.36,8.35-20.9,8.35s-20.89-3.74-20.89-8.35,9.35-8.36,20.89-8.36,20.9,3.74,20.9,8.36Z"/><path class="cls-3" d="M237.36,231.67a17.65,17.65,0,0,1-4,.48v-3.64c1.74.18,3.06.36,3.94.55,1.3.26,1.94.69,1.94,1.28s-.62,1-1.87,1.33Zm-10.7-5.4c-.89-.22-1.34-.56-1.34-1s.56-.88,1.67-1.18a15.92,15.92,0,0,1,3.25-.42v3.13a28.39,28.39,0,0,1-3.58-.52Zm14.59,2.23a15.5,15.5,0,0,0-3.71-1c-1.1-.15-2.5-.31-4.19-.47v-3.4q4.76.22,5.22,1.91h3.56c-.11-1-1.12-1.82-3-2.38a24.11,24.11,0,0,0-5.75-.81V221.3h-3.11v1.08a22.62,22.62,0,0,0-5.8.81c-1.79.56-2.68,1.27-2.68,2.14s.68,1.38,2.06,1.85a30.91,30.91,0,0,0,6.42,1v3.86a20.29,20.29,0,0,1-3.35-.5c-1.53-.38-2.38-1-2.57-1.77H220.8c.1,1.06,1.11,1.93,3,2.6a22.69,22.69,0,0,0,6.4,1v1.1h3.11v-1.06a23.68,23.68,0,0,0,6.61-.9c1.89-.61,2.83-1.38,2.83-2.3,0-.72-.51-1.3-1.54-1.73Z"/><path class="cls-1" d="M231.79,207.9c-13.36,0-24.19,4.93-24.19,11v6.6c0,6.07,10.83,11,24.19,11s24.2-4.92,24.2-11v-6.6c0-6.07-10.83-11-24.2-11Z"/><path class="cls-2" d="M215.3,215v18.54a39.33,39.33,0,0,0,11,2.67V212.67a41.64,41.64,0,0,0-11,2.33Z"/><path class="cls-2" d="M237.29,212.67v23.54a39.33,39.33,0,0,0,11-2.67V215a41.64,41.64,0,0,0-11-2.33Z"/><path class="cls-3" d="M256,218.9c0,6.07-10.83,11-24.2,11s-24.19-4.93-24.19-11,10.83-11,24.19-11,24.2,4.93,24.2,11Z"/><path class="cls-1" d="M252.69,218.46c0,4.61-9.36,8.36-20.9,8.36s-20.89-3.75-20.89-8.36,9.35-8.36,20.89-8.36,20.9,3.74,20.9,8.36Z"/><path class="cls-3" d="M237.36,222a17.65,17.65,0,0,1-4,.48v-3.63c1.74.17,3.06.36,3.94.54,1.3.27,1.94.7,1.94,1.28s-.62,1-1.87,1.33Zm-10.7-5.4c-.89-.22-1.34-.56-1.34-1s.56-.89,1.67-1.19a15.33,15.33,0,0,1,3.25-.41v3.12a28.39,28.39,0,0,1-3.58-.52Zm14.59,2.23a15.06,15.06,0,0,0-3.71-.95c-1.1-.16-2.5-.32-4.19-.48V214c3.17.16,4.91.79,5.22,1.91h3.56c-.11-1-1.12-1.81-3-2.38a24.69,24.69,0,0,0-5.75-.8v-1.1h-3.11v1.08a22.58,22.58,0,0,0-5.8.82c-1.79.55-2.68,1.26-2.68,2.13s.68,1.39,2.06,1.85a30.24,30.24,0,0,0,6.42,1.05v3.86a19.29,19.29,0,0,1-3.35-.5c-1.53-.38-2.38-1-2.57-1.77H220.8c.1,1.06,1.11,1.93,3,2.61a23.06,23.06,0,0,0,6.4,1v1.1h3.11v-1.06a23.27,23.27,0,0,0,6.61-.91c1.89-.61,2.83-1.37,2.83-2.29,0-.73-.51-1.31-1.54-1.74Z"/><path class="cls-1" d="M231.79,198.23c-13.36,0-24.19,4.92-24.19,11v6.6c0,6.07,10.83,11,24.19,11s24.2-4.93,24.2-11v-6.6c0-6.07-10.83-11-24.2-11Z"/><path class="cls-2" d="M215.3,205.32v18.54a39,39,0,0,0,11,2.67V203a42,42,0,0,0-11,2.33Z"/><path class="cls-2" d="M237.29,203v23.54a39,39,0,0,0,11-2.67V205.32a42,42,0,0,0-11-2.33Z"/><path class="cls-3" d="M256,209.22c0,6.08-10.83,11-24.2,11s-24.19-4.92-24.19-11,10.83-11,24.19-11,24.2,4.92,24.2,11Z"/><path class="cls-1" d="M252.69,208.78c0,4.62-9.36,8.36-20.9,8.36s-20.89-3.74-20.89-8.36,9.35-8.36,20.89-8.36,20.9,3.75,20.9,8.36Z"/><path class="cls-3" d="M237.36,212.32a18.3,18.3,0,0,1-4,.47v-3.63c1.74.18,3.06.36,3.94.54,1.3.27,1.94.7,1.94,1.29s-.62,1-1.87,1.33Zm-10.7-5.4c-.89-.23-1.34-.56-1.34-1s.56-.89,1.67-1.19a16,16,0,0,1,3.25-.41v3.12a28.87,28.87,0,0,1-3.58-.51Zm14.59,2.22a15.06,15.06,0,0,0-3.71-.95c-1.1-.16-2.5-.32-4.19-.47v-3.4c3.17.15,4.91.79,5.22,1.9h3.56q-.16-1.53-3-2.37a24.11,24.11,0,0,0-5.75-.81v-1.1h-3.11V203a22.19,22.19,0,0,0-5.8.81c-1.79.56-2.68,1.27-2.68,2.13s.68,1.39,2.06,1.85a30.1,30.1,0,0,0,6.42,1.06v3.86a19.23,19.23,0,0,1-3.35-.51c-1.53-.38-2.38-1-2.57-1.77H220.8c.1,1.06,1.11,1.93,3,2.61a22.69,22.69,0,0,0,6.4,1v1.1h3.11v-1.06a23.27,23.27,0,0,0,6.61-.91c1.89-.61,2.83-1.37,2.83-2.29,0-.73-.51-1.31-1.54-1.74Z"/><path class="cls-1" d="M227.4,188.55c-13.37,0-24.2,4.92-24.2,11v6.6c0,6.08,10.83,11,24.2,11s24.19-4.92,24.19-11v-6.6c0-6.07-10.83-11-24.19-11Z"/><path class="cls-2" d="M210.9,195.64v18.54a39,39,0,0,0,11,2.67V193.32a41.66,41.66,0,0,0-11,2.32Z"/><path class="cls-2" d="M232.89,193.32v23.53a39,39,0,0,0,11-2.67V195.64a41.66,41.66,0,0,0-11-2.32Z"/><path class="cls-3" d="M251.59,199.54c0,6.08-10.83,11-24.19,11s-24.2-4.92-24.2-11,10.83-11,24.2-11,24.19,4.92,24.19,11Z"/><path class="cls-1" d="M248.29,199.1c0,4.62-9.36,8.36-20.89,8.36s-20.9-3.74-20.9-8.36,9.36-8.35,20.9-8.35,20.89,3.74,20.89,8.35Z"/><path class="cls-3" d="M233,202.64a17.65,17.65,0,0,1-4,.48v-3.64c1.75.18,3.06.36,3.94.54,1.3.27,1.94.7,1.94,1.29s-.62,1-1.87,1.33Zm-10.7-5.4c-.89-.22-1.34-.56-1.34-1s.56-.88,1.67-1.18a15.92,15.92,0,0,1,3.25-.42v3.13a28.39,28.39,0,0,1-3.58-.52Zm14.59,2.23a15,15,0,0,0-3.71-1c-1.1-.15-2.5-.31-4.19-.47v-3.4q4.76.23,5.22,1.91h3.56c-.11-1-1.12-1.82-3-2.38a24.11,24.11,0,0,0-5.75-.81v-1.09h-3.11v1.08a22.26,22.26,0,0,0-5.8.81c-1.79.56-2.68,1.27-2.68,2.14s.69,1.38,2.06,1.85a30.91,30.91,0,0,0,6.42,1v3.86a20.46,20.46,0,0,1-3.35-.5c-1.52-.39-2.38-1-2.57-1.78H216.4c.1,1.07,1.11,1.94,3,2.61a22.69,22.69,0,0,0,6.4,1v1.1H229V204.4a23.68,23.68,0,0,0,6.61-.9c1.89-.61,2.83-1.38,2.83-2.3,0-.72-.51-1.3-1.54-1.73Z"/><path class="cls-1" d="M231.79,178.87c-13.36,0-24.19,4.92-24.19,11v6.6c0,6.07,10.83,11,24.19,11s24.2-4.92,24.2-11v-6.6c0-6.08-10.83-11-24.2-11Z"/><path class="cls-2" d="M215.3,186v18.54a39,39,0,0,0,11,2.66V183.64a41.25,41.25,0,0,0-11,2.33Z"/><path class="cls-2" d="M237.29,183.64v23.53a39,39,0,0,0,11-2.66V186a41.25,41.25,0,0,0-11-2.33Z"/><path class="cls-3" d="M256,189.87c0,6.07-10.83,11-24.2,11s-24.19-4.92-24.19-11,10.83-11,24.19-11,24.2,4.92,24.2,11Z"/><path class="cls-1" d="M252.69,189.43c0,4.61-9.36,8.36-20.9,8.36S210.9,194,210.9,189.43s9.35-8.36,20.89-8.36,20.9,3.74,20.9,8.36Z"/><path class="cls-3" d="M237.36,193a17.65,17.65,0,0,1-4,.48V189.8c1.74.18,3.06.36,3.94.55,1.3.27,1.94.69,1.94,1.28s-.62,1-1.87,1.33Zm-10.7-5.4c-.89-.22-1.34-.56-1.34-1s.56-.88,1.67-1.18a15.92,15.92,0,0,1,3.25-.42v3.13a28.39,28.39,0,0,1-3.58-.52Zm14.59,2.23a15.5,15.5,0,0,0-3.71-1c-1.1-.15-2.5-.31-4.19-.47V185c3.17.16,4.91.79,5.22,1.91h3.56c-.11-1-1.12-1.82-3-2.38a24.16,24.16,0,0,0-5.75-.8v-1.1h-3.11v1.08a22.58,22.58,0,0,0-5.8.82c-1.79.55-2.68,1.26-2.68,2.13s.68,1.39,2.06,1.85a30.91,30.91,0,0,0,6.42,1.05v3.86a19.29,19.29,0,0,1-3.35-.5c-1.53-.38-2.38-1-2.57-1.77H220.8c.1,1.06,1.11,1.93,3,2.61a23.44,23.44,0,0,0,6.4,1v1.1h3.11v-1.07a23.31,23.31,0,0,0,6.61-.9c1.89-.61,2.83-1.38,2.83-2.3,0-.72-.51-1.3-1.54-1.73Z"/><path class="cls-1" d="M222.78,169.19c-13.36,0-24.2,4.93-24.2,11v6.6c0,6.07,10.84,11,24.2,11s24.19-4.93,24.19-11v-6.6c0-6.07-10.83-11-24.19-11Z"/><path class="cls-2" d="M206.28,176.29v18.54a39.33,39.33,0,0,0,11,2.67V174a41.64,41.64,0,0,0-11,2.33Z"/><path class="cls-2" d="M228.28,174V197.5a39.34,39.34,0,0,0,11-2.67V176.29a41.65,41.65,0,0,0-11-2.33Z"/><path class="cls-3" d="M247,180.19c0,6.07-10.83,11-24.19,11s-24.2-4.93-24.2-11,10.84-11,24.2-11,24.19,4.93,24.19,11Z"/><path class="cls-1" d="M243.67,179.75c0,4.62-9.35,8.36-20.89,8.36s-20.9-3.74-20.9-8.36,9.36-8.36,20.9-8.36,20.89,3.75,20.89,8.36Z"/><path class="cls-3" d="M228.34,183.29a18.3,18.3,0,0,1-4,.47v-3.63c1.75.18,3.06.36,3.95.54,1.29.27,1.93.7,1.93,1.29s-.62,1-1.87,1.33Zm-10.69-5.4c-.9-.23-1.35-.56-1.35-1s.56-.89,1.68-1.19a15.24,15.24,0,0,1,3.25-.41v3.12a28.27,28.27,0,0,1-3.58-.51Zm14.58,2.22a15.06,15.06,0,0,0-3.71-1c-1.1-.16-2.5-.32-4.19-.48v-3.39q4.75.22,5.23,1.9h3.55q-.17-1.53-3-2.37a24.11,24.11,0,0,0-5.75-.81v-1.1h-3.1V174a22.27,22.27,0,0,0-5.81.81c-1.79.55-2.68,1.27-2.68,2.13s.69,1.39,2.06,1.85a30.1,30.1,0,0,0,6.43,1.06v3.85a18.62,18.62,0,0,1-3.36-.5c-1.52-.38-2.38-1-2.57-1.77h-3.52c.1,1.06,1.11,1.93,3,2.61a23.08,23.08,0,0,0,6.41,1v1.1h3.1v-1.06a23.27,23.27,0,0,0,6.61-.91c1.89-.61,2.83-1.37,2.83-2.29,0-.73-.51-1.31-1.54-1.74Z"/><path class="cls-1" d="M218.38,159.52c-13.36,0-24.19,4.92-24.19,11v6.6c0,6.07,10.83,11,24.19,11s24.19-4.93,24.19-11v-6.6c0-6.07-10.83-11-24.19-11Z"/><path class="cls-2" d="M201.88,166.61v18.54a39,39,0,0,0,11,2.67V164.28a42,42,0,0,0-11,2.33Z"/><path class="cls-2" d="M223.88,164.28v23.54a39,39,0,0,0,11-2.67V166.61a42,42,0,0,0-11-2.33Z"/><path class="cls-3" d="M242.57,170.51c0,6.08-10.83,11-24.19,11s-24.19-4.92-24.19-11,10.83-11,24.19-11,24.19,4.92,24.19,11Z"/><path class="cls-1" d="M239.27,170.07c0,4.62-9.35,8.36-20.89,8.36s-20.9-3.74-20.9-8.36,9.36-8.35,20.9-8.35,20.89,3.74,20.89,8.35Z"/><path class="cls-3" d="M223.94,173.61a18.86,18.86,0,0,1-4,.48v-3.64c1.75.18,3.06.36,3.95.54,1.29.27,1.94.7,1.94,1.29s-.63,1-1.88,1.33Zm-10.69-5.4c-.9-.23-1.35-.56-1.35-1s.56-.89,1.68-1.18a15.82,15.82,0,0,1,3.25-.42v3.13a27.8,27.8,0,0,1-3.58-.52Zm14.58,2.22a15.52,15.52,0,0,0-3.71-1c-1.1-.16-2.5-.31-4.19-.47v-3.4c3.17.15,4.91.79,5.23,1.9h3.56c-.12-1-1.13-1.81-3-2.37a24,24,0,0,0-5.75-.81v-1.1h-3.1v1.09a22.13,22.13,0,0,0-5.8.81c-1.79.56-2.69,1.27-2.69,2.14s.69,1.38,2.06,1.84a30.22,30.22,0,0,0,6.43,1.06V174a20.59,20.59,0,0,1-3.36-.5c-1.52-.39-2.38-1-2.57-1.78h-3.52c.1,1.07,1.12,1.94,3,2.61a22.71,22.71,0,0,0,6.41,1v1.1h3.1v-1.06a23.22,23.22,0,0,0,6.61-.91c1.89-.6,2.83-1.37,2.83-2.29,0-.73-.51-1.3-1.54-1.74Z"/><path class="cls-1" d="M222.78,149.84c-13.36,0-24.2,4.92-24.2,11v6.59c0,6.08,10.84,11,24.2,11s24.19-4.92,24.19-11v-6.59c0-6.08-10.83-11-24.19-11Z"/><path class="cls-2" d="M206.28,156.94v18.54a39.34,39.34,0,0,0,11,2.66V154.61a41.25,41.25,0,0,0-11,2.33Z"/><path class="cls-2" d="M228.28,154.61v23.53a39.36,39.36,0,0,0,11-2.66V156.94a41.26,41.26,0,0,0-11-2.33Z"/><path class="cls-3" d="M247,160.84c0,6.07-10.83,11-24.19,11s-24.2-4.92-24.2-11,10.84-11,24.2-11,24.19,4.92,24.19,11Z"/><path class="cls-1" d="M243.67,160.4c0,4.61-9.35,8.35-20.89,8.35s-20.9-3.74-20.9-8.35,9.36-8.36,20.9-8.36,20.89,3.74,20.89,8.36Z"/><path class="cls-3" d="M228.34,163.93a17.65,17.65,0,0,1-4,.48v-3.64c1.75.18,3.06.36,3.95.55,1.29.26,1.93.69,1.93,1.28s-.62,1-1.87,1.33Zm-10.69-5.4c-.9-.22-1.35-.56-1.35-1s.56-.88,1.68-1.18a15.82,15.82,0,0,1,3.25-.42v3.13a27.8,27.8,0,0,1-3.58-.52Zm14.58,2.23a15.5,15.5,0,0,0-3.71-1c-1.1-.15-2.5-.31-4.19-.47v-3.4q4.75.23,5.23,1.91h3.55c-.11-1-1.12-1.82-3-2.38a23.66,23.66,0,0,0-5.75-.8v-1.1h-3.1v1.08a22.23,22.23,0,0,0-5.81.82c-1.79.55-2.68,1.26-2.68,2.13s.69,1.39,2.06,1.85a30.91,30.91,0,0,0,6.43,1.05v3.86a19.56,19.56,0,0,1-3.36-.5c-1.52-.38-2.38-1-2.57-1.77h-3.52c.1,1.06,1.11,1.93,3,2.61a23.13,23.13,0,0,0,6.41,1v1.1h3.1v-1.06a23.68,23.68,0,0,0,6.61-.9c1.89-.61,2.83-1.38,2.83-2.3,0-.72-.51-1.3-1.54-1.73Z"/><path class="cls-1" d="M312.1,145.79c-11.57-6.68-23.41-7.83-26.45-2.57l-3.3,5.71c-3,5.26,3.89,14.94,15.46,21.62s23.41,7.84,26.45,2.58l3.3-5.72c3-5.26-3.89-14.94-15.46-21.62Z"/><path class="cls-2" d="M294.27,143.69,285,159.75a39,39,0,0,0,8.19,7.8L305,147.17a41.71,41.71,0,0,0-10.69-3.48Z"/><path class="cls-2" d="M314.48,152.67l-11.77,20.38a39,39,0,0,0,10.86,3.19l9.27-16.05a41.44,41.44,0,0,0-8.36-7.52Z"/><path class="cls-3" d="M327.56,167.41c-3,5.26-14.88,4.11-26.45-2.57s-18.49-16.36-15.46-21.62,14.88-4.11,26.45,2.57,18.49,16.36,15.46,21.62Z"/><path class="cls-1" d="M324.92,165.38c-2.31,4-12.28,2.56-22.27-3.21s-16.23-13.69-13.92-17.68S301,141.93,311,147.7s16.23,13.68,13.92,17.68Z"/><path class="cls-3" d="M309.88,160.78a18.31,18.31,0,0,1-3.72-1.59L308,156c1.42,1,2.47,1.84,3.15,2.44,1,.88,1.33,1.57,1,2.08s-1,.56-2.28.22Zm-6.57-10c-.66-.64-.88-1.15-.66-1.54s.93-.49,2-.19a16,16,0,0,1,3,1.26L306.15,153a29,29,0,0,1-2.84-2.24ZM314.83,160a15.22,15.22,0,0,0-2.74-2.68c-.87-.68-2-1.52-3.39-2.5l1.7-2.95q4,2.58,3.57,4.27l3.09,1.78q.62-1.42-1.44-3.58a24.34,24.34,0,0,0-4.58-3.57l.55-1-2.69-1.55-.54.94a22.26,22.26,0,0,0-5.43-2.2c-1.83-.42-3-.25-3.39.5s-.1,1.55.86,2.64a30.61,30.61,0,0,0,5,4.12l-1.93,3.34a19.63,19.63,0,0,1-2.65-2.11c-1.13-1.09-1.58-2-1.34-2.82l-3.05-1.76q-.66,1.46,1.33,3.78a23.11,23.11,0,0,0,5.06,4l-.55.95,2.69,1.56.53-.92a23.35,23.35,0,0,0,6.18,2.52q2.91.63,3.6-.57c.36-.63.21-1.39-.47-2.28Z"/><path class="cls-1" d="M252.85,222.75c-13.36,0-24.19,4.93-24.19,11v6.6c0,6.07,10.83,11,24.19,11s24.2-4.93,24.2-11v-6.6c0-6.07-10.84-11-24.2-11Z"/><path class="cls-2" d="M236.36,229.85v18.54a39.34,39.34,0,0,0,11,2.67V227.52a41.65,41.65,0,0,0-11,2.33Z"/><path class="cls-2" d="M258.35,227.52v23.54a39.33,39.33,0,0,0,11-2.67V229.85a41.64,41.64,0,0,0-11-2.33Z"/><path class="cls-3" d="M277.05,233.75c0,6.07-10.84,11-24.2,11s-24.19-4.93-24.19-11,10.83-11,24.19-11,24.2,4.93,24.2,11Z"/><path class="cls-1" d="M273.75,233.31c0,4.62-9.36,8.36-20.9,8.36S232,237.93,232,233.31s9.35-8.36,20.89-8.36,20.9,3.75,20.9,8.36Z"/><path class="cls-3" d="M258.42,236.85a18.48,18.48,0,0,1-4,.47v-3.63c1.75.18,3.07.36,4,.54,1.29.27,1.94.7,1.94,1.29s-.62,1-1.87,1.33Zm-10.7-5.4c-.9-.23-1.35-.56-1.35-1s.56-.89,1.68-1.19a15.24,15.24,0,0,1,3.25-.41V232a28.57,28.57,0,0,1-3.58-.51Zm14.59,2.22a15.06,15.06,0,0,0-3.71-.95c-1.11-.16-2.5-.32-4.2-.48v-3.39c3.17.15,4.92.78,5.23,1.9h3.56q-.17-1.53-3-2.37a24.13,24.13,0,0,0-5.76-.81v-1.1h-3.1v1.09a22.19,22.19,0,0,0-5.8.81c-1.79.55-2.68,1.27-2.68,2.13s.68,1.39,2.06,1.85a30.1,30.1,0,0,0,6.42,1.06v3.85a18.37,18.37,0,0,1-3.35-.5c-1.53-.38-2.38-1-2.57-1.77h-3.52c.1,1.06,1.11,1.93,3,2.61a23,23,0,0,0,6.4,1v1.1h3.1v-1.06a23.3,23.3,0,0,0,6.62-.91c1.88-.61,2.83-1.37,2.83-2.29,0-.73-.52-1.31-1.54-1.74Z"/><path class="cls-1" d="M252.85,263.89c-13.36,0-24.19,4.92-24.19,11v6.6c0,6.07,10.83,11,24.19,11s24.2-4.93,24.2-11v-6.6c0-6.07-10.84-11-24.2-11Z"/><path class="cls-2" d="M236.36,271v18.54a39,39,0,0,0,11,2.67V268.65a42.05,42.05,0,0,0-11,2.33Z"/><path class="cls-2" d="M258.35,268.65v23.54a39,39,0,0,0,11-2.67V271a42,42,0,0,0-11-2.33Z"/><path class="cls-3" d="M277.05,274.88c0,6.08-10.84,11-24.2,11s-24.19-4.92-24.19-11,10.83-11,24.19-11,24.2,4.92,24.2,11Z"/><path class="cls-1" d="M273.75,274.44c0,4.62-9.36,8.36-20.9,8.36S232,279.06,232,274.44s9.35-8.35,20.89-8.35,20.9,3.74,20.9,8.35Z"/><path class="cls-3" d="M258.42,278a19.05,19.05,0,0,1-4,.48v-3.64c1.75.18,3.07.36,4,.54,1.29.27,1.94.7,1.94,1.29s-.62,1-1.87,1.33Zm-10.7-5.4c-.9-.23-1.35-.56-1.35-1s.56-.89,1.68-1.18a15.82,15.82,0,0,1,3.25-.42v3.12a26.77,26.77,0,0,1-3.58-.51Zm14.59,2.22a15.06,15.06,0,0,0-3.71-.95c-1.11-.16-2.5-.31-4.2-.47V270c3.17.15,4.92.79,5.23,1.9h3.56q-.17-1.53-3-2.37a24.13,24.13,0,0,0-5.76-.81v-1.1h-3.1v1.09a22.19,22.19,0,0,0-5.8.81c-1.79.56-2.68,1.27-2.68,2.14s.68,1.38,2.06,1.84a30.1,30.1,0,0,0,6.42,1.06v3.86a19.23,19.23,0,0,1-3.35-.51c-1.53-.38-2.38-1-2.57-1.77h-3.52c.1,1.06,1.11,1.93,3,2.61a22.63,22.63,0,0,0,6.4,1v1.1h3.1v-1.06a23.3,23.3,0,0,0,6.62-.91c1.88-.61,2.83-1.37,2.83-2.29,0-.73-.52-1.31-1.54-1.74Z"/><path class="cls-1" d="M252.85,203.4c-13.36,0-24.19,4.92-24.19,11V221c0,6.08,10.83,11,24.19,11s24.2-4.92,24.2-11V214.4c0-6.08-10.84-11-24.2-11Z"/><path class="cls-2" d="M236.36,210.5V229a39.36,39.36,0,0,0,11,2.66V208.17a41.26,41.26,0,0,0-11,2.33Z"/><path class="cls-2" d="M258.35,208.17V231.7a39.34,39.34,0,0,0,11-2.66V210.5a41.25,41.25,0,0,0-11-2.33Z"/><path class="cls-3" d="M277.05,214.4c0,6.07-10.84,11-24.2,11s-24.19-4.92-24.19-11,10.83-11,24.19-11,24.2,4.92,24.2,11Z"/><path class="cls-1" d="M273.75,214c0,4.61-9.36,8.35-20.9,8.35S232,218.57,232,214s9.35-8.36,20.89-8.36,20.9,3.74,20.9,8.36Z"/><path class="cls-3" d="M258.42,217.49a17.82,17.82,0,0,1-4,.48v-3.64a39.78,39.78,0,0,1,4,.55c1.29.26,1.94.69,1.94,1.28s-.62,1-1.87,1.33Zm-10.7-5.4c-.9-.22-1.35-.56-1.35-1s.56-.88,1.68-1.18a15.82,15.82,0,0,1,3.25-.42v3.13a28.09,28.09,0,0,1-3.58-.52Zm14.59,2.23a15.5,15.5,0,0,0-3.71-1c-1.11-.15-2.5-.31-4.2-.47v-3.4c3.17.15,4.92.79,5.23,1.91h3.56c-.11-1-1.12-1.82-3-2.38a23.68,23.68,0,0,0-5.76-.8v-1.1h-3.1v1.08a22.15,22.15,0,0,0-5.8.82c-1.79.55-2.68,1.26-2.68,2.13s.68,1.39,2.06,1.85a30.91,30.91,0,0,0,6.42,1.05v3.86a19.29,19.29,0,0,1-3.35-.5c-1.53-.38-2.38-1-2.57-1.77h-3.52c.1,1.06,1.11,1.93,3,2.61a23.38,23.38,0,0,0,6.4,1v1.09h3.1v-1.06a23.7,23.7,0,0,0,6.62-.9c1.88-.61,2.83-1.38,2.83-2.3,0-.72-.52-1.3-1.54-1.73Z"/><path class="cls-1" d="M248.45,193.72c-13.36,0-24.19,4.93-24.19,11v6.6c0,6.07,10.83,11,24.19,11s24.2-4.92,24.2-11v-6.6c0-6.07-10.83-11-24.2-11Z"/><path class="cls-2" d="M232,200.82v18.54A39.33,39.33,0,0,0,243,222V198.49a41.64,41.64,0,0,0-11,2.33Z"/><path class="cls-2" d="M254,198.49V222a39.33,39.33,0,0,0,11-2.67V200.82a41.64,41.64,0,0,0-11-2.33Z"/><path class="cls-3" d="M272.65,204.72c0,6.07-10.83,11-24.2,11s-24.19-4.93-24.19-11,10.83-11,24.19-11,24.2,4.93,24.2,11Z"/><path class="cls-1" d="M269.35,204.28c0,4.62-9.36,8.36-20.9,8.36s-20.89-3.74-20.89-8.36,9.35-8.36,20.89-8.36,20.9,3.74,20.9,8.36Z"/><path class="cls-3" d="M254,207.82a18.38,18.38,0,0,1-4,.47v-3.63c1.74.18,3.06.36,3.94.54,1.3.27,1.94.7,1.94,1.29s-.62,1-1.87,1.33Zm-10.7-5.41c-.89-.22-1.34-.56-1.34-1s.56-.89,1.67-1.19a15.33,15.33,0,0,1,3.25-.41v3.12a28.39,28.39,0,0,1-3.58-.52Zm14.59,2.23a15.06,15.06,0,0,0-3.71-.95c-1.11-.16-2.5-.32-4.19-.48v-3.4c3.17.16,4.91.79,5.22,1.91h3.56c-.11-1-1.12-1.81-3-2.38a24.69,24.69,0,0,0-5.75-.8v-1.1H246.9v1.09a22.19,22.19,0,0,0-5.8.81c-1.79.55-2.68,1.26-2.68,2.13s.68,1.39,2.06,1.85a29.6,29.6,0,0,0,6.42,1.05v3.86a18.37,18.37,0,0,1-3.35-.5c-1.53-.38-2.38-1-2.57-1.77h-3.52c.1,1.06,1.11,1.93,3,2.61a23.06,23.06,0,0,0,6.4,1v1.1H250v-1.06a23.27,23.27,0,0,0,6.61-.91c1.89-.61,2.83-1.37,2.83-2.29,0-.73-.51-1.31-1.54-1.74Z"/><path class="cls-1" d="M252.85,184.05c-13.36,0-24.19,4.92-24.19,11v6.6c0,6.07,10.83,11,24.19,11s24.2-4.93,24.2-11V195c0-6.07-10.84-11-24.2-11Z"/><path class="cls-2" d="M236.36,191.14v18.54a39,39,0,0,0,11,2.67V188.81a42.05,42.05,0,0,0-11,2.33Z"/><path class="cls-2" d="M258.35,188.81v23.54a39,39,0,0,0,11-2.67V191.14a42,42,0,0,0-11-2.33Z"/><path class="cls-3" d="M277.05,195c0,6.08-10.84,11-24.2,11s-24.19-4.92-24.19-11,10.83-11,24.19-11,24.2,4.92,24.2,11Z"/><path class="cls-1" d="M273.75,194.6c0,4.62-9.36,8.36-20.9,8.36S232,199.22,232,194.6s9.35-8.36,20.89-8.36,20.9,3.75,20.9,8.36Z"/><path class="cls-3" d="M258.42,198.14a19.05,19.05,0,0,1-4,.48V195c1.75.18,3.07.36,4,.54,1.29.27,1.94.7,1.94,1.29s-.62,1-1.87,1.33Zm-10.7-5.4c-.9-.23-1.35-.56-1.35-1s.56-.89,1.68-1.18a15.16,15.16,0,0,1,3.25-.42v3.12a28.57,28.57,0,0,1-3.58-.51ZM262.31,195a15.06,15.06,0,0,0-3.71-1c-1.11-.16-2.5-.31-4.2-.47v-3.4c3.17.15,4.92.79,5.23,1.9h3.56q-.17-1.53-3-2.37a24.13,24.13,0,0,0-5.76-.81v-1.1h-3.1v1.09a22.19,22.19,0,0,0-5.8.81c-1.79.56-2.68,1.27-2.68,2.14s.68,1.38,2.06,1.84a30.1,30.1,0,0,0,6.42,1.06v3.86a19.23,19.23,0,0,1-3.35-.51c-1.53-.38-2.38-1-2.57-1.77h-3.52c.1,1.06,1.11,1.93,3,2.61a22.63,22.63,0,0,0,6.4,1V201h3.1V199.9A23.3,23.3,0,0,0,261,199c1.88-.61,2.83-1.37,2.83-2.29,0-.73-.52-1.31-1.54-1.74Z"/><path class="cls-1" d="M315.45,265.5c-13.36,0-24.19,4.92-24.19,11v6.59c0,6.08,10.83,11,24.19,11s24.19-4.92,24.19-11V276.5c0-6.08-10.83-11-24.19-11Z"/><path class="cls-2" d="M299,272.6v18.53a38.91,38.91,0,0,0,11,2.67V270.27a41.17,41.17,0,0,0-11,2.33Z"/><path class="cls-2" d="M321,270.27V293.8a39,39,0,0,0,11-2.67V272.6a41.25,41.25,0,0,0-11-2.33Z"/><path class="cls-3" d="M339.64,276.5c0,6.07-10.83,11-24.19,11s-24.19-4.92-24.19-11,10.83-11,24.19-11,24.19,4.92,24.19,11Z"/><path class="cls-1" d="M336.35,276.06c0,4.61-9.36,8.35-20.9,8.35s-20.89-3.74-20.89-8.35,9.35-8.36,20.89-8.36,20.9,3.74,20.9,8.36Z"/><path class="cls-3" d="M321,279.59a17.82,17.82,0,0,1-4,.48v-3.64A39.78,39.78,0,0,1,321,277c1.29.26,1.94.69,1.94,1.28s-.63,1-1.87,1.33Zm-10.7-5.4c-.9-.22-1.35-.56-1.35-1s.56-.88,1.68-1.18a15.82,15.82,0,0,1,3.25-.42v3.13a28.09,28.09,0,0,1-3.58-.52Zm14.58,2.23a15.37,15.37,0,0,0-3.71-1c-1.1-.15-2.5-.31-4.19-.47v-3.4c3.17.15,4.92.79,5.23,1.91h3.56c-.11-1-1.12-1.82-3-2.38a24.13,24.13,0,0,0-5.76-.81v-1.09h-3.1v1.08a22.19,22.19,0,0,0-5.8.81c-1.79.56-2.69,1.27-2.69,2.14s.69,1.38,2.07,1.85a30.91,30.91,0,0,0,6.42,1V280a20.29,20.29,0,0,1-3.35-.5c-1.53-.38-2.39-1-2.57-1.77h-3.53c.1,1.06,1.12,1.93,3.05,2.6a22.63,22.63,0,0,0,6.4,1v1.1H317v-1.06a23.62,23.62,0,0,0,6.61-.9c1.89-.61,2.84-1.38,2.84-2.3,0-.72-.52-1.3-1.55-1.73Z"/><path class="cls-1" d="M221.1,243.32c-13.37,0-24.2,4.93-24.2,11v6.6c0,6.07,10.83,11,24.2,11s24.19-4.93,24.19-11v-6.6c0-6.07-10.83-11-24.19-11Z"/><path class="cls-2" d="M204.6,250.42V269a39.33,39.33,0,0,0,11,2.67V248.09a42,42,0,0,0-11,2.33Z"/><path class="cls-2" d="M226.59,248.09v23.54a39.33,39.33,0,0,0,11-2.67V250.42a42,42,0,0,0-11-2.33Z"/><path class="cls-3" d="M245.29,254.32c0,6.07-10.83,11-24.19,11s-24.2-4.93-24.2-11,10.83-11,24.2-11,24.19,4.93,24.19,11Z"/><path class="cls-1" d="M242,253.88c0,4.62-9.36,8.36-20.89,8.36s-20.9-3.74-20.9-8.36,9.36-8.36,20.9-8.36S242,249.27,242,253.88Z"/><path class="cls-3" d="M226.66,257.42a18.3,18.3,0,0,1-4,.47v-3.63c1.75.18,3.06.36,3.94.54,1.3.27,1.94.7,1.94,1.29s-.62,1-1.87,1.33ZM216,252c-.89-.23-1.34-.56-1.34-1s.56-.89,1.67-1.19a15.33,15.33,0,0,1,3.25-.41v3.12A28.87,28.87,0,0,1,216,252Zm14.59,2.22a15.06,15.06,0,0,0-3.71-1c-1.1-.16-2.5-.32-4.19-.47v-3.4q4.75.22,5.22,1.9h3.56q-.17-1.53-3-2.37a24.11,24.11,0,0,0-5.75-.81V247h-3.11v1.09a22.26,22.26,0,0,0-5.8.81c-1.79.56-2.68,1.27-2.68,2.13s.69,1.39,2.06,1.85a30.1,30.1,0,0,0,6.42,1.06v3.85a18.51,18.51,0,0,1-3.35-.5c-1.53-.38-2.38-1-2.57-1.77H210.1c.1,1.06,1.11,1.93,3,2.61a22.69,22.69,0,0,0,6.4,1v1.1h3.11v-1.06a23.27,23.27,0,0,0,6.61-.91c1.89-.61,2.83-1.37,2.83-2.29,0-.73-.51-1.31-1.54-1.74Z"/><path class="cls-1" d="M258.13,253.44c-13.36,0-24.19,4.93-24.19,11V271c0,6.07,10.83,11,24.19,11s24.19-4.92,24.19-11v-6.6c0-6.07-10.83-11-24.19-11Z"/><path class="cls-2" d="M241.64,260.54v18.54a38.92,38.92,0,0,0,11,2.66V258.21a41.17,41.17,0,0,0-11,2.33Z"/><path class="cls-2" d="M263.63,258.21v23.53a39,39,0,0,0,11-2.66V260.54a41.25,41.25,0,0,0-11-2.33Z"/><path class="cls-3" d="M282.32,264.44c0,6.07-10.83,11-24.19,11s-24.19-4.93-24.19-11,10.83-11,24.19-11,24.19,4.93,24.19,11Z"/><path class="cls-1" d="M279,264c0,4.61-9.35,8.36-20.89,8.36s-20.89-3.75-20.89-8.36,9.35-8.36,20.89-8.36S279,259.38,279,264Z"/><path class="cls-3" d="M263.7,267.53a17.82,17.82,0,0,1-4,.48v-3.63c1.75.17,3.07.36,3.95.54,1.29.27,1.94.69,1.94,1.28s-.63,1-1.87,1.33Zm-10.7-5.4c-.9-.22-1.35-.56-1.35-1s.56-.89,1.68-1.19a15.82,15.82,0,0,1,3.25-.42v3.13a28.09,28.09,0,0,1-3.58-.52Zm14.58,2.23a15.37,15.37,0,0,0-3.71-1c-1.1-.15-2.5-.31-4.19-.47v-3.4c3.17.16,4.92.79,5.23,1.91h3.56c-.11-1-1.12-1.82-3-2.38a24.7,24.7,0,0,0-5.76-.8v-1.1h-3.1v1.08a22.58,22.58,0,0,0-5.8.82c-1.79.55-2.69,1.26-2.69,2.13s.69,1.39,2.07,1.85a30.24,30.24,0,0,0,6.42,1V268a19.29,19.29,0,0,1-3.35-.5c-1.53-.38-2.39-1-2.57-1.77h-3.53c.1,1.06,1.12,1.93,3.05,2.61a23.38,23.38,0,0,0,6.4,1v1.1h3.1V269.3a23.22,23.22,0,0,0,6.61-.91c1.89-.61,2.84-1.37,2.84-2.3,0-.72-.52-1.3-1.55-1.73Z"/><path class="cls-1" d="M258.13,241.57c-13.36,0-24.19,4.92-24.19,11v6.6c0,6.07,10.83,11,24.19,11s24.19-4.93,24.19-11v-6.6c0-6.07-10.83-11-24.19-11Z"/><path class="cls-2" d="M241.64,248.66V267.2a38.91,38.91,0,0,0,11,2.67V246.33a42,42,0,0,0-11,2.33Z"/><path class="cls-2" d="M263.63,246.33v23.54a39,39,0,0,0,11-2.67V248.66a42,42,0,0,0-11-2.33Z"/><path class="cls-3" d="M282.32,252.56c0,6.07-10.83,11-24.19,11s-24.19-4.93-24.19-11,10.83-11,24.19-11,24.19,4.92,24.19,11Z"/><path class="cls-1" d="M279,252.12c0,4.62-9.35,8.36-20.89,8.36s-20.89-3.74-20.89-8.36,9.35-8.36,20.89-8.36S279,247.51,279,252.12Z"/><path class="cls-3" d="M263.7,255.66a19.05,19.05,0,0,1-4,.48V252.5c1.75.18,3.07.36,3.95.54,1.29.27,1.94.7,1.94,1.29s-.63,1-1.87,1.33Zm-10.7-5.4c-.9-.23-1.35-.56-1.35-1s.56-.89,1.68-1.19a15.91,15.91,0,0,1,3.25-.41v3.12a28.57,28.57,0,0,1-3.58-.51Zm14.58,2.22a14.94,14.94,0,0,0-3.71-.95c-1.1-.16-2.5-.31-4.19-.47v-3.4c3.17.15,4.92.79,5.23,1.9h3.56q-.17-1.53-3-2.37a24.13,24.13,0,0,0-5.76-.81v-1.1h-3.1v1.09a22.19,22.19,0,0,0-5.8.81c-1.79.56-2.69,1.27-2.69,2.13s.69,1.39,2.07,1.85a30.1,30.1,0,0,0,6.42,1.06v3.86a19.23,19.23,0,0,1-3.35-.51c-1.53-.38-2.39-1-2.57-1.77h-3.53c.1,1.06,1.12,1.93,3.05,2.61a22.63,22.63,0,0,0,6.4,1v1.1h3.1v-1.06a23.22,23.22,0,0,0,6.61-.91c1.89-.61,2.84-1.37,2.84-2.29,0-.73-.52-1.31-1.55-1.74Z"/><path class="cls-4" d="M250.05,93.16,294,113.55c1.62-3.5,2.61-5.61,2.61-5.61C300,100.4,293,89.72,280.92,84.1S256.14,80,252.66,87.56c0,0-1,2.1-2.61,5.6Z"/><path class="cls-5" d="M279.31,106.75l8.6-18.45a37.35,37.35,0,0,0-7-4.18l-9,19.23,7.32,3.4Z"/><path class="cls-5" d="M264.68,100l8.6-18.47a29.85,29.85,0,0,0-8.57-.71l-7.35,15.78,7.32,3.4Z"/><path class="cls-5" d="M294,113.55c1.62-3.5,2.61-5.61,2.61-5.61,1.87-4,.72-9-2.59-13.54l-7.34,15.75,7.32,3.4Z"/><path class="cls-6" d="M293.19,115.17c3.74-8.09-3.06-19.21-15.18-24.84s-25-3.63-28.72,4.46,3.06,19.21,15.19,24.84,25,3.63,28.71-4.46Z"/><path class="cls-4" d="M289.22,114.14c3.07-6.63-2.64-15.8-12.75-20.49s-20.77-3.12-23.83,3.51,2.64,15.8,12.75,20.49,20.77,3.12,23.83-3.51Z"/><path class="cls-6" d="M267.18,97.69A16.61,16.61,0,0,1,271.91,99l-2.48,5.38a39,39,0,0,1-4-2.81c-1.24-1.06-1.65-2-1.25-2.9s1.37-1.16,3-1Zm8.06,13.45c.83.78,1.09,1.51.78,2.17s-1.21,1-2.64.9a14,14,0,0,1-3.86-1l2.14-4.62a25.47,25.47,0,0,1,3.58,2.59Zm-14.49-10.73a14.62,14.62,0,0,0,3.42,3.3q1.65,1.19,4.28,2.84l-2.33,5c-3.37-1.85-4.85-3.67-4.43-5.49l-3.91-1.81q-.86,2.35,1.71,5.06a22.4,22.4,0,0,0,5.76,4.13l-.75,1.62,3.41,1.58.74-1.6a20.46,20.46,0,0,0,6.92,1.75c2.35.09,3.81-.5,4.41-1.79s.19-2.4-1-3.79a28.12,28.12,0,0,0-6.33-4.83l2.64-5.71a18,18,0,0,1,3.34,2.45q2.11,2,1.61,3.94l3.86,1.79c.62-1.62.1-3.43-1.55-5.41a21.44,21.44,0,0,0-6.37-4.7l.75-1.63-3.4-1.58-.73,1.57a21.53,21.53,0,0,0-7.87-2q-3.74-.09-4.68,2a3.17,3.17,0,0,0,.51,3.36Z"/><path class="cls-4" d="M339.24,117.87l-47.68-8.33c-.66,3.79-1.07,6.08-1.07,6.08-1.41,8.19,8.12,16.69,21.28,19s25-2.47,26.4-10.66c0,0,.42-2.29,1.07-6.08Z"/><path class="cls-5" d="M307.46,112.31l-3.53,20.05a37.85,37.85,0,0,0,7.8,2.24l3.68-20.9-8-1.39Z"/><path class="cls-5" d="M323.35,115.09l-3.53,20.07a29.53,29.53,0,0,0,8.46-1.54l3-17.14-7.95-1.39Z"/><path class="cls-5" d="M291.56,109.54c-.66,3.79-1.07,6.08-1.07,6.08-.76,4.38,1.62,8.85,6,12.41l3-17.11-7.95-1.38Z"/><path class="cls-6" d="M291.87,107.77c-1.52,8.79,7.93,17.77,21.1,20.07s25.07-3,26.58-11.74S331.62,98.34,318.46,96,293.39,99,291.87,107.77Z"/><path class="cls-4" d="M296,107.74c-1.24,7.2,6.65,14.58,17.62,16.5s20.88-2.37,22.12-9.56-6.65-14.58-17.62-16.5-20.88,2.36-22.12,9.56Z"/><path class="cls-6" d="M321.52,117.93a16.71,16.71,0,0,1-4.92-.07l1-5.84a38.46,38.46,0,0,1,4.55,1.69c1.47.7,2.12,1.52,2,2.47s-1,1.48-2.6,1.75ZM310.26,107c-1-.54-1.45-1.18-1.32-1.9s.91-1.31,2.32-1.55a14.31,14.31,0,0,1,4,0l-.86,5a26.5,26.5,0,0,1-4.13-1.58ZM327,113.64a14.66,14.66,0,0,0-4.16-2.31q-1.9-.72-4.86-1.63l.94-5.46c3.73.91,5.64,2.29,5.7,4.15l4.24.74q.23-2.5-2.95-4.45a22.29,22.29,0,0,0-6.64-2.49l.3-1.76-3.69-.65-.3,1.74a20.71,20.71,0,0,0-7.15.1c-2.28.52-3.55,1.47-3.79,2.87-.21,1.23.44,2.37,1.95,3.4a28.7,28.7,0,0,0,7.37,3l-1.07,6.19a18.06,18.06,0,0,1-3.86-1.5c-1.71-.93-2.57-2.06-2.57-3.38l-4.2-.74q-.27,2.6,2.9,4.83a21.32,21.32,0,0,0,7.37,2.89l-.31,1.77,3.7.64.3-1.7a21.62,21.62,0,0,0,8.13-.08c2.42-.58,3.76-1.62,4-3.09a3.17,3.17,0,0,0-1.36-3.11Z"/><path class="cls-4" d="M311.12,109.8,294.51,64.34c-2.91,1.07-5.31,1.93-5.31,1.93-6.27,2.32-7.63,14.37-3,26.93s13.39,20.85,19.66,18.54c0,0,2.4-.86,5.3-1.94Z"/><path class="cls-5" d="M300.05,79.5l-16,5.83a45.83,45.83,0,0,0,2.11,7.82l16.68-6.07-2.77-7.58Z"/><path class="cls-5" d="M305.59,94.65l-16,5.84a34.71,34.71,0,0,0,5,6.76l13.8-5-2.77-7.58Z"/><path class="cls-5" d="M294.51,64.34c-2.91,1.07-5.31,1.93-5.31,1.93-3.35,1.24-5.3,5.27-5.68,10.66l13.76-5-2.77-7.58Z"/><path class="cls-6" d="M294.51,64.34c-6.27,2.31-7.63,14.37-3.05,26.92s13.39,20.86,19.66,18.54,7.64-14.37,3.05-26.92S300.78,62,294.51,64.34Z"/><path class="cls-4" d="M296.65,67.85c-4.8,1.78-5.6,11.7-1.78,22.16s10.82,17.51,15.63,15.73,5.6-11.7,1.78-22.16-10.82-17.51-15.63-15.73Z"/><path class="cls-6" d="M302.31,94.45a22.18,22.18,0,0,1-2.21-4.36l4.17-1.55c.52,2.07.86,3.64,1,4.72.23,1.58,0,2.5-.67,2.75s-1.41-.28-2.31-1.56ZM304.06,80c-.11-1.12.09-1.77.6-2s1.25.26,2,1.4A18.42,18.42,0,0,1,308.54,83L305,84.29a35.11,35.11,0,0,1-.9-4.29Zm3.51,17.52a17.9,17.9,0,0,0-.45-4.62q-.42-2-1.2-5l3.9-1.44q1.71,5.51,0,6.75l1.47,4.05c1.13-.57,1.62-2.05,1.47-4.46A28.75,28.75,0,0,0,311.28,86l1.26-.47L311.25,82l-1.24.46a26.44,26.44,0,0,0-3.34-6.25q-2.07-2.7-3.56-2.15c-.89.33-1.31,1.37-1.27,3.13a37,37,0,0,0,1.46,7.75l-4.42,1.63a23.54,23.54,0,0,1-.82-4c-.19-1.9.13-3.12,1-3.67l-1.47-4c-1.17.57-1.75,2.09-1.72,4.57a27.32,27.32,0,0,0,1.54,7.69l-1.26.46,1.29,3.53,1.22-.45a28,28,0,0,0,3.78,7.13c1.49,1.89,2.75,2.64,3.81,2.25q1.25-.47,1.35-2.49Z"/><path class="cls-4" d="M268,132.3l-47.66,8.47c.55,3,1,5.56,1,5.56,1.19,6.58,12.82,10,26,7.68s22.87-9.57,21.68-16.14c0,0-.43-2.52-1-5.57Z"/><path class="cls-5" d="M236.19,138l3,16.79a46.76,46.76,0,0,0,8.07-.72l-3.09-17.48L236.19,138Z"/><path class="cls-5" d="M252.07,135.13l3,16.8a34.81,34.81,0,0,0,7.53-3.76L260,133.71l-7.95,1.42Z"/><path class="cls-5" d="M220.3,140.77c.55,3,1,5.56,1,5.56.64,3.52,4.26,6.14,9.51,7.46l-2.54-14.43-7.95,1.41Z"/><path class="cls-6" d="M220.3,140.77c1.19,6.58,12.82,10,26,7.68s22.87-9.57,21.68-16.15-12.83-10-26-7.67-22.86,9.57-21.67,16.14Z"/><path class="cls-4" d="M224.13,139.27c.91,5,10.55,7.55,21.51,5.6s19.12-7.61,18.2-12.65-10.54-7.55-21.51-5.6-19.12,7.61-18.2,12.65Z"/><path class="cls-6" d="M251.3,138.31a21.47,21.47,0,0,1-4.68,1.43l-.79-4.38c2.12-.15,3.73-.21,4.82-.18,1.6,0,2.46.43,2.59,1.14s-.52,1.34-1.94,2Zm-13.92-4.23q-1.68-.12-1.83-.93t1.74-1.77a18,18,0,0,1,3.78-1.19l.68,3.76a34.87,34.87,0,0,1-4.37.13Zm17.86-.41a18.25,18.25,0,0,0-4.63-.36c-1.35.05-3.05.15-5.1.32l-.74-4.09q5.72-.73,6.65,1.19l4.24-.76q-.54-1.8-4.13-2.21a28.4,28.4,0,0,0-7,.25l-.24-1.32-3.7.65.24,1.31a26.64,26.64,0,0,0-6.73,2.2c-2,1.05-2.92,2.09-2.73,3.14s1.12,1.52,2.86,1.78a36,36,0,0,0,7.88-.09l.84,4.64a23.11,23.11,0,0,1-4.1.11q-2.85-.21-3.45-1.59l-4.2.75q.53,1.88,4.2,2.49a27.48,27.48,0,0,0,7.84-.19l.24,1.32,3.7-.65-.24-1.28a27.45,27.45,0,0,0,7.68-2.49q3.18-1.69,2.88-3.36c-.16-.87-.9-1.46-2.22-1.76Z"/><path class="cls-7" d="M866.12,200.69s3.18,2.91,8.37-6.35,1.67,11.53-4,15.92-6-.25-6-.25l1.63-9.32Z"/><path class="cls-8" d="M841.55,191.38s17.28-5.54,25.47,7.86,1.15,20.32-4.34,22.63-21.13-30.49-21.13-30.49Z"/><path class="cls-8" d="M699.12,283l5.81,27.39s10,6,25.82,2.29,7-17,7-17L699.12,283Z"/><path class="cls-7" d="M787.51,290l3.82,16.27a37.32,37.32,0,0,0,21.83,0c11.46-3.7,2.73-23.22,2.73-23.22l-28.38,7Z"/><path class="cls-8" d="M722.29,163s-19.1-20.55-25.1-19.16,2.73,35.66,0,41.16,25.1-22,25.1-22Z"/><path class="cls-7" d="M715.92,168.5s-14.64-17.25-15.73-17.71,1.69,18,1.09,24.17,14.64-6.46,14.64-6.46Z"/><path class="cls-8" d="M807.69,287.77l6,19.4s16.37,6.68,31.65-3.65c1.64-11.7,3-40.24,3-40.24l-40.68,22.65"/><path class="cls-9" d="M867.46,225.37c4.09,48.25-47.72,72-105.58,72s-94.12-26.3-94.12-66.43S712.2,154.1,766,154.1c57,0,98.1,31.25,101.49,71.27Z"/><path class="cls-8" d="M725.57,183.13c-.82-3.47,19.9-33.65,25.92-31.19s9.28,43.84,5.46,50.33-30.56-15.68-31.38-19.14Z"/><path class="cls-7" d="M732.77,181.51s12.44-21,15.72-21.27,3.82,38.77-1.64,35-14.39-10.94-14.08-13.71Z"/><path class="cls-7" d="M760.91,160.94s30.64-3.82,58.83,10.31a7.74,7.74,0,0,1,2.46,5.08s-24.5-11.56-58.84-9.28c-.29-2.63-2.45-6.11-2.45-6.11Z"/><path class="cls-9" d="M771.14,296.07l-5.46,17.85s-8.84,3.53-31.27,1.29c-3.66-5.27-8-29.75-8-29.75l44.75,10.61Z"/><path class="cls-8" d="M686.59,212.05c-5-2-26.87,2-26.87,2l4.88,58.17s19,2.34,26.91-1.62,12.5-14.12,11.12-30.53-11.08-26.05-16-28Z"/><path class="cls-9" d="M677.82,242.21c1.35,16.06-4.57,29.5-13.22,30s-16.76-12.08-18.11-28.14,4.58-29.51,13.23-30,16.76,12.08,18.1,28.15Z"/><path class="cls-7" d="M659.21,251.29a2.62,2.62,0,0,1-2.69,2.62l-1,.06a2.78,2.78,0,0,1-3.1-2.28l-1.42-17a2.62,2.62,0,0,1,2.68-2.63l1-.06a2.81,2.81,0,0,1,3.11,2.28l1.42,17Z"/><path class="cls-7" d="M670.59,251.62a2.62,2.62,0,0,1-2.69,2.63l-1,.06a2.78,2.78,0,0,1-3.1-2.28l-1.42-17a2.63,2.63,0,0,1,2.69-2.63l1-.06a2.8,2.8,0,0,1,3.1,2.28l1.42,17Z"/><path class="cls-10" d="M698.5,201.46c-1.9,5.12,1.19,10.49,6.9,12s11.88-1.4,13.77-6.51-1.19-10.49-6.9-12-11.87,1.4-13.77,6.51Z"/><path class="cls-11" d="M699.63,201.76c-1.49,4,.93,8.2,5.39,9.39s9.29-1.09,10.77-5.09-.93-8.2-5.4-9.39-9.28,1.1-10.76,5.09Z"/><path class="cls-10" d="M690.84,200.4c-2.09,3.43-6,5.26-8.66,4.09s-3.19-4.91-1.1-8.34,6-5.26,8.65-4.09,3.19,4.91,1.11,8.34Z"/><path class="cls-11" d="M688.88,199.56c-1.63,2.68-4.66,4.12-6.77,3.2s-2.49-3.83-.86-6.52,4.66-4.12,6.77-3.2,2.49,3.84.86,6.52Z"/><path class="cls-10" d="M714.28,201.08a2,2,0,1,1-2-1.67,1.84,1.84,0,0,1,2,1.67Z"/><path class="cls-10" d="M688.12,196.18a1.07,1.07,0,0,1-1.3.45.8.8,0,0,1-.53-1.1,1.08,1.08,0,0,1,1.3-.45.82.82,0,0,1,.53,1.1Z"/><path class="cls-12" d="M502.85,500.55c-69.24,0-132-5.89-132-13.15s62.79-13.16,132-13.16,118.72,5.89,118.72,13.16-49.47,13.15-118.72,13.15"/><polygon class="cls-13" points="790.9 374.99 745.05 374.99 745.05 324 790.9 324 790.9 374.99 790.9 374.99"/><polygon class="cls-13" points="255.5 352.99 209.65 352.99 209.65 302 255.5 302 255.5 352.99 255.5 352.99"/><path class="cls-14" d="M202.44,361.81a13.67,13.67,0,0,1-12.64-14.62l.32-4.31a13.66,13.66,0,0,1,14.62-12.65l591.11,42.7a13.65,13.65,0,0,1,12.64,14.61l-.31,4.32a13.65,13.65,0,0,1-14.62,12.64L202.44,361.81Z"/><path class="cls-15" d="M88,276.22c31.79,24.36,95.1,39.53,144.62,39.53S345.4,300.58,377.2,276.22Z"/><path class="cls-15" d="M623.35,304.22c31.8,24.36,95.1,39.53,144.63,39.53s112.83-15.17,144.62-39.53Z"/><path class="cls-16" d="M561.05,474.35,550,332.64c0-23.24-18.82-47.65-42-47.6l-13.3,0c-23.23,0-42.07,24.39-42,47.58L441.53,474.35Z"/><path class="cls-15" d="M523.82,367.36a22.54,22.54,0,1,1-22.53-22.53,22.54,22.54,0,0,1,22.53,22.53Z"/><path class="cls-15" d="M433.31,486.53a8.17,8.17,0,0,1-8.18-8.18v-2.58a8.17,8.17,0,0,1,8.18-8.19H565a8.18,8.18,0,0,1,8.18,8.19v2.58a8.16,8.16,0,0,1-8.18,8.18Z"/><circle class="cls-17" cx="791.4" cy="129.54" r="34.29"/><circle class="cls-18" cx="791.4" cy="129.54" r="27.47" transform="translate(140.2 597.54) rotate(-45)"/><path class="cls-17" d="M793.72,126.13c-4.24-1.08-6-2-6.13-3.59-.12-1.26.72-2.82,3.88-3a15.33,15.33,0,0,1,4.34.22,2.71,2.71,0,0,0,3.23-2.11l.08-.24A2.76,2.76,0,0,0,797,114.3a28.35,28.35,0,0,0-4.58-.3l-.18-1.82a2.3,2.3,0,1,0-4.59.33l.17,2.14c-5,1.35-7.66,4.9-7.31,9.18.4,4.67,4.13,6.68,9.31,8,3.69.83,5.31,1.9,5.49,3.73s-1.52,3.11-4.37,3.34a16.93,16.93,0,0,1-5.35-.49,2.54,2.54,0,0,0-3.23,2.12l-.09.39a2.63,2.63,0,0,0,2,3,23.59,23.59,0,0,0,5.91.57l.17,2.14a2.29,2.29,0,0,0,2.46,2.13h0a2.29,2.29,0,0,0,2.13-2.46l-.24-2.53c5.42-1.42,8.07-5.29,7.65-9.49S799.52,127.58,793.72,126.13Z"/><path class="cls-4" d="M106.33,220.46,79.5,188.56c-2,1.73-3.72,3.13-3.72,3.13-4.39,3.72-2,13.87,5.46,22.68s17,12.93,21.37,9.21c0,0,1.69-1.4,3.72-3.12Z"/><path class="cls-5" d="M88.45,199.2l-11.24,9.44a39.79,39.79,0,0,0,4,5.7l11.7-9.83-4.47-5.31Z"/><path class="cls-5" d="M79.5,188.56c-2,1.73-3.72,3.13-3.72,3.13-2.35,2-2.74,5.82-1.46,10.3L84,193.88l-4.48-5.32Z"/><path class="cls-6" d="M79.5,188.56c-4.39,3.72-1.94,13.88,5.47,22.69s17,12.93,21.36,9.21,2-13.88-5.46-22.68-17-12.94-21.37-9.22Z"/><path class="cls-4" d="M82.27,190.77c-3.36,2.86-1.09,11.12,5.09,18.46s13.9,11,17.27,8.12,1.09-11.11-5.09-18.45-13.9-11-17.27-8.13Z"/><path class="cls-6" d="M94.68,210.63a19.08,19.08,0,0,1-3.07-2.88l2.92-2.48c1,1.52,1.76,2.69,2.21,3.52.65,1.22.74,2,.27,2.42s-1.23.19-2.33-.58Zm-2.84-12.21c-.42-.87-.45-1.46-.09-1.76s1.09-.16,2.08.53a16,16,0,0,1,2.51,2.31l-2.51,2.13a32.3,32.3,0,0,1-2-3.21Zm8,13.14a15.72,15.72,0,0,0-1.72-3.6q-.93-1.49-2.43-3.67L98.41,202q3,3.95,2,5.46l2.39,2.84c.74-.78.7-2.13-.13-4a25.25,25.25,0,0,0-3.21-5.14l.88-.75-2.08-2.47-.87.74a23,23,0,0,0-4.55-4.08c-1.64-1.05-2.81-1.27-3.51-.68s-.65,1.49-.1,2.9a31.75,31.75,0,0,0,3.46,5.84l-3.1,2.62a20.34,20.34,0,0,1-1.84-3c-.72-1.48-.82-2.56-.3-3.26l-2.37-2.8q-1.17,1.2,0,4.2a23.49,23.49,0,0,0,3.52,5.76l-.89.75,2.09,2.48.85-.73a24.19,24.19,0,0,0,5.16,4.66c1.76,1.09,3,1.32,3.74.7.59-.5.7-1.3.36-2.42Z"/><path class="cls-4" d="M177.13,61.84,161.52,19.16c-3.39,1.25-5.45,2-5.45,2-7.32,2.69-9.76,14.43-5.45,26.22s13.74,19.15,21.06,16.46c0,0,2.06-.74,5.45-2Z"/><path class="cls-5" d="M166.73,33.39l-18,6.54a35,35,0,0,0,1.84,7.39l18.72-6.81-2.6-7.12Z"/><path class="cls-5" d="M171.93,47.62l-18,6.54a28.12,28.12,0,0,0,5.21,6.17l15.36-5.6-2.6-7.11Z"/><path class="cls-6" d="M163.1,18.59c-7.85,2.89-10.72,14.78-6.41,26.57s14.17,19,22,16.1,10.72-14.78,6.41-26.57-14.17-19-22-16.1Z"/><path class="cls-4" d="M165.05,21.91c-6.43,2.36-8.73,12.25-5.14,22.07s11.72,15.86,18.15,13.49,8.74-12.25,5.15-22.07-11.72-15.86-18.16-13.49Z"/><path class="cls-6" d="M168.76,47.46a16,16,0,0,1-2.25-4l5.22-1.92a35.5,35.5,0,0,1,.76,4.49c.12,1.52-.24,2.44-1.09,2.75s-1.68-.13-2.64-1.29Zm3.58-14.27c0-1.08.28-1.73.93-2s1.49.12,2.35,1.16a13.69,13.69,0,0,1,1.87,3.25L173,37.28a25,25,0,0,1-.66-4.09Zm2.5,16.74a13.81,13.81,0,0,0-.08-4.47c-.21-1.25-.52-2.83-1-4.72l4.89-1.8c1,3.47.78,5.66-.7,6.59l1.39,3.8c1.42-.67,2.16-2.16,2.22-4.49a20.89,20.89,0,0,0-1.08-6.57l1.57-.58-1.21-3.31-1.56.57a19.25,19.25,0,0,0-3.43-5.76q-2.23-2.42-4.11-1.73c-1.1.4-1.72,1.46-1.85,3.17a26.6,26.6,0,0,0,1,7.41l-5.54,2.05a16.56,16.56,0,0,1-.59-3.85c-.05-1.83.47-3.05,1.54-3.68L165,28.81c-1.48.66-2.33,2.21-2.55,4.62a19.92,19.92,0,0,0,1.1,7.35l-1.58.58,1.22,3.31,1.52-.56a20.11,20.11,0,0,0,3.88,6.57q2.41,2.55,4.4,1.81a3,3,0,0,0,1.89-2.56Z"/><path class="cls-4" d="M184,155.69l-19.26-41.16c-2.63,1.24-4.8,2.24-4.8,2.24-5.68,2.68-6,14.07-.65,25.43s14.23,18.41,19.91,15.73c0,0,2.17-1,4.8-2.24Z"/><path class="cls-5" d="M171.17,128.26,156.67,135a42.47,42.47,0,0,0,2.62,7.14l15.09-7-3.21-6.86Z"/><path class="cls-5" d="M177.59,142l-14.51,6.77a31.63,31.63,0,0,0,5.24,5.91l12.48-5.82L177.59,142Z"/><path class="cls-5" d="M164.75,114.53c-2.63,1.24-4.8,2.24-4.8,2.24-3,1.44-4.53,5.36-4.45,10.44L168,121.4l-3.21-6.87Z"/><path class="cls-6" d="M164.75,114.53c-5.67,2.68-6,14.07-.64,25.43s14.23,18.41,19.9,15.73,6-14.06.65-25.43-14.23-18.4-19.91-15.73Z"/><path class="cls-4" d="M167.05,117.64c-4.35,2.06-4.29,11.4.14,20.87s11.55,15.49,15.9,13.43,4.28-11.4-.15-20.87-11.55-15.48-15.89-13.43Z"/><path class="cls-6" d="M111,136.61a22.71,22.71,0,1,0,24.55-20.71A22.7,22.7,0,0,0,111,136.61Z"/><path class="cls-4" d="M114.4,136.9a19.31,19.31,0,1,0,20.88-17.6,19.31,19.31,0,0,0-20.88,17.6Z"/><path class="cls-6" d="M139.11,148.79a10.17,10.17,0,0,1-4.64.84l.79-9.36a24.29,24.29,0,0,1,4.35,1.78,3.46,3.46,0,0,1,1.91,3.5,3.84,3.84,0,0,1-2.41,3.24Zm-10.92-14.93a2.8,2.8,0,0,1-1.31-2.72,3.48,3.48,0,0,1,2.16-2.89,8.74,8.74,0,0,1,3.77-.75l-.68,8a16,16,0,0,1-3.94-1.68Zm16,7.13a10.85,10.85,0,0,0-4-2.81c-1.22-.51-2.76-1.05-4.64-1.62l.74-8.75q5.34,1.06,5.5,5.41l4,.35a7.44,7.44,0,0,0-2.91-6.41,13.83,13.83,0,0,0-6.34-2.63l.24-2.82-3.51-.3-.24,2.79a12.83,12.83,0,0,0-6.75,1.53,6.51,6.51,0,0,0-3.5,5.24,5.68,5.68,0,0,0,1.93,4.95c1.4,1.27,3.74,2.38,7,3.33l-.84,9.93a11.25,11.25,0,0,1-3.69-1.62,5.63,5.63,0,0,1-2.52-4.8l-4-.34a8.72,8.72,0,0,0,2.87,7,13.42,13.42,0,0,0,7,3.11l-.24,2.83,3.51.3.23-2.73a13.36,13.36,0,0,0,7.69-1.69,7.1,7.1,0,0,0,3.71-5.63,5.91,5.91,0,0,0-1.37-4.62Z"/><path class="cls-4" d="M139.92,109.88l3.9-45.27c-2.9-.24-5.28-.46-5.28-.46-6.26-.52-12.2,9.2-13.27,21.7s3.11,23.06,9.37,23.57c0,0,2.38.22,5.28.46Z"/><path class="cls-5" d="M142.52,79.71l-16-1.4a44.11,44.11,0,0,0-1.3,7.49l16.6,1.45.65-7.54Z"/><path class="cls-5" d="M141.22,94.8l-16-1.39a32.31,32.31,0,0,0,1.58,7.74l13.73,1.19.65-7.54Z"/><path class="cls-5" d="M143.82,64.61c-2.9-.24-5.28-.46-5.28-.46-3.35-.28-6.6,2.38-9.07,6.81l13.7,1.2.65-7.55Z"/><path class="cls-6" d="M143.82,64.61c-6.25-.52-12.2,9.2-13.27,21.7s3.12,23.06,9.37,23.57,12.19-9.19,13.27-21.7-3.12-23.05-9.37-23.57Z"/><path class="cls-4" d="M144.25,68.45c-4.79-.4-9.41,7.73-10.31,18.15s2.26,19.18,7.06,19.58,9.41-7.73,10.3-18.15S149,68.84,144.25,68.45Z"/><path class="cls-6" d="M138.51,93.32a20.47,20.47,0,0,1-.15-4.58l4.16.34c-.38,2-.71,3.43-1,4.41-.43,1.44-1,2.13-1.66,2.08s-1.08-.8-1.34-2.25Zm7.23-11.6c.34-1,.77-1.47,1.28-1.43s1,.72,1.19,2a17.35,17.35,0,0,1,.16,3.72l-3.57-.29a31.41,31.41,0,0,1,.94-4Zm-4,16.3a16.93,16.93,0,0,0,1.45-4.11c.29-1.23.6-2.8.95-4.7l3.89.32c-.49,3.58-1.38,5.49-2.69,5.74l-.35,4c1.18,0,2.19-1.1,3-3.21a27,27,0,0,0,1.49-6.44l1.25.11.31-3.52-1.24-.1a25.26,25.26,0,0,0-.37-6.64c-.46-2.08-1.18-3.16-2.18-3.24s-1.65.65-2.31,2.16a33.83,33.83,0,0,0-1.83,7.17l-4.42-.36a21.51,21.51,0,0,1,.9-3.75c.59-1.69,1.35-2.61,2.28-2.74l.35-4c-1.23,0-2.32,1.08-3.29,3.2a26,26,0,0,0-1.73,7.16L136,85l-.3,3.51,1.21.1a26.75,26.75,0,0,0,.39,7.57c.51,2.2,1.3,3.34,2.35,3.43.83.06,1.54-.46,2.14-1.59Z"/><path class="cls-4" d="M72.28,161.9,49.51,122.58c-2.51,1.47-4.59,2.65-4.59,2.65-5.42,3.16-4.71,14.53,1.57,25.39s15.78,17.1,21.2,13.94c0,0,2.08-1.19,4.59-2.66Z"/><path class="cls-5" d="M57.11,135.69l-13.86,8a43.28,43.28,0,0,0,3.22,6.88l14.43-8.33-3.79-6.56Z"/><path class="cls-5" d="M64.7,148.8l-13.88,8a32.5,32.5,0,0,0,5.74,5.44l11.93-6.9L64.7,148.8Z"/><path class="cls-5" d="M49.51,122.58c-2.51,1.47-4.59,2.65-4.59,2.65-2.9,1.69-4,5.73-3.52,10.79l11.91-6.88-3.8-6.56Z"/><path class="cls-6" d="M49.51,122.58c-5.42,3.16-4.71,14.53,1.58,25.39s15.78,17.1,21.19,13.93,4.72-14.53-1.57-25.38-15.78-17.1-21.2-13.94Z"/><path class="cls-4" d="M52.07,125.48c-4.16,2.42-3.28,11.73,2,20.78s12.86,14.42,17,12,3.27-11.73-2-20.78-12.85-14.42-17-12Z"/><path class="cls-6" d="M61.63,149.14a20,20,0,0,1-2.75-3.67l3.6-2.1c.82,1.82,1.39,3.22,1.71,4.19.47,1.43.41,2.31-.17,2.65s-1.35,0-2.39-1.07ZM60.9,135.5c-.29-1-.21-1.65.23-1.91s1.2,0,2.13,1a18,18,0,0,1,2.26,3l-3.1,1.81a33.91,33.91,0,0,1-1.52-3.82ZM67,151.13a16.49,16.49,0,0,0-1.16-4.2c-.47-1.18-1.11-2.64-1.92-4.4l3.37-2q2.48,4.81,1.09,6.25l2,3.5q1.42-1.06.63-4.36a27.28,27.28,0,0,0-2.48-6.13l1.09-.63-1.77-3.05-1.07.63a24.87,24.87,0,0,0-4.11-5.24c-1.57-1.44-2.78-1.9-3.64-1.4s-1,1.48-.66,3.1A34.31,34.31,0,0,0,61,140.15l-3.82,2.24a21.88,21.88,0,0,1-1.41-3.59c-.49-1.72-.39-2.91.29-3.55l-2-3.47c-1,.72-1.28,2.22-.86,4.5a26,26,0,0,0,2.69,6.86l-1.09.64,1.77,3.05,1-.61a26,26,0,0,0,4.66,6c1.68,1.51,3,2,3.88,1.46q1.08-.63.84-2.52Z"/><path class="cls-4" d="M113.5,139.74,72.29,120.58c-1.22,2.65-2.24,4.81-2.24,4.81-2.63,5.7,4.47,14.61,15.85,19.89s22.73,5,25.36-.74c0,0,1-2.16,2.24-4.8Z"/><path class="cls-5" d="M86,127l-6.76,14.51a43.34,43.34,0,0,0,6.59,3.78l7-15.1L86,127Z"/><path class="cls-5" d="M99.76,133.35,93,147.87a32.74,32.74,0,0,0,7.81,1.17l5.82-12.49-6.87-3.2Z"/><path class="cls-5" d="M72.29,120.58c-1.22,2.65-2.24,4.81-2.24,4.81-1.41,3,0,7,3.3,10.85l5.81-12.46-6.87-3.2Z"/><path class="cls-6" d="M72.29,120.58c-2.63,5.7,4.47,14.61,15.85,19.9s22.73,5,25.36-.74-4.48-14.61-15.86-19.9-22.73-5-25.35.74Z"/><path class="cls-4" d="M76,121.49c-2,4.37,4,11.49,13.53,15.9s18.8,4.43,20.81.06-4-11.48-13.53-15.89-18.8-4.44-20.81-.07Z"/><path class="cls-6" d="M97.45,135.39A20.51,20.51,0,0,1,93.09,134l1.74-3.8q2.58,1.54,3.81,2.46c1.2.9,1.66,1.66,1.38,2.27s-1.12.75-2.57.49ZM89,124.64c-.81-.67-1.12-1.23-.9-1.7s1-.66,2.29-.43A17.5,17.5,0,0,1,94,123.63l-1.5,3.26A34.52,34.52,0,0,1,89,124.64Zm14,9.3a16.88,16.88,0,0,0-3.36-2.77q-1.59-1-4.1-2.5l1.64-3.54q4.78,2.5,4.47,4.49l3.66,1.7q.57-1.68-2-3.93a27,27,0,0,0-5.54-3.59l.52-1.15-3.19-1.49-.52,1.14a25.07,25.07,0,0,0-6.37-1.94c-2.11-.27-3.37,0-3.79.94s0,1.78,1.24,2.92a34.27,34.27,0,0,0,6.11,4.17l-1.85,4a21.27,21.27,0,0,1-3.21-2.13c-1.39-1.13-2-2.16-1.8-3.08l-3.63-1.69q-.61,1.74,1.88,4.18a25.79,25.79,0,0,0,6.13,4.08l-.52,1.14,3.2,1.49.5-1.11a26.3,26.3,0,0,0,7.25,2.23c2.24.27,3.58-.08,4-1,.35-.76.09-1.61-.76-2.55Z"/><path class="cls-4" d="M77.31,67.55l43.88-11.82c-.77-2.8-1.37-5.12-1.37-5.12-1.66-6-12.82-8.31-24.93-5s-20.6,10.82-19,16.87c0,0,.6,2.31,1.37,5.12Z"/><path class="cls-5" d="M106.56,59.67l-4.15-15.46a43.39,43.39,0,0,0-7.48,1.34l4.31,16.09,7.32-2Z"/><path class="cls-5" d="M91.93,63.61,87.78,48.14a32.66,32.66,0,0,0-6.73,4.13l3.57,13.31,7.31-2Z"/><path class="cls-5" d="M121.19,55.73c-.77-2.8-1.37-5.12-1.37-5.12-.89-3.24-4.49-5.39-9.51-6.19l3.56,13.28,7.32-2Z"/><path class="cls-6" d="M121.19,55.73c-1.65-6-12.81-8.31-24.93-5s-20.6,10.82-19,16.87,12.82,8.32,24.93,5,20.6-10.81,19-16.87Z"/><path class="cls-4" d="M117.73,57.45c-1.27-4.64-10.48-6.2-20.58-3.48s-17.26,8.69-16,13.33,10.49,6.19,20.58,3.48,17.26-8.69,16-13.33Z"/><path class="cls-6" d="M92.39,60.57a20.17,20.17,0,0,1,4.26-1.71l1.1,4c-2,.32-3.47.51-4.49.57-1.5.08-2.34-.2-2.52-.86s.38-1.29,1.65-2Zm13.37,2.82c1.06,0,1.65.22,1.79.72s-.35,1.14-1.48,1.8a17.21,17.21,0,0,1-3.44,1.42l-.95-3.46a31.07,31.07,0,0,1,4.08-.48ZM89.09,65.23a17.29,17.29,0,0,0,4.36,0c1.26-.15,2.84-.39,4.74-.71l1,3.76c-3.52.77-5.63.58-6.31-.57L89,68.73c.44,1.09,1.79,1.67,4,1.73a27.68,27.68,0,0,0,6.56-.81l.33,1.22,3.4-.92-.33-1.2a25.58,25.58,0,0,0,6.12-2.61c1.8-1.15,2.56-2.2,2.3-3.16s-1.17-1.33-2.82-1.44a34.64,34.64,0,0,0-7.37.74L100.08,58a22.21,22.21,0,0,1,3.83-.43c1.78,0,2.9.37,3.35,1.2l3.87-1c-.44-1.14-1.81-1.81-4.13-2a25.92,25.92,0,0,0-7.32.82l-.33-1.22-3.41.92.32,1.17a26.41,26.41,0,0,0-7,3c-1.88,1.23-2.69,2.36-2.41,3.38.22.8,1,1.29,2.22,1.46Z"/></svg>