<svg viewBox="0 0 968 778" xmlns="http://www.w3.org/2000/svg"><path d="m629.53 165.37-37.79 105-255.16-70.55-320.58-15.23 6.22-163.72 313.8 25.11z" fill="#b761ff"/><circle cx="708.67" cy="345.97" fill="#ddaa1a" r="56.59"/><circle cx="708.67" cy="345.97" fill="#f5da62" r="45.35" transform="matrix(.70710678 -.70710678 .70710678 .70710678 -37.07 602.44)"/><path d="m712.5 340.35c-7-1.78-9.94-3.31-10.12-5.92-.19-2.1 1.19-4.66 6.42-5a25.67 25.67 0 0 1 7.16.35 4.47 4.47 0 0 0 5.32-3.49l.14-.38a4.56 4.56 0 0 0 -3.49-5.07 45.28 45.28 0 0 0 -7.55-.49l-.3-3a3.8 3.8 0 1 0 -7.58.55l.29 3.53c-8.29 2.22-12.64 8.08-12.08 15.14.67 7.72 6.83 11 15.37 13.13 6.09 1.36 8.77 3.14 9.07 6.15s-2.51 5.14-7.21 5.51a28.64 28.64 0 0 1 -8.85-.79 4.18 4.18 0 0 0 -5.32 3.48l-.15.65a4.34 4.34 0 0 0 3.38 4.9 39.13 39.13 0 0 0 9.75.95l.28 3.53a3.79 3.79 0 0 0 4.06 3.52 3.79 3.79 0 0 0 3.52-4.06l-.39-4.19c8.94-2.33 13.31-8.72 12.61-15.65s-4.75-10.97-14.33-13.35z" fill="#ddaa1a"/><path d="m596.49 324.54c5.09 20.16 25.5 63.11 50.43 29.93 12.24-16.28-10.31-22.63-15.47-39-5.84-18.45 24-46.37 40.22-53.93s82.44-6.07 89.17 14.06c5.47 16.38-12.63 46.54 7.23 56.88 29.39 15.3 41.72-42.65 22.16-71.68-13.89-20.62-69-31.66-69-31.66 15.48-10.78 33.85-13.73 52.38-12.9 55.57 2.48 72.51 29.41 80 11.31 16.1-38.93-46.76-50.29-83.78-41.19a203.84 203.84 0 0 0 -46.83 18.33c10.4-11.16 23.06-17.54 35.72-23.45 41.88-19.52 68 3 74-13.59 10.5-28.89-32-34.83-83.07-4.52a203.67 203.67 0 0 0 -41.55 33.31c5-11.82 13.87-21.52 22-28.18 26.77-21.91 59-20.2 46.3-41.71-9.37-15.92-43.94 5.26-66.71 29.5-19.54 20.78-29.88 45.23-29.88 45.23l-58.17-24.28-27.39 80.2 24.37 7.31c-16.59 19.66-29.41 31.26-22.13 60z" fill="#f6d8ba"/><g fill="#f7f7f7"><path d="m576.55 174.27a9.8 9.8 0 1 0 7.53-11.62 9.79 9.79 0 0 0 -7.53 11.62z"/><path d="m537.87 159.6a9.8 9.8 0 1 0 7.53-11.6 9.79 9.79 0 0 0 -7.53 11.63z"/><path d="m498.36 144a9.8 9.8 0 1 0 7.53-11.64 9.8 9.8 0 0 0 -7.53 11.64z"/><path d="m813.12 380.55h64.33v60.95h-64.33z"/></g><path d="m883.48 389.87h-76.38v-23.28h76.38z" fill="#c13651"/><path d="m928 775.22h-437.61c-9.76 0-17.66-9.62-17.66-21.45s7.9-21.46 17.66-21.46h20.81v20.69h396v-20.69h20.8c9.74 0 17.65 9.62 17.65 21.46s-7.91 21.45-17.65 21.45" fill="#c13651"/><path d="m907.2 752.63h-396v-194.24h396z" fill="#f7f7f7"/><path d="m907.2 571.27h-396v-12.88h396z" fill="#e4e4e4"/><path d="m930.16 558.39h-441.92l33.36-125.55h375.64z" fill="#ff576f"/><path d="m662.37 743.5-.53-160.13h94.73l.53 160.13z" fill="#9042db"/><path d="m670.37 593.14h77.67v150.36h-77.67z" fill="#6a33aa"/><path d="m620.36 709h-63.97v-106.72h63.97z" fill="#dde9e2"/><path d="m862.01 709h-63.97v-106.72h63.97z" fill="#dde9e2"/><path d="m589.86 712.23v-113.19h-2.97v113.19" fill="#403526"/><path d="m552.9 657.23h70.94v-3.18h-70.94" fill="#403526"/><path d="m591.57 709v-49.93h28.78v49.93zm-35.18-49.93h28.79v49.93h-28.79zm28.79-56.79v49.94h-28.79v-49.94zm35.17 49.94h-28.78v-49.94h28.78zm-72.49-59.08v125h81v-125z" fill="#9042db"/><path d="m833.23 709v-49.93h28.77v49.93zm-35.18-49.93h28.78v49.93h-28.78zm28.78-56.79v49.94h-28.78v-49.94zm35.17 49.94h-28.77v-49.94h28.77zm-72.49-59.08v125h81v-125z" fill="#9042db"/><path d="m681.57 683.67a4.58 4.58 0 1 1 4.26-4.56 4.43 4.43 0 0 1 -4.26 4.56" fill="#552d8e"/><path d="m684.43 677.61a4.27 4.27 0 1 1 -4.26-4.56 4.42 4.42 0 0 1 4.26 4.56z" fill="#f2f2f3"/><path d="m738.63 652.31h-58.32v-48.7h58.32z" fill="#dde9e2"/><path d="m877.45 406.35-64.33-16.48h64.33z" fill="#e4e4e4"/><path d="m672.79 743.5h-2.42v-150.36h77.67v2.58h-75.25z" fill="#552d8e"/><path d="m766.52 752.63h-113.57v-9.13h113.57z" fill="#ff576f"/><path d="m665.46 467.87h88c8.7 0 15.75 7.7 15.75 17.2s-7.05 17.2-15.75 17.2h-88c-8.7 0-15.76-7.71-15.76-17.2s7.06-17.2 15.76-17.2z" fill="#c13651"/><path d="m665.46 475.48h88c7.5 0 13.77 5.72 15.35 13.39a18.21 18.21 0 0 0 .4-3.8c0-9.5-7.05-17.2-15.75-17.2h-88c-8.7 0-15.76 7.7-15.76 17.2a18.91 18.91 0 0 0 .4 3.8c1.59-7.67 7.85-13.39 15.36-13.39z" fill="#ff8396"/><path d="m596.65 157.33h16.58v116.99h-16.58z" fill="#f7f7f7" transform="matrix(.93022554 .36698834 -.36698834 .93022554 121.41 -206.94)"/></svg>