<svg id="Layer_1" data-name="Layer 1" xmlns="http://www.w3.org/2000/svg" viewBox="0 0 968 778"><defs><style>.cls-1{fill:#b761ff;}.cls-2{fill:#ddaa1a;}.cls-3{fill:#f5da62;}.cls-4{fill:#f6d8ba;}.cls-5{fill:#f7f7f7;}.cls-6{fill:#c13651;}.cls-7{fill:#e4e4e4;}.cls-8{fill:#ff576f;}.cls-9{fill:#9042db;}.cls-10{fill:#6a33aa;}.cls-11{fill:#dde9e2;}.cls-12{fill:#403526;}.cls-13{fill:#552d8e;}.cls-14{fill:#f2f2f3;}.cls-15{fill:#ff8396;}</style></defs><title>finance</title><polygon class="cls-1" points="629.53 165.37 591.74 270.37 336.58 199.82 16 184.59 22.22 20.87 336.02 45.98 629.53 165.37 629.53 165.37"/><circle class="cls-2" cx="708.67" cy="345.97" r="56.59"/><circle class="cls-3" cx="708.67" cy="345.97" r="45.35" transform="translate(-37.07 602.44) rotate(-45)"/><path class="cls-2" d="M712.5,340.35c-7-1.78-9.94-3.31-10.12-5.92-.19-2.1,1.19-4.66,6.42-5a25.67,25.67,0,0,1,7.16.35,4.47,4.47,0,0,0,5.32-3.49l.14-.38a4.56,4.56,0,0,0-3.49-5.07,45.28,45.28,0,0,0-7.55-.49l-.3-3a3.8,3.8,0,1,0-7.58.55l.29,3.53c-8.29,2.22-12.64,8.08-12.08,15.14.67,7.72,6.83,11,15.37,13.13,6.09,1.36,8.77,3.14,9.07,6.15s-2.51,5.14-7.21,5.51a28.64,28.64,0,0,1-8.85-.79,4.18,4.18,0,0,0-5.32,3.48l-.15.65A4.34,4.34,0,0,0,697,369.6a39.13,39.13,0,0,0,9.75.95l.28,3.53a3.79,3.79,0,0,0,4.06,3.52h0a3.79,3.79,0,0,0,3.52-4.06l-.39-4.19c8.94-2.33,13.31-8.72,12.61-15.65S722.08,342.73,712.5,340.35Z"/><path class="cls-4" d="M596.49,324.54c5.09,20.16,25.5,63.11,50.43,29.93,12.24-16.28-10.31-22.63-15.47-39-5.84-18.45,24-46.37,40.22-53.93s82.44-6.07,89.17,14.06c5.47,16.38-12.63,46.54,7.23,56.88,29.39,15.3,41.72-42.65,22.16-71.68-13.89-20.62-69-31.66-69-31.66,15.48-10.78,33.85-13.73,52.38-12.9,55.57,2.48,72.51,29.41,80,11.31,16.1-38.93-46.76-50.29-83.78-41.19A203.84,203.84,0,0,0,723,204.69c10.4-11.16,23.06-17.54,35.72-23.45,41.88-19.52,68,3,74-13.59,10.5-28.89-32-34.83-83.07-4.52a203.67,203.67,0,0,0-41.55,33.31c5-11.82,13.87-21.52,22-28.18,26.77-21.91,59-20.2,46.3-41.71-9.37-15.92-43.94,5.26-66.71,29.5-19.54,20.78-29.88,45.23-29.88,45.23L621.64,177,594.25,257.2l24.37,7.31c-16.59,19.66-29.41,31.26-22.13,60Z"/><path class="cls-5" d="M576.55,174.27a9.8,9.8,0,1,0,7.53-11.62,9.79,9.79,0,0,0-7.53,11.62Z"/><path class="cls-5" d="M537.87,159.6A9.8,9.8,0,1,0,545.4,148a9.79,9.79,0,0,0-7.53,11.63Z"/><path class="cls-5" d="M498.36,144a9.8,9.8,0,1,0,7.53-11.64A9.8,9.8,0,0,0,498.36,144Z"/><polyline class="cls-5" points="813.12 380.55 877.45 380.55 877.45 441.5 813.12 441.5 813.12 380.55"/><polygon class="cls-6" points="883.48 389.87 807.1 389.87 807.1 366.59 883.48 366.59 883.48 389.87 883.48 389.87"/><path class="cls-6" d="M928,775.22H490.39c-9.76,0-17.66-9.62-17.66-21.45s7.9-21.46,17.66-21.46H511.2V753h396V732.31H928c9.74,0,17.65,9.62,17.65,21.46s-7.91,21.45-17.65,21.45"/><polyline class="cls-5" points="907.2 752.63 511.2 752.63 511.2 558.39 907.2 558.39 907.2 752.63"/><polyline class="cls-7" points="907.2 571.27 511.2 571.27 511.2 558.39 907.2 558.39 907.2 571.27"/><polygon class="cls-8" points="930.16 558.39 488.24 558.39 521.6 432.84 897.24 432.84 930.16 558.39 930.16 558.39"/><polyline class="cls-9" points="662.37 743.5 661.84 583.37 756.57 583.37 757.1 743.5 662.37 743.5"/><polyline class="cls-10" points="670.37 593.14 748.04 593.14 748.04 743.5 670.37 743.5 670.37 593.14"/><polygon class="cls-11" points="620.36 709 556.39 709 556.39 602.28 620.36 602.28 620.36 709 620.36 709"/><polygon class="cls-11" points="862.01 709 798.04 709 798.04 602.28 862.01 602.28 862.01 709 862.01 709"/><polyline class="cls-12" points="589.86 712.23 589.86 599.04 586.89 599.04 586.89 712.23"/><polyline class="cls-12" points="552.9 657.23 623.84 657.23 623.84 654.05 552.9 654.05"/><path class="cls-9" d="M591.57,709V659.07h28.78V709Zm-35.18-49.93h28.79V709H556.39V659.07Zm28.79-56.79v49.94H556.39V602.28Zm35.17,49.94H591.57V602.28h28.78v49.94Zm-72.49-59.08v125h81v-125Z"/><path class="cls-9" d="M833.23,709V659.07H862V709Zm-35.18-49.93h28.78V709H798.05V659.07Zm28.78-56.79v49.94H798.05V602.28ZM862,652.22H833.23V602.28H862v49.94Zm-72.49-59.08v125h81v-125Z"/><path class="cls-13" d="M681.57,683.67a4.58,4.58,0,1,1,4.26-4.56,4.43,4.43,0,0,1-4.26,4.56"/><path class="cls-14" d="M684.43,677.61a4.27,4.27,0,1,1-4.26-4.56,4.42,4.42,0,0,1,4.26,4.56Z"/><polygon class="cls-11" points="738.63 652.31 680.31 652.31 680.31 603.61 738.63 603.61 738.63 652.31 738.63 652.31"/><polyline class="cls-7" points="877.45 406.35 813.12 389.87 877.45 389.87 877.45 406.35"/><polyline class="cls-13" points="672.79 743.5 670.37 743.5 670.37 593.14 748.04 593.14 748.04 595.72 672.79 595.72 672.79 743.5"/><polygon class="cls-8" points="766.52 752.63 652.95 752.63 652.95 743.5 766.52 743.5 766.52 752.63 766.52 752.63"/><path class="cls-6" d="M665.46,467.87h88c8.7,0,15.75,7.7,15.75,17.2s-7.05,17.2-15.75,17.2h-88c-8.7,0-15.76-7.71-15.76-17.2s7.06-17.2,15.76-17.2Z"/><path class="cls-15" d="M665.46,475.48h88c7.5,0,13.77,5.72,15.35,13.39a18.21,18.21,0,0,0,.4-3.8c0-9.5-7.05-17.2-15.75-17.2h-88c-8.7,0-15.76,7.7-15.76,17.2a18.91,18.91,0,0,0,.4,3.8c1.59-7.67,7.85-13.39,15.36-13.39Z"/><rect class="cls-5" x="596.65" y="157.33" width="16.58" height="116.99" transform="translate(121.41 -206.94) rotate(21.53)"/></svg>