<svg id="Layer_1" data-name="Layer 1" xmlns="http://www.w3.org/2000/svg" viewBox="0 0 250 237"><defs><style>.cls-1{fill:#dd647b;}.cls-2{fill:#ea7591;}.cls-3{fill:#ff8396;}.cls-4{fill:#fff;}.cls-5{fill:#221f1f;}.cls-6{fill:#ddaa1a;}.cls-7{fill:#f5da62;}</style></defs><title>Headers</title><path class="cls-1" d="M226.12,110.69s3.18,2.91,8.37-6.35,1.67,11.53-4,15.92-6-.25-6-.25l1.63-9.32Z"/><path class="cls-2" d="M201.55,101.38s17.28-5.54,25.47,7.86,1.15,20.32-4.34,22.63-21.13-30.49-21.13-30.49Z"/><path class="cls-2" d="M59.12,193l5.81,27.39s10,6,25.82,2.29,7-17.05,7-17.05L59.12,193Z"/><path class="cls-1" d="M147.51,200l3.82,16.27a37.32,37.32,0,0,0,21.83,0c11.46-3.7,2.73-23.22,2.73-23.22L147.51,200Z"/><path class="cls-2" d="M82.29,73s-19.1-20.55-25.1-19.16,2.73,35.66,0,41.16,25.1-22,25.1-22Z"/><path class="cls-1" d="M75.92,78.5S61.28,61.25,60.19,60.79,61.88,78.74,61.28,85,75.92,78.5,75.92,78.5Z"/><path class="cls-2" d="M167.69,197.77l6,19.4s16.37,6.68,31.65-3.65c1.64-11.7,3-40.24,3-40.24l-40.68,22.65"/><path class="cls-3" d="M227.46,135.37c4.09,48.25-47.72,72-105.58,72s-94.12-26.3-94.12-66.43S72.2,64.1,126,64.1c57,0,98.1,31.25,101.49,71.27Z"/><path class="cls-2" d="M85.57,93.13c-.82-3.47,19.9-33.65,25.92-31.19s9.28,43.84,5.46,50.33S86.39,96.59,85.57,93.13Z"/><path class="cls-1" d="M92.77,91.51s12.44-21,15.72-21.27,3.82,38.77-1.64,35S92.46,94.28,92.77,91.51Z"/><path class="cls-1" d="M120.91,70.94s30.64-3.82,58.83,10.31a7.74,7.74,0,0,1,2.46,5.08s-24.5-11.56-58.84-9.28c-.29-2.63-2.45-6.11-2.45-6.11Z"/><path class="cls-3" d="M131.14,206.07l-5.46,17.85s-8.84,3.53-31.27,1.29c-3.66-5.27-8-29.75-8-29.75l44.75,10.61Z"/><path class="cls-2" d="M46.59,122.05c-5-2-26.87,2-26.87,2l4.88,58.17s19,2.34,26.91-1.62S64,166.49,62.63,150.08s-11.08-26.05-16-28Z"/><path class="cls-3" d="M37.82,152.21c1.35,16.06-4.57,29.5-13.22,30S7.84,170.15,6.49,154.09s4.58-29.51,13.23-30,16.76,12.08,18.1,28.15Z"/><path class="cls-1" d="M19.21,161.29a2.62,2.62,0,0,1-2.69,2.62l-1,.06a2.78,2.78,0,0,1-3.1-2.28l-1.42-17a2.62,2.62,0,0,1,2.68-2.63l1-.06a2.81,2.81,0,0,1,3.11,2.28l1.42,17Z"/><path class="cls-1" d="M30.59,161.62a2.62,2.62,0,0,1-2.69,2.63l-1,.06a2.78,2.78,0,0,1-3.1-2.28l-1.42-17a2.63,2.63,0,0,1,2.69-2.63l1-.06a2.8,2.8,0,0,1,3.1,2.28l1.42,17Z"/><path class="cls-4" d="M58.5,111.46c-1.9,5.12,1.19,10.49,6.9,12s11.88-1.4,13.77-6.51-1.19-10.49-6.9-12-11.87,1.4-13.77,6.51Z"/><path class="cls-5" d="M59.63,111.76c-1.49,4,.93,8.2,5.39,9.39s9.29-1.09,10.77-5.09-.93-8.2-5.4-9.39-9.28,1.1-10.76,5.09Z"/><path class="cls-4" d="M50.84,110.4c-2.09,3.43-6,5.26-8.66,4.09s-3.19-4.91-1.1-8.34,6-5.26,8.65-4.09,3.19,4.91,1.11,8.34Z"/><path class="cls-5" d="M48.88,109.56c-1.63,2.68-4.66,4.12-6.77,3.2s-2.49-3.83-.86-6.52,4.66-4.12,6.77-3.2,2.49,3.84.86,6.52Z"/><path class="cls-4" d="M74.28,111.08a2,2,0,1,1-2-1.67,1.84,1.84,0,0,1,2,1.67Z"/><path class="cls-4" d="M48.12,106.18a1.07,1.07,0,0,1-1.3.45.8.8,0,0,1-.53-1.1,1.08,1.08,0,0,1,1.3-.45.82.82,0,0,1,.53,1.1Z"/><circle class="cls-6" cx="151.4" cy="39.54" r="34.29"/><circle class="cls-7" cx="151.4" cy="39.54" r="27.47" transform="translate(16.39 118.64) rotate(-45)"/><path class="cls-6" d="M153.72,36.13c-4.24-1.08-6-2-6.13-3.59-.12-1.26.72-2.82,3.88-3a15.33,15.33,0,0,1,4.34.22A2.71,2.71,0,0,0,159,27.61l.08-.24A2.76,2.76,0,0,0,157,24.3a28.35,28.35,0,0,0-4.58-.3l-.18-1.82a2.3,2.3,0,1,0-4.59.33l.17,2.14c-5,1.35-7.66,4.9-7.31,9.18.4,4.67,4.13,6.68,9.31,8,3.69.83,5.31,1.9,5.49,3.73s-1.52,3.11-4.37,3.34a16.93,16.93,0,0,1-5.35-.49,2.54,2.54,0,0,0-3.23,2.12l-.09.39a2.63,2.63,0,0,0,2,3,23.59,23.59,0,0,0,5.91.57l.17,2.14a2.29,2.29,0,0,0,2.46,2.13h0A2.29,2.29,0,0,0,155,56.24l-.24-2.53c5.42-1.42,8.07-5.29,7.65-9.49S159.52,37.58,153.72,36.13Z"/></svg>