<svg viewBox="0 0 250 237" xmlns="http://www.w3.org/2000/svg"><path d="m226.12 110.69s3.18 2.91 8.37-6.35 1.67 11.53-4 15.92-6-.25-6-.25z" fill="#dd647b"/><path d="m201.55 101.38s17.28-5.54 25.47 7.86 1.15 20.32-4.34 22.63-21.13-30.49-21.13-30.49z" fill="#ea7591"/><path d="m59.12 193 5.81 27.39s10 6 25.82 2.29 7-17.05 7-17.05z" fill="#ea7591"/><path d="m147.51 200 3.82 16.27a37.32 37.32 0 0 0 21.83 0c11.46-3.7 2.73-23.22 2.73-23.22z" fill="#dd647b"/><path d="m82.29 73s-19.1-20.55-25.1-19.16 2.73 35.66 0 41.16 25.1-22 25.1-22z" fill="#ea7591"/><path d="m75.92 78.5s-14.64-17.25-15.73-17.71 1.69 17.95 1.09 24.21 14.64-6.5 14.64-6.5z" fill="#dd647b"/><path d="m167.69 197.77 6 19.4s16.37 6.68 31.65-3.65c1.64-11.7 3-40.24 3-40.24l-40.68 22.65" fill="#ea7591"/><path d="m227.46 135.37c4.09 48.25-47.72 72-105.58 72s-94.12-26.3-94.12-66.43 44.44-76.84 98.24-76.84c57 0 98.1 31.25 101.49 71.27z" fill="#ff8396"/><path d="m85.57 93.13c-.82-3.47 19.9-33.65 25.92-31.19s9.28 43.84 5.46 50.33-30.56-15.68-31.38-19.14z" fill="#ea7591"/><path d="m92.77 91.51s12.44-21 15.72-21.27 3.82 38.77-1.64 35-14.39-10.96-14.08-13.73z" fill="#dd647b"/><path d="m120.91 70.94s30.64-3.82 58.83 10.31a7.74 7.74 0 0 1 2.46 5.08s-24.5-11.56-58.84-9.28c-.29-2.63-2.45-6.11-2.45-6.11z" fill="#dd647b"/><path d="m131.14 206.07-5.46 17.85s-8.84 3.53-31.27 1.29c-3.66-5.27-8-29.75-8-29.75l44.75 10.61z" fill="#ff8396"/><path d="m46.59 122.05c-5-2-26.87 2-26.87 2l4.88 58.17s19 2.34 26.91-1.62 12.49-14.11 11.12-30.52-11.08-26.05-16-28z" fill="#ea7591"/><path d="m37.82 152.21c1.35 16.06-4.57 29.5-13.22 30s-16.76-12.06-18.11-28.12 4.58-29.51 13.23-30 16.76 12.08 18.1 28.15z" fill="#ff8396"/><path d="m19.21 161.29a2.62 2.62 0 0 1 -2.69 2.62l-1 .06a2.78 2.78 0 0 1 -3.1-2.28l-1.42-17a2.62 2.62 0 0 1 2.68-2.63l1-.06a2.81 2.81 0 0 1 3.11 2.28l1.42 17z" fill="#dd647b"/><path d="m30.59 161.62a2.62 2.62 0 0 1 -2.69 2.63l-1 .06a2.78 2.78 0 0 1 -3.1-2.28l-1.42-17a2.63 2.63 0 0 1 2.69-2.63l1-.06a2.8 2.8 0 0 1 3.1 2.28z" fill="#dd647b"/><path d="m58.5 111.46c-1.9 5.12 1.19 10.49 6.9 12s11.88-1.4 13.77-6.51-1.19-10.49-6.9-12-11.87 1.4-13.77 6.51z" fill="#fff"/><path d="m59.63 111.76c-1.49 4 .93 8.2 5.39 9.39s9.29-1.09 10.77-5.09-.93-8.2-5.4-9.39-9.28 1.1-10.76 5.09z" fill="#221f1f"/><path d="m50.84 110.4c-2.09 3.43-6 5.26-8.66 4.09s-3.19-4.91-1.1-8.34 6-5.26 8.65-4.09 3.19 4.91 1.11 8.34z" fill="#fff"/><path d="m48.88 109.56c-1.63 2.68-4.66 4.12-6.77 3.2s-2.49-3.83-.86-6.52 4.66-4.12 6.77-3.2 2.49 3.84.86 6.52z" fill="#221f1f"/><path d="m74.28 111.08a2 2 0 1 1 -2-1.67 1.84 1.84 0 0 1 2 1.67z" fill="#fff"/><path d="m48.12 106.18a1.07 1.07 0 0 1 -1.3.45.8.8 0 0 1 -.53-1.1 1.08 1.08 0 0 1 1.3-.45.82.82 0 0 1 .53 1.1z" fill="#fff"/><circle cx="151.4" cy="39.54" fill="#ddaa1a" r="34.29"/><circle cx="151.4" cy="39.54" fill="#f5da62" r="27.47" transform="matrix(.70710678 -.70710678 .70710678 .70710678 16.39 118.64)"/><path d="m153.72 36.13c-4.24-1.08-6-2-6.13-3.59-.12-1.26.72-2.82 3.88-3a15.33 15.33 0 0 1 4.34.22 2.71 2.71 0 0 0 3.19-2.15l.08-.24a2.76 2.76 0 0 0 -2.08-3.07 28.35 28.35 0 0 0 -4.58-.3l-.18-1.82a2.3 2.3 0 1 0 -4.59.33l.17 2.14c-5 1.35-7.66 4.9-7.31 9.18.4 4.67 4.13 6.68 9.31 8 3.69.83 5.31 1.9 5.49 3.73s-1.52 3.11-4.37 3.34a16.93 16.93 0 0 1 -5.35-.49 2.54 2.54 0 0 0 -3.23 2.12l-.09.39a2.63 2.63 0 0 0 2 3 23.59 23.59 0 0 0 5.91.57l.17 2.14a2.29 2.29 0 0 0 2.46 2.13 2.29 2.29 0 0 0 2.19-2.52l-.24-2.53c5.42-1.42 8.07-5.29 7.65-9.49s-2.89-6.64-8.69-8.09z" fill="#ddaa1a"/></svg>