<svg viewBox="0 0 106 106" xmlns="http://www.w3.org/2000/svg"><g fill="#7ab744"><path d="m34.5 36s-3-3-3-6a11.25 11.25 0 0 1 4 5c1 3-1 1-1 1z"/><path d="m47.13 32.09s-1.22-4.07.2-6.71a11.2 11.2 0 0 1 1.15 6.3c-.54 3.12-1.35.41-1.35.41z"/><path d="m56.13 30.09s-1.22-4.07.2-6.71a11.2 11.2 0 0 1 1.15 6.3c-.54 3.12-1.35.41-1.35.41z"/><path d="m67.94 36.09s3.06-2.89 6.06-2.79a11.26 11.26 0 0 1 -5.14 3.83c-2.99.87-.92-1.04-.92-1.04z"/><path d="m91.07 47.19s4.24-.24 6.48 1.75a11.26 11.26 0 0 1 -6.4-.34c-2.9-1.25-.08-1.41-.08-1.41z"/><path d="m85.13 36.56s2.59 3.37 2.2 6.34a11.3 11.3 0 0 1 -3.33-5.47c-.59-3.11 1.13-.87 1.13-.87z"/><path d="m79.07 86.19s4.24-.24 6.48 1.75a11.26 11.26 0 0 1 -6.4-.34c-2.9-1.25-.08-1.41-.08-1.41z"/><path d="m28 41s3.76 2 4.66 4.82a11.3 11.3 0 0 1 -5.32-3.57c-1.83-2.52.66-1.25.66-1.25z"/><path d="m8.22 56.91s4.23.23 6.23 2.47a11.23 11.23 0 0 1 -6.31-1.06c-2.75-1.56.08-1.41.08-1.41z"/><path d="m9.24 74.79s2.22-3.62 5.14-4.32a11.33 11.33 0 0 1 -3.93 5.06c-2.69 1.67-1.21-.74-1.21-.74z"/></g><path d="m80.5 106 .5-45.5s11 1 11-6v-14s0-4-4-4-4 4-4 4v8a2.94 2.94 0 0 1 -3 3c-1.08 0-2-1-3-3-1.92-3.85-3.09-11.36-10-16-3.38-2.27-7.75-4.33-15-4-22 1-26 15-27 21a126.47 126.47 0 0 0 -1 16s-1 2-3 0v-13s0-5-5-5-5 5-5 5v17a12.92 12.92 0 0 0 13 10l-.5 26.5s11.58.48 27.54.49 28.46-.49 28.46-.49z" fill="#89d24e"/><g fill="#afe283"><path d="m45 32.5s-8 3-10 16l-1 58.44 3.13-.88.87-57.56s0-8 7-16z"/><path d="m59.39 32.5s7.34 3 9.18 16l.93 58.44-2.87-.88-.82-57.56a28 28 0 0 0 -6.42-16z"/><path d="m51.5 107h3v-60s-1-9-2-9a58.46 58.46 0 0 0 -1 10z"/></g><path d="m30 68.5s2 9 10 10 10-7 10-7h3s4 7 10 7c0 0 8 0 11-10z" fill="#fff"/><path d="m41 71.5s2 0 3-3h-7.47s.47 3 4.47 3z" fill="#4b5a68"/><path d="m63 71.5s3.33 0 4.16-3h-8.84s.68 3 4.68 3z" fill="#4b5a68"/></svg>