<svg viewBox="0 0 106 106" xmlns="http://www.w3.org/2000/svg" xmlns:xlink="http://www.w3.org/1999/xlink"><clipPath id="a"><path d="m13.58 59.22v-3.3a.92.92 0 0 0 .14-.56 15.36 15.36 0 0 1 .53-2.44c1.94-6.38 7.51-16.16 13.75-16.92 1.1-.14 5.21-1.17 6.31-1.19.69.09 2.38 6.66 3.06 6.79 20.13 4-14.3-15.47 4.9 4.93a15.69 15.69 0 0 1 3.64 6.47c.08.29.17.36.44.22a11.82 11.82 0 0 1 1.41-.62 23.38 23.38 0 0 1 10.07-1.42 22.34 22.34 0 0 1 6.59 1.43c.27.11.35 0 .45-.23.7-1.65 1.63-8.54 2.8-9.83a16.27 16.27 0 0 1 11.49-5.55 15.79 15.79 0 0 1 9.63 2.43c4.49 2.82 7.21 12.37 7.77 18.06v.38a15.73 15.73 0 0 1 -3.83 11.24 16.68 16.68 0 0 1 -22.73 2.44.34.34 0 0 0 -.52 0 15.69 15.69 0 0 1 -3.77 2.45 23.39 23.39 0 0 1 -16.72 1 16.4 16.4 0 0 1 -7.84-4.88c-.2-.24-.33-.12-.5 0a16.24 16.24 0 0 1 -9.71 3.73 16.21 16.21 0 0 1 -11-3.38 16 16 0 0 1 -6.18-10.26 2.56 2.56 0 0 0 -.18-.99z"/></clipPath><clipPath id="b"><ellipse cx="43.51" cy="60.12" rx="2.66" ry="2.88"/></clipPath><clipPath id="c"><ellipse cx="65.9" cy="60.12" rx="2.66" ry="2.88"/></clipPath><path d="m54.5 40.14s5-18.44 15-19.52c0 0 11-6.51 38 22.77 0 0-15 3.25-12 9.76 0 0-14-5.42-15 8.67h-53s-1-11.93-13-8.67c0 0-2-10.85-13-6.51 0 0 37-55.3 53-6.5z" fill="#cc5056"/><g clip-path="url(#a)"><path d="m54.5 40.14s5-18.44 15-19.52c0 0 11-6.51 38 22.77 0 0-15 3.25-12 9.76 0 0-14-5.42-15 8.67h-53s-1-11.93-13-8.67c0 0-2-10.85-13-6.51 0 0 37-55.3 53-6.5z" fill="#e2646a"/></g><path d="m48.5 48.56-9-13c-2.44-2.44-6.63-.32-7 3.26v15.18z" fill="#f5efca"/><path d="m60.5 50.12 9-14.46c2.44-2.71 6.63-.36 7 3.62v16.87z" fill="#f5efca"/><path d="m26.5 105.64v-45.88s.62-16.47 28-17.82c0 0 20-.94 28 17.14v46.56z" fill="#fd7678"/><ellipse cx="43.64" cy="64.01" fill="#fff" rx="6.14" ry="5.99"/><ellipse cx="66.03" cy="64.01" fill="#fff" rx="6.14" ry="5.99"/><g clip-path="url(#b)"><ellipse cx="43.64" cy="64.67" fill="#424242" rx="6.14" ry="6.66"/></g><g clip-path="url(#c)"><ellipse cx="66.03" cy="64.67" fill="#424242" rx="6.14" ry="6.66"/></g><path d="m74.5 87.6-4.07-4.76a2.09 2.09 0 0 0 -3.26.56l-3.67 7.45z" fill="#f5efca"/><path d="m41.66 82.82-4.26 3.3a1.18 1.18 0 0 0 .38 2l7.91 2a1.13 1.13 0 0 0 1.08-1.8l-3.65-5.28a1 1 0 0 0 -1.46-.22z" fill="#f5efca"/><path d="m32.23 82.17a2.3 2.3 0 0 1 1.18 1 12.61 12.61 0 0 0 6.42 4.57 22.16 22.16 0 0 0 6 1.13c1.51.09 3 .15 4.54.14q5.79 0 11.59-.17a33.67 33.67 0 0 0 8.51-1.09 13.66 13.66 0 0 0 5.85-3.17 13.47 13.47 0 0 0 1.37-1.58c.56-.72 1-.94 1.63-.69a2.17 2.17 0 0 1 1.18 1.85 2.32 2.32 0 0 1 -.5 1.54 14 14 0 0 1 -5.74 4.57 24.3 24.3 0 0 1 -6.43 1.77 73.17 73.17 0 0 1 -9.7.54c-2.72 0-5.45.12-8.17.15a38.69 38.69 0 0 1 -9-.87 16.86 16.86 0 0 1 -7.83-3.82 17.26 17.26 0 0 1 -2.13-2.37 2.16 2.16 0 0 1 1-3.43s.07 0 .1-.07z" fill="#b2404b"/></svg>