<svg id="Layer_1" data-name="Layer 1" xmlns="http://www.w3.org/2000/svg" viewBox="0 0 106 106"><defs><style>.cls-1{fill:#ffbdae;}.cls-2{fill:#fff;}.cls-3{fill:#ff4e4a;}.cls-4{fill:#333;}.cls-5{fill:#f29b91;}.cls-6{fill:#ff9289;}</style></defs><title>Avatars</title><circle class="cls-1" cx="81.5" cy="51" r="5"/><circle class="cls-1" cx="22.5" cy="51" r="5"/><path class="cls-2" d="M88.5,106V90s2-10-8-14V39s-2-12-10-18c0,0,2-4,0-7,0,0-3,5-7,3,0,0,2-5,0-8,0,0-5,6-7,5,0,0-29-4-33,24l-1,38a15.89,15.89,0,0,0-8,14v16Z"/><path class="cls-1" d="M38.5,29h25s10,0,11,10V53s-3,20-20,19c0,0-19,3-26-17V39S28.5,29,38.5,29Z"/><rect class="cls-3" x="46.5" y="51" width="11" height="5" rx="2.5"/><circle class="cls-4" cx="62" cy="44.5" r="2.5"/><circle class="cls-4" cx="41" cy="44.5" r="2.5"/><rect class="cls-5" x="34.5" y="37" width="34" height="6" rx="3"/><path class="cls-2" d="M42.5,61l-3-4s-1-1-2,1a10.56,10.56,0,0,0,0,6Z"/><path class="cls-2" d="M59.5,61l2.76-4s.91-1,1.83,1a11.44,11.44,0,0,1,0,6Z"/><path class="cls-5" d="M34.5,65.1s5-7.1,17-6.1c0,0,11-1,18,6,0,0-3,7-15,7h-4s-10,0-16-6.9"/><rect class="cls-1" x="28.5" y="80" width="48" height="32" rx="12"/><circle class="cls-6" cx="42.5" cy="91" r="3"/><circle class="cls-6" cx="60.5" cy="91" r="3"/></svg>