<svg id="Layer_1" data-name="Layer 1" xmlns="http://www.w3.org/2000/svg" xmlns:xlink="http://www.w3.org/1999/xlink" viewBox="0 0 106 106"><defs><style>.cls-1{fill:none;}.cls-2{fill:#4bd292;}.cls-3{fill:#298c5e;}.cls-4{fill:#fff;}.cls-5{clip-path:url(#clip-path);}.cls-6{fill:#4b5a68;}.cls-7{clip-path:url(#clip-path-2);}</style><clipPath id="clip-path"><circle class="cls-1" cx="61" cy="89.5" r="3.5"/></clipPath><clipPath id="clip-path-2"><circle class="cls-1" cx="42" cy="89.5" r="3.5"/></clipPath></defs><title>Avatars</title><path class="cls-2" d="M23.5,106V47s3-19,25-21c0,0,20.5-2.5,28.5,18.5,0,0,9,22-13,31,0,0,17,4,15,16v15Z"/><path class="cls-3" d="M23.5,53S30,51.5,31,48.5c0,0,1.61-4.87-4.7-8.94C26.3,39.56,23,44.5,23.5,53Z"/><path class="cls-3" d="M32,32.5a6.29,6.29,0,0,0,7,3s5.39-2,3.69-8.49C42.69,27,41,26.5,32,32.5Z"/><path class="cls-3" d="M53.65,26.08S55,31.5,59,33.5c0,0,4.79,2.88,7.9-2.56C66.9,30.94,58.31,25.66,53.65,26.08Z"/><path class="cls-3" d="M73.45,37.63S70,39.5,71,44.5c0,0,1,5,7.35,5C78.35,49.49,76.9,41.76,73.45,37.63Z"/><path class="cls-3" d="M78.35,60.11S73,58.5,71,62.5a6.35,6.35,0,0,0,1.11,8S78.69,63.71,78.35,60.11Z"/><path class="cls-3" d="M61,56.5s4-3-3-11c0,0-7-5-13,0,0,0-5,6-4,13,0,0,3,13,14,16,0,0,6.77,1.79,10.39.4l1.51-.75S64,76.5,52,70.5s-8-19-8-19,2-5,6-6C50,45.5,61,44.5,61,56.5Z"/><path class="cls-3" d="M61.11,56.61c1.77-1.47,1.2-4.27.45-6.07-1.75-4.24-5-7-9.63-7.37-8.93-.65-13,10.52-10.32,17.75,3.3,9,11.07,15.29,20.93,14.63.42,0,4.64-1.27,4.23-1.49s-4,.23-4.64.11c-7.7-1.46-16.48-5.84-18.26-14.1-1-4.48-.39-9.53,3.18-12.73,2.26-2,4.43-2,7.1-1.18,4.72,1.48,6.52,5.65,6.7,10.34,0,.19.31.19.3,0-.22-5.83-3.54-11.26-10-11.16-4,.06-6.86,3.92-7.61,7.58a15.9,15.9,0,0,0,7.13,17C53.72,71.8,63.13,77.08,67,74.28a.15.15,0,0,0-.15-.26c-10.7,5.27-23.07-4.5-25.5-14.9-1.7-7.27,3.3-17.08,11.8-15.48,4.31.81,12.78,8.63,7.77,12.75C60.74,56.52,61,56.73,61.11,56.61Z"/><ellipse class="cls-4" cx="60.5" cy="95.5" rx="7" ry="6.5"/><g class="cls-5"><ellipse class="cls-6" cx="60.5" cy="95.5" rx="7" ry="6.5"/></g><ellipse class="cls-4" cx="41.5" cy="95.5" rx="7" ry="6.5"/><g class="cls-7"><ellipse class="cls-6" cx="41.5" cy="95.5" rx="7" ry="6.5"/></g></svg>