<svg  viewBox="0 0 106 106"  xmlns="http://www.w3.org/2000/svg" xmlns:xlink="http://www.w3.org/1999/xlink"><clipPath id="a"><circle cx="80" cy="93.5" r="7.5"/></clipPath><clipPath id="b"><path d="m14.5 45s9-15 22-7l-6-18-14 6-14 9z"/></clipPath><clipPath id="c"><path d="m41.5 32s13-12 26 2l-1-20h-19l-6 9z"/></clipPath><clipPath id="d"><path d="m71.5 37s14-6 24 9l6-14-16-9-8 3z"/></clipPath><clipPath id="e"><circle cx="51.5" cy="104" r="10"/></clipPath><clipPath id="f"><ellipse cx="81.2" cy="70.36" rx="4.63" ry="4.47" transform="matrix(.98608322 -.16625246 .16625246 .98608322 -10.57 14.48)"/></clipPath><path d="m25.5 73.93v23.8c0 4.57 3 8.27 6.74 8.27h44.52c3.72 0 6.74-3.7 6.74-8.27v-21.15a9.55 9.55 0 0 0 -.45-3c-1.48-4.61-7.37-17-28.23-19.11a5.62 5.62 0 0 1 -.57-.09c-2.18-.38-18.2-3.14-27.71 15.12a9.6 9.6 0 0 0 -1.04 4.43z" fill="#7abc40"/><path d="m25.5 73.93v23.8c0 4.57 3 8.27 6.74 8.27h44.52c3.72 0 6.74-3.7 6.74-8.27v-21.15a9.55 9.55 0 0 0 -.45-3c-1.48-4.61-7.37-17-28.23-19.11a5.62 5.62 0 0 1 -.57-.09c-2.18-.38-18.2-3.14-27.71 15.12a9.6 9.6 0 0 0 -1.04 4.43z" fill="#7abc40"/><g clip-path="url(#a)" opacity=".68"><path d="m25.5 73.93v23.8c0 4.57 3 8.27 6.74 8.27h44.52c3.72 0 6.74-3.7 6.74-8.27v-21.15a9.55 9.55 0 0 0 -.45-3c-1.48-4.61-7.37-17-28.23-19.11a5.62 5.62 0 0 1 -.57-.09c-2.18-.38-18.2-3.14-27.71 15.12a9.6 9.6 0 0 0 -1.04 4.43z" fill="#6da538"/></g><path d="m79.5 68s-3-9 7-21l-11-4s3 7-5 19 9 6 9 6z" fill="#7abc40"/><path d="m60.5 56s-7-6-2-19h-9s4 12 0 19z" fill="#7abc40"/><path d="m32.5 45s-2 9 6 19l-10 5s4-8-4-21c-8.79-14.28 8-3 8-3z" fill="#7abc40"/><circle cx="54" cy="32.5" fill="#fff" r="9.5"/><circle cx="26" cy="40.5" fill="#fff" r="9.5"/><circle cx="83" cy="40.5" fill="#fff" r="9.5"/><circle cx="53.5" cy="29" fill="#4b5a68" r="3"/><circle cx="83.5" cy="38" fill="#4b5a68" r="3"/><circle cx="25.5" cy="38" fill="#4b5a68" r="3"/><g clip-path="url(#b)"><circle cx="26" cy="40.5" fill="#7abc40" r="9.5"/></g><g clip-path="url(#c)"><circle cx="54" cy="32.5" fill="#7abc40" r="9.5"/></g><g clip-path="url(#d)"><circle cx="83" cy="40.5" fill="#7abc40" r="9.5"/></g><g fill="#6da538"><circle cx="38" cy="76.5" opacity=".7" r="5.5"/><circle cx="53.5" cy="65" opacity=".7" r="4"/><circle cx="30.5" cy="98" opacity=".7" r="4"/><circle cx="61.32" cy="81.01" opacity=".7" r="6.45"/></g><g clip-path="url(#e)" opacity=".68"><path d="m25.5 73.93v23.8c0 4.57 3 8.27 6.74 8.27h44.52c3.72 0 6.74-3.7 6.74-8.27v-21.15a9.55 9.55 0 0 0 -.45-3c-1.48-4.61-7.37-17-28.23-19.11a5.62 5.62 0 0 1 -.57-.09c-2.18-.38-18.2-3.14-27.71 15.12a9.6 9.6 0 0 0 -1.04 4.43z" fill="#6da538"/></g><g clip-path="url(#f)" opacity=".68"><path d="m25.5 73.93v23.8c0 4.57 3 8.27 6.74 8.27h44.52c3.72 0 6.74-3.7 6.74-8.27v-21.15a9.55 9.55 0 0 0 -.45-3c-1.48-4.61-7.37-17-28.23-19.11a5.62 5.62 0 0 1 -.57-.09c-2.18-.38-18.2-3.14-27.71 15.12a9.6 9.6 0 0 0 -1.04 4.43z" fill="#6da538"/></g></svg>