<svg id="Layer_1" data-name="Layer 1" xmlns="http://www.w3.org/2000/svg" viewBox="0 0 106 106"><defs><style>.cls-1{fill:#7ab744;}.cls-2{fill:#89d24e;}.cls-3{fill:#afe283;}.cls-4{fill:#fff;}.cls-5{fill:#4b5a68;}</style></defs><title>Avatars</title><path class="cls-1" d="M34.5,36s-3-3-3-6a11.25,11.25,0,0,1,4,5C36.5,38,34.5,36,34.5,36Z"/><path class="cls-1" d="M47.13,32.09s-1.22-4.07.2-6.71a11.2,11.2,0,0,1,1.15,6.3C47.94,34.8,47.13,32.09,47.13,32.09Z"/><path class="cls-1" d="M56.13,30.09s-1.22-4.07.2-6.71a11.2,11.2,0,0,1,1.15,6.3C56.94,32.8,56.13,30.09,56.13,30.09Z"/><path class="cls-1" d="M67.94,36.09S71,33.2,74,33.3a11.26,11.26,0,0,1-5.14,3.83C65.87,38,67.94,36.09,67.94,36.09Z"/><path class="cls-1" d="M91.07,47.19s4.24-.24,6.48,1.75a11.26,11.26,0,0,1-6.4-.34C88.25,47.35,91.07,47.19,91.07,47.19Z"/><path class="cls-1" d="M85.13,36.56s2.59,3.37,2.2,6.34A11.3,11.3,0,0,1,84,37.43C83.41,34.32,85.13,36.56,85.13,36.56Z"/><path class="cls-1" d="M79.07,86.19s4.24-.24,6.48,1.75a11.26,11.26,0,0,1-6.4-.34C76.25,86.35,79.07,86.19,79.07,86.19Z"/><path class="cls-1" d="M28,41s3.76,2,4.66,4.82a11.3,11.3,0,0,1-5.32-3.57C25.51,39.73,28,41,28,41Z"/><path class="cls-1" d="M8.22,56.91s4.23.23,6.23,2.47a11.23,11.23,0,0,1-6.31-1.06C5.39,56.76,8.22,56.91,8.22,56.91Z"/><path class="cls-1" d="M9.24,74.79s2.22-3.62,5.14-4.32a11.33,11.33,0,0,1-3.93,5.06C7.76,77.2,9.24,74.79,9.24,74.79Z"/><path class="cls-2" d="M80.5,106,81,60.5s11,1,11-6v-14s0-4-4-4-4,4-4,4v8a2.94,2.94,0,0,1-3,3c-1.08,0-2-1-3-3-1.92-3.85-3.09-11.36-10-16-3.38-2.27-7.75-4.33-15-4-22,1-26,15-27,21a126.47,126.47,0,0,0-1,16s-1,2-3,0v-13s0-5-5-5-5,5-5,5v17a12.92,12.92,0,0,0,13,10L24.5,106s11.58.48,27.54.49S80.5,106,80.5,106Z"/><path class="cls-3" d="M45,32.5s-8,3-10,16l-1,58.44,3.13-.88L38,48.5S38,40.5,45,32.5Z"/><path class="cls-3" d="M59.39,32.5s7.34,3,9.18,16l.93,58.44-2.87-.88L65.81,48.5A28,28,0,0,0,59.39,32.5Z"/><path class="cls-3" d="M51.5,107h3V47s-1-9-2-9a58.46,58.46,0,0,0-1,10v59Z"/><path class="cls-4" d="M30,68.5s2,9,10,10,10-7,10-7h3s4,7,10,7c0,0,8,0,11-10Z"/><path class="cls-5" d="M41,71.5s2,0,3-3H36.53S37,71.5,41,71.5Z"/><path class="cls-5" d="M63,71.5s3.33,0,4.16-3H58.32S59,71.5,63,71.5Z"/></svg>