<svg id="Layer_1" data-name="Layer 1" xmlns="http://www.w3.org/2000/svg" xmlns:xlink="http://www.w3.org/1999/xlink" viewBox="0 0 106 106"><defs><style>.cls-1,.cls-7{fill:none;}.cls-2{fill:#74cbf4;}.cls-3{fill:#fff;}.cls-4{clip-path:url(#clip-path);}.cls-5{fill:#4b5a68;}.cls-6{clip-path:url(#clip-path-2);}.cls-7{stroke:#fff;stroke-miterlimit:10;}.cls-8{fill:#495761;}</style><clipPath id="clip-path"><circle class="cls-1" cx="62.38" cy="78.63" r="2.62"/></clipPath><clipPath id="clip-path-2"><circle class="cls-1" cx="41.13" cy="78.63" r="2.62"/></clipPath></defs><title>Avatars</title><path class="cls-2" d="M23.5,106V53s2-24,27-23c0,0,23-2,28,23l1,53Z"/><ellipse class="cls-3" cx="62" cy="83.12" rx="5.25" ry="4.88"/><g class="cls-4"><ellipse class="cls-5" cx="62" cy="83.12" rx="5.25" ry="4.88"/></g><ellipse class="cls-3" cx="40.75" cy="83.12" rx="5.25" ry="4.88"/><g class="cls-6"><ellipse class="cls-5" cx="40.75" cy="83.12" rx="5.25" ry="4.88"/></g><line class="cls-7" x1="78.53" y1="54.71" x2="78.74" y2="65.81"/><path class="cls-8" d="M23.5,66.33l55.24-.52A15.17,15.17,0,0,0,90,75.5s3-7-5-15c0,0,12-4,13-10,0,0-8-6-19,4v-2H24Z"/><polygon class="cls-8" points="68.5 44 73.5 39 71.5 37 68.5 44"/><path class="cls-8" d="M68.87,44.37l5-5a.53.53,0,0,0,0-.74l-2-2a.52.52,0,0,0-.82.11l-3,7c-.27.61.64,1.14.9.52l3-7-.82.11,2,2v-.74l-5,5A.52.52,0,0,0,68.87,44.37Z"/><polygon class="cls-8" points="58.29 39.79 58.98 32.76 56.17 32.48 58.29 39.79"/><path class="cls-8" d="M58.81,39.79l.7-7c0-.3-.27-.49-.53-.52L56.17,32a.53.53,0,0,0-.51.67l2.12,7.31a.52.52,0,0,0,1-.28l-2.12-7.31-.5.66,2.81.28-.52-.53-.7,7C57.69,40.46,58.75,40.46,58.81,39.79Z"/><polygon class="cls-8" points="44.22 34.63 43.36 27.61 40.55 27.95 44.22 34.63"/><path class="cls-8" d="M44.74,34.62l-.86-7c0-.26-.21-.57-.52-.53l-2.81.35a.53.53,0,0,0-.45.79l3.67,6.67c.32.59,1.23.06.9-.53L41,27.69l-.45.79,2.81-.35-.53-.52.86,7C43.77,35.29,44.83,35.3,44.74,34.62Z"/><polygon class="cls-8" points="31.55 42.97 28.35 36.66 25.83 37.94 31.55 42.97"/><path class="cls-8" d="M32,42.7l-3.19-6.31a.54.54,0,0,0-.72-.19l-2.53,1.28a.53.53,0,0,0-.1.83l5.72,5c.5.44,1.25-.3.74-.75l-5.72-5-.11.83,2.53-1.28-.72-.19,3.19,6.31C31.4,43.83,32.31,43.3,32,42.7Z"/></svg>