<svg viewBox="0 0 106 106" xmlns="http://www.w3.org/2000/svg" xmlns:xlink="http://www.w3.org/1999/xlink"><clipPath id="a"><circle cx="62.38" cy="78.63" r="2.62"/></clipPath><clipPath id="b"><circle cx="41.13" cy="78.63" r="2.62"/></clipPath><path d="m23.5 106v-53s2-24 27-23c0 0 23-2 28 23l1 53z" fill="#74cbf4"/><ellipse cx="62" cy="83.12" fill="#fff" rx="5.25" ry="4.88"/><g clip-path="url(#a)"><ellipse cx="62" cy="83.12" fill="#4b5a68" rx="5.25" ry="4.88"/></g><ellipse cx="40.75" cy="83.12" fill="#fff" rx="5.25" ry="4.88"/><g clip-path="url(#b)"><ellipse cx="40.75" cy="83.12" fill="#4b5a68" rx="5.25" ry="4.88"/></g><path d="m78.53 54.71.21 11.1" fill="none" stroke="#fff" stroke-miterlimit="10"/><g fill="#495761"><path d="m23.5 66.33 55.24-.52a15.17 15.17 0 0 0 11.26 9.69s3-7-5-15c0 0 12-4 13-10 0 0-8-6-19 4v-2h-55z"/><path d="m68.5 44 5-5-2-2z"/><path d="m68.87 44.37 5-5a.53.53 0 0 0 0-.74l-2-2a.52.52 0 0 0 -.82.11l-3 7c-.27.61.64 1.14.9.52l3-7-.82.11 2 2v-.74l-5 5a.52.52 0 0 0 .74.74z"/><path d="m58.29 39.79.69-7.03-2.81-.28z"/><path d="m58.81 39.79.7-7c0-.3-.27-.49-.53-.52l-2.81-.27a.53.53 0 0 0 -.51.67l2.12 7.31a.52.52 0 0 0 1-.28l-2.12-7.31-.5.66 2.81.28-.52-.53-.7 7c-.06.66 1 .66 1.06-.01z"/><path d="m44.22 34.63-.86-7.02-2.81.34z"/><path d="m44.74 34.62-.86-7c0-.26-.21-.57-.52-.53l-2.81.35a.53.53 0 0 0 -.45.79l3.67 6.67c.32.59 1.23.06.9-.53l-3.67-6.68-.45.79 2.81-.35-.53-.52.86 7c.08.68 1.14.69 1.05.01z"/><path d="m31.55 42.97-3.2-6.31-2.52 1.28z"/><path d="m32 42.7-3.19-6.31a.54.54 0 0 0 -.72-.19l-2.53 1.28a.53.53 0 0 0 -.1.83l5.72 5c.5.44 1.25-.3.74-.75l-5.72-5-.11.83 2.53-1.28-.72-.19 3.19 6.31c.31.6 1.22.07.91-.53z"/></g></svg>