<svg viewBox="0 0 106 106" xmlns="http://www.w3.org/2000/svg" xmlns:xlink="http://www.w3.org/1999/xlink"><clipPath id="a"><path d="m22.79 59.61s26.38 13.87 65.93 1.85l2.83-10.17s-58.39 5.55-66.87 0-1.89 8.32-1.89 8.32z"/></clipPath><clipPath id="b"><circle cx="45.04" cy="77.51" r="1.2"/></clipPath><clipPath id="c"><circle cx="63.54" cy="77.51" r="1.2"/></clipPath><path d="m-8.31 116.48s20.31 8.32 41.61-24.97l36.06 2.78s13 31.44 35.14 31.44v6.47s-12 2.77-21.27-4.62c0 0 1.85 12 1.85 14.79 0 0-29.59 13.87-62.88 1.85 0 0-.92-15.72 2.77-27.74 0 0-20.34 13.87-34.21 5.55z" fill="#0c070e"/><path d="m37 94.75 20.34 34.21 9.18-34.86z" fill="#fff"/><g fill="#f3bfaf"><path d="m41.62 67s-4.62 10.18-6.47 11.1l-3.24 8.79s-1.85 6.47.92 9.25c0 0 23.12 13.87 37.92.92 0 0 7.4-5.55-2.78-30.51s-26.35.45-26.35.45z"/><ellipse cx="32.83" cy="81.8" rx="4.62" ry="4.16"/><ellipse cx="71.21" cy="80.42" rx="4.16" ry="3.7"/></g><path d="m41 74.41a7.57 7.57 0 0 1 6.57-.06.31.31 0 0 0 .42-.12.29.29 0 0 0 0-.33c-1.16-1.64-3.92-4.39-7.21.19a.21.21 0 0 0 0 .29.21.21 0 0 0 .22.03z" fill="#e3e2e0"/><path d="m61.34 74.41a7.59 7.59 0 0 1 6.58-.06.3.3 0 0 0 .41-.12.3.3 0 0 0 0-.33c-1.17-1.64-3.92-4.39-7.22.19a.21.21 0 0 0 0 .29.2.2 0 0 0 .23.03z" fill="#e3e2e0"/><path d="m38.11 96.73-6.81 14.45a.35.35 0 0 0 .16.46.33.33 0 0 0 .24 0l8.81-2.4a.34.34 0 0 1 .42.26.31.31 0 0 1 0 .19l-2.45 6.52a.32.32 0 0 0 .13.4l18.89 12.96a.34.34 0 0 0 .48-.45l-19.27-32.36a.34.34 0 0 0 -.46-.16.29.29 0 0 0 -.14.13z" fill="#564b4e"/><path d="m63.5 99.78 6-2.19 4.5 12.94a.73.73 0 0 1 -.48.92.77.77 0 0 1 -.4 0l-8.85-2.41 3.26 4.88a1.11 1.11 0 0 1 0 1.3l-9.85 14.06a.28.28 0 0 1 -.39.05.3.3 0 0 1 -.1-.28l6.16-29.05a.31.31 0 0 1 .15-.22z" fill="#564b4e"/><path d="m28.21 92.44a4.62 4.62 0 0 0 4.62.92s1.85 0 1.85-3.7 4.63-9.24 13.87-7.39c0 0 1.85 0 5.55 2.77 0 0 2.78-2.77 5.55-2.77 0 0 10.17-.93 13.65 7.54 0 0 .86 1.73 1.68 3 .2.3.57 1.33.87 1.16 1.17-.66 4-2.13 3.22-.65 0 0-12 15.72-25-4.62 0 0-10.17 18.15-26.81 4.62-.44-.32.03-1.81.95-.88z" fill="#e3e2e0"/><path d="m54.1 111.86s-2.77 6.47-8.32 5.54-.92-7.39-.92-7.39-8.33-5.55-1.85-8.33c0 0 7.39-.92 12 4.63 0 0 9.24-7.4 12.94-4.63s-.92 7.4-.92 7.4 4.62 6.48-2.78 9.25c0 0-4.62 1.85-7.39-7.4z" fill="#b62f2d"/><ellipse cx="55.95" cy="108.62" fill="#902c26" rx="2.77" ry="4.16"/><path d="m30.52 79s5.55 4.62 16.65-15.72c3.81-7 11.09-11.1 11.09-11.1s11.1 22.2 12.95 22.2 0-5.55 0-5.55l-7.4-20.35-22.19 1.88z" fill="#e3e2e0"/><path d="m20.81 64.7s29.59 15.72 64.73.92c0 0 10.18-4.62-1.85-4.62 0 0-37.91 5.55-59.18.92 0 0-12.94-2.77-3.7 2.78z" fill="#0c070e"/><path d="m82.13 18.92c-11.3 39.77-8.47 47.16-8.47 47.16-17 3.7-39.56-.92-39.56-.92 1.85-9.25-8.48-46.24-8.48-46.24 27.32-7.39 56.51 0 56.51 0z" fill="#0c070e"/><g clip-path="url(#a)"><path d="m25.62 18.92s10.38 36.99 8.48 46.24c0 0 22.6 4.62 39.56.92 0 0-2.83-7.39 8.47-47.16 0 0-29.19-7.39-56.51 0z" fill="#0e0510"/><path d="m82.13 18.92c-11.3 39.77-8.47 47.16-8.47 47.16-17 3.7-39.56-.92-39.56-.92 1.85-9.25-8.48-46.24-8.48-46.24 27.32-7.39 56.51 0 56.51 0z" fill="#564c4d"/></g><ellipse cx="54.57" cy="83.65" fill="#f3bfaf" rx="2.77" ry="3.7"/><ellipse cx="63.4" cy="80" fill="#fff" rx="4.11" ry="3.83"/><ellipse cx="43.89" cy="80" fill="#fff" rx="4.11" ry="3.83"/><g clip-path="url(#b)"><ellipse cx="44.87" cy="77.41" fill="#4b5a68" rx="2.4" ry="2.24"/></g><g clip-path="url(#c)"><ellipse cx="63.36" cy="77.41" fill="#4b5a68" rx="2.4" ry="2.24"/></g></svg>