<svg id="Layer_1" data-name="Layer 1" xmlns="http://www.w3.org/2000/svg" xmlns:xlink="http://www.w3.org/1999/xlink" viewBox="0 0 106 106"><defs><style>.cls-1{fill:none;}.cls-2{fill:#fff;}.cls-3{fill:#fd7678;}.cls-4{clip-path:url(#clip-path);}.cls-5{fill:#545b60;}</style><clipPath id="clip-path"><path class="cls-1" d="M37,75.5s2,12,14,14,17-14,17-14Z"/></clipPath></defs><title>Avatars</title><path class="cls-2" d="M23.5,106V49s0-27,29-29c0,0,28-1,30,32v54Z"/><circle class="cls-3" cx="56" cy="48.5" r="2"/><path class="cls-3" d="M82.5,61c0,5.94-5.07,12.5-10.71,12.5a10.76,10.76,0,0,1,0-21.5C77.43,52,82.5,55.06,82.5,61Z"/><circle class="cls-3" cx="56" cy="60.5" r="7"/><circle class="cls-3" cx="43.5" cy="60" r="6"/><path class="cls-3" d="M41,57a8.51,8.51,0,0,1-8.5,8.5c-4.69,0-9-2.81-9-7.5,0-7,4.31-9.5,9-9.5A8.51,8.51,0,0,1,41,57Z"/><polyline class="cls-3" points="23.5 57.82 23 106.5 83 106.5 82.5 59.87 23.5 57.82"/><circle class="cls-3" cx="46" cy="49.5" r="2"/><circle class="cls-3" cx="64.5" cy="50" r="1.5"/><circle class="cls-3" cx="64" cy="44.5" r="1"/><circle class="cls-3" cx="65" cy="33.5" r="2"/><circle class="cls-3" cx="54" cy="29.5" r="2"/><circle class="cls-3" cx="43" cy="29.5" r="2"/><circle class="cls-3" cx="33.5" cy="43" r="3.5"/><circle class="cls-3" cx="57.5" cy="40" r="3.5"/><circle class="cls-3" cx="72.5" cy="45" r="4.5"/><circle class="cls-3" cx="44.5" cy="39" r="4.5"/><path class="cls-2" d="M37,75.5s2,12,14,14,17-14,17-14Z"/><g class="cls-4"><circle class="cls-5" cx="53" cy="75.5" r="5"/></g></svg>