<svg viewBox="0 0 106 106" xmlns="http://www.w3.org/2000/svg" xmlns:xlink="http://www.w3.org/1999/xlink"><clipPath id="a"><circle cx="61" cy="89.5" r="3.5"/></clipPath><clipPath id="b"><circle cx="42" cy="89.5" r="3.5"/></clipPath><path d="m23.5 106v-59s3-19 25-21c0 0 20.5-2.5 28.5 18.5 0 0 9 22-13 31 0 0 17 4 15 16v15z" fill="#4bd292"/><g fill="#298c5e"><path d="m23.5 53s6.5-1.5 7.5-4.5c0 0 1.61-4.87-4.7-8.94 0 0-3.3 4.94-2.8 13.44z"/><path d="m32 32.5a6.29 6.29 0 0 0 7 3s5.39-2 3.69-8.49c0-.01-1.69-.51-10.69 5.49z"/><path d="m53.65 26.08s1.35 5.42 5.35 7.42c0 0 4.79 2.88 7.9-2.56 0 0-8.59-5.28-13.25-4.86z"/><path d="m73.45 37.63s-3.45 1.87-2.45 6.87c0 0 1 5 7.35 5 0-.01-1.45-7.74-4.9-11.87z"/><path d="m78.35 60.11s-5.35-1.61-7.35 2.39a6.35 6.35 0 0 0 1.11 8s6.58-6.79 6.24-10.39z"/><path d="m61 56.5s4-3-3-11c0 0-7-5-13 0 0 0-5 6-4 13 0 0 3 13 14 16 0 0 6.77 1.79 10.39.4l1.51-.75s-2.9 2.35-14.9-3.65-8-19-8-19 2-5 6-6c0 0 11-1 11 11z"/><path d="m61.11 56.61c1.77-1.47 1.2-4.27.45-6.07-1.75-4.24-5-7-9.63-7.37-8.93-.65-13 10.52-10.32 17.75 3.3 9 11.07 15.29 20.93 14.63.42 0 4.64-1.27 4.23-1.49s-4 .23-4.64.11c-7.7-1.46-16.48-5.84-18.26-14.1-1-4.48-.39-9.53 3.18-12.73 2.26-2 4.43-2 7.1-1.18 4.72 1.48 6.52 5.65 6.7 10.34 0 .19.31.19.3 0-.22-5.83-3.54-11.26-10-11.16-4 .06-6.86 3.92-7.61 7.58a15.9 15.9 0 0 0 7.13 17c3.05 1.88 12.46 7.16 16.33 4.36a.15.15 0 0 0 -.15-.26c-10.7 5.27-23.07-4.5-25.5-14.9-1.7-7.27 3.3-17.08 11.8-15.48 4.31.81 12.78 8.63 7.77 12.75-.18.13.08.34.19.22z"/></g><ellipse cx="60.5" cy="95.5" fill="#fff" rx="7" ry="6.5"/><g clip-path="url(#a)"><ellipse cx="60.5" cy="95.5" fill="#4b5a68" rx="7" ry="6.5"/></g><ellipse cx="41.5" cy="95.5" fill="#fff" rx="7" ry="6.5"/><g clip-path="url(#b)"><ellipse cx="41.5" cy="95.5" fill="#4b5a68" rx="7" ry="6.5"/></g></svg>