<svg viewBox="0 0 106 106" xmlns="http://www.w3.org/2000/svg" xmlns:xlink="http://www.w3.org/1999/xlink"><clipPath id="a"><path d="m37 75.5s2 12 14 14 17-14 17-14z"/></clipPath><path d="m23.5 106v-57s0-27 29-29c0 0 28-1 30 32v54z" fill="#fff"/><g fill="#fd7678"><circle cx="56" cy="48.5" r="2"/><path d="m82.5 61c0 5.94-5.07 12.5-10.71 12.5a10.76 10.76 0 0 1 0-21.5c5.64 0 10.71 3.06 10.71 9z"/><circle cx="56" cy="60.5" r="7"/><circle cx="43.5" cy="60" r="6"/><path d="m41 57a8.51 8.51 0 0 1 -8.5 8.5c-4.69 0-9-2.81-9-7.5 0-7 4.31-9.5 9-9.5a8.51 8.51 0 0 1 8.5 8.5z"/><path d="m23.5 57.82-.5 48.68h60l-.5-46.63z"/><circle cx="46" cy="49.5" r="2"/><circle cx="64.5" cy="50" r="1.5"/><circle cx="64" cy="44.5" r="1"/><circle cx="65" cy="33.5" r="2"/><circle cx="54" cy="29.5" r="2"/><circle cx="43" cy="29.5" r="2"/><circle cx="33.5" cy="43" r="3.5"/><circle cx="57.5" cy="40" r="3.5"/><circle cx="72.5" cy="45" r="4.5"/><circle cx="44.5" cy="39" r="4.5"/></g><path d="m37 75.5s2 12 14 14 17-14 17-14z" fill="#fff"/><g clip-path="url(#a)"><circle cx="53" cy="75.5" fill="#545b60" r="5"/></g></svg>