<svg  viewBox="0 0 106 106"  xmlns="http://www.w3.org/2000/svg" xmlns:xlink="http://www.w3.org/1999/xlink"><clipPath id="a"><circle cx="51.26" cy="54.56" r="7.08"/></clipPath><clipPath id="b"><circle cx="66.31" cy="43.04" r="2.13"/></clipPath><g fill="#9757d9"><path d="m33.55 29.07-10.35-4.43a.89.89 0 0 0 -1.2 1.17l4.43 10.35z"/><path d="m46.49 22.53-7.87-8a.89.89 0 0 0 -1.53.63l.15 11.26z"/><path d="m64.55 23.69-2.44-11a.89.89 0 0 0 -1.63-.27l-5.82 9.64z"/><path d="m74.32 34.53 6.52-9.18a.89.89 0 0 0 -.84-1.35l-11.11 2.11z"/></g><path d="m23.37 107v-57.74s0-27.34 29.38-29.37c0 0 28.36-1 30.39 32.41v54.7z" fill="#cf7dfc"/><ellipse cx="46.08" cy="64.3" fill="#fff" rx="14.3" ry="13.28"/><ellipse cx="66.24" cy="46.59" fill="#fff" rx="4.77" ry="4.43"/><g clip-path="url(#a)"><ellipse cx="46.08" cy="64.3" fill="#495761" rx="14.3" ry="13.28"/></g><g clip-path="url(#b)"><ellipse cx="66.24" cy="46.59" fill="#495761" rx="4.77" ry="4.43"/></g><circle cx="51.26" cy="54.11" fill="#fff" r="1.33"/></svg>