<svg viewBox="0 0 106 106" xmlns="http://www.w3.org/2000/svg"><circle cx="81.5" cy="51" fill="#ffbdae" r="5"/><circle cx="22.5" cy="51" fill="#ffbdae" r="5"/><path d="m88.5 106v-16s2-10-8-14v-37s-2-12-10-18c0 0 2-4 0-7 0 0-3 5-7 3 0 0 2-5 0-8 0 0-5 6-7 5 0 0-29-4-33 24l-1 38a15.89 15.89 0 0 0 -8 14v16z" fill="#fff"/><path d="m38.5 29h25s10 0 11 10v14s-3 20-20 19c0 0-19 3-26-17v-16s0-10 10-10z" fill="#ffbdae"/><rect fill="#ff4e4a" height="5" rx="2.5" width="11" x="46.5" y="51"/><circle cx="62" cy="44.5" fill="#333" r="2.5"/><circle cx="41" cy="44.5" fill="#333" r="2.5"/><rect fill="#f29b91" height="6" rx="3" width="34" x="34.5" y="37"/><path d="m42.5 61-3-4s-1-1-2 1a10.56 10.56 0 0 0 0 6z" fill="#fff"/><path d="m59.5 61 2.76-4s.91-1 1.83 1a11.44 11.44 0 0 1 0 6z" fill="#fff"/><path d="m34.5 65.1s5-7.1 17-6.1c0 0 11-1 18 6 0 0-3 7-15 7h-4s-10 0-16-6.9" fill="#f29b91"/><rect fill="#ffbdae" height="32" rx="12" width="48" x="28.5" y="80"/><g fill="#ff9289"><circle cx="42.5" cy="91" r="3"/><circle cx="60.5" cy="91" r="3"/></g></svg>