<svg  viewBox="0 0 106 106"  xmlns="http://www.w3.org/2000/svg"><path d="m88.11 105.62c.37-2.59 2.32-17.81-1.84-24.32a.44.44 0 0 1 .53-.67l2.57 1.37a.77.77 0 0 0 1-1.07l-5.26-11.1a.45.45 0 0 1 .49-.64l5.31 1.4a.43.43 0 0 0 .53-.39c.18-2.33.37-11.77-7.75-15.12a.46.46 0 0 1 -.15-.75c.89-.79 2.71-2.19 4-1.63a.4.4 0 0 0 .58-.36c.11-2.15-.45-8.41-10.1-9.86 0 0 1.37-2.9 4.11-2.14a.43.43 0 0 0 .49-.62c-1-1.89-4.22-5.84-13.78-6.06a.46.46 0 0 1 -.34-.74c.87-1.12 3.3-2.27 5.08-2.66a.29.29 0 0 0 0-.56c-4.18-1.59-20.19-6.86-34.33-.28a.46.46 0 0 0 .1.86 7.25 7.25 0 0 1 4.76 2.66.45.45 0 0 1 -.3.73c-2.43.13-10.47.93-13.78 6a.45.45 0 0 0 .45.71c1.55-.41 4.48-1 5.68.3 0 0-9.46 3.33-11.54 11.6a.43.43 0 0 0 .52.54c1.27-.36 4-1 5.47-.18a.46.46 0 0 1 .07.76c-2.09 1.66-10.57 8.74-11.21 14.82a.44.44 0 0 0 .59.45c1.6-.64 5.84-2.26 7.26-2a.45.45 0 0 1 .24.73 30.5 30.5 0 0 0 -6.23 12.8.43.43 0 0 0 .62.5c1.33-.8 3.88-2.15 5.32-1.57a.46.46 0 0 1 .14.73c-1.39 1.48-6 9.67-4.66 25.92a.45.45 0 0 0 .42.43l64.5-.21a.42.42 0 0 0 .44-.38z" fill="#fec770"/><ellipse cx="56.28" cy="57.46" fill="#fff" rx="16.72" ry="16.77"/><ellipse cx="57.11" cy="53.93" fill="#555658" rx="9.2" ry="9.71"/><ellipse cx="60.46" cy="52.16" fill="#fff" rx="4.18" ry="4.41"/><path d="m39.55 58.34s11.71-7.06 11.71-8.82 0 3.53 1.67 3.53 0-8.83 1.67-7.06 5 7.06 16.73 12.35 8.36 0 8.36 0l-11.69-19.42-18.41-1.76-11.71 12.36z" fill="#fec770"/><path d="m45.94 86.7a1 1 0 0 0 -.94 1.3c.89 2.51 3.41 7.37 9.61 7.37a13.12 13.12 0 0 0 10.87-5.68 1 1 0 0 0 -.67-1.5z" fill="#d08222"/></svg>