<svg height="226" viewBox="0 0 182 226" width="182" xmlns="http://www.w3.org/2000/svg" xmlns:xlink="http://www.w3.org/1999/xlink"><clipPath id="a"><path d="m44.5 105s-38 53-23 68 45-5 45-5l9 27s-51 7-52 7-27-8-27-11 2-83 2-83z"/></clipPath><clipPath id="b"><path d="m74.14 60s28.52 15 71.3 2l3.06-11s-63.15 6-72.32 0-2.04 9-2.04 9z"/></clipPath><path d="m31.5 126-19 21s-18 32 21 40c0 0 38-4 24-39 0 0-18-20-20-22l10-16h-25z" fill="#9a845d"/><g fill="#fcb944"><path d="m29.05 161.47a10.58 10.58 0 0 0 6.31 2.3c2.65 0 4.07-1.18 4.07-2.91 0-4.21-10.75-3.46-10.75-9.37 0-3.19 2.78-5.19 6.68-5.19a8.25 8.25 0 0 1 6.28 2.62l-1.49 1.66a7.13 7.13 0 0 0 -5-1.94c-2.27 0-3.7 1.09-3.7 2.78 0 3.74 10.76 3 10.76 9.23 0 3.26-2.92 5.46-7.2 5.46a11.9 11.9 0 0 1 -7.29-2.68zm5.16-19.58h2v5.46h-2zm2 23.24v5.87h-2v-5.87z"/><path d="m28.71 162.05a11.94 11.94 0 0 0 5.31 2.3c1.67.23 3.69.14 5-1 1.81-1.61 1.13-4-.65-5.26-1.95-1.33-4.37-1.79-6.42-2.94a5.15 5.15 0 0 1 -2.32-2.2 3.93 3.93 0 0 1 .49-3.84c1.19-1.59 3.35-2.09 5.23-2.09a8 8 0 0 1 5.8 2.41v-1l-1.49 1.66h1a8.52 8.52 0 0 0 -4.56-2.09 5.3 5.3 0 0 0 -4.51 1.26c-1.63 1.8-.58 3.89 1.24 4.89 2 1.09 4.25 1.55 6.21 2.71 2.23 1.33 3.42 4 1.68 6.28a6.73 6.73 0 0 1 -5.23 2.27 11 11 0 0 1 -7.28-2.47l.1.81 1.33-2c.48-.72-.69-1.4-1.17-.68l-1.32 2a.67.67 0 0 0 .1.82 12 12 0 0 0 11.19 2.36c2.82-.95 4.88-3.46 4.37-6.55-.39-2.32-2.36-3.74-4.37-4.66-1.09-.5-2.22-.9-3.34-1.34a7.4 7.4 0 0 1 -2.49-1.33c-1-1-.22-2.39 1-2.82 2.17-.81 4.42.15 6.11 1.48a.68.68 0 0 0 1 0l1.5-1.66a.7.7 0 0 0 0-1 9.74 9.74 0 0 0 -9.74-2.37c-2.84.86-5 3.46-4.31 6.54.51 2.36 2.77 3.63 4.82 4.5 1.11.48 2.26.88 3.37 1.38a4.61 4.61 0 0 1 2.26 1.65c.82 1.55-.82 2.71-2.17 2.93a9.54 9.54 0 0 1 -7-2.15c-.76-.48-1.45.69-.74 1.2z"/><path d="m34.21 142.57h2l-.67-.68v5.46l.67-.67h-2l.67.67v-5.46a.68.68 0 0 0 -1.35 0v5.46a.7.7 0 0 0 .68.68h2a.7.7 0 0 0 .68-.68v-5.46a.69.69 0 0 0 -.68-.67h-2a.67.67 0 0 0 -.68.68.67.67 0 0 0 .68.67z"/><path d="m35.57 165.13v5.87l.67-.67h-2l.67.67v-5.87l-.67.68h2a.68.68 0 0 0 0-1.35h-2a.69.69 0 0 0 -.68.67v5.87a.69.69 0 0 0 .68.67h2a.69.69 0 0 0 .68-.67v-5.87a.68.68 0 0 0 -1.35 0z"/></g><g clip-path="url(#a)"><path d="m31.5 126-19 21s-18 32 21 40c0 0 38-4 24-39 0 0-18-20-20-22l10-16h-25z" fill="#7a674e"/></g><ellipse cx="35.5" cy="124.5" fill="#f3bfaf" rx="6" ry="3.5"/><path d="m159 140.5 5 5h6l5-5-3-4h-10z" fill="#f2272f"/><path d="m165.76 145.5h2.91l1.7-5-2.3-4h-2.62l-1.45 4z" fill="#c0242f"/><path d="m164 145.5h6l-2 75a1.39 1.39 0 0 1 -2 0z" fill="#ffbc32"/><path d="m159.19 140.24 15.81.26-3-4h-10z" fill="#95272d"/><ellipse cx="165.5" cy="135.5" fill="#f3bfaf" rx="6" ry="3.5"/><path d="m86.34 216-1.34 4.55h21s-9-3-11-6z" fill="#0c070e"/><path d="m120 216.5-2 4h21s-10-3-11-5z" fill="#0c070e"/><path d="m80 148.5v34.14a.5.5 0 0 0 .48.5.48.48 0 0 0 .26-.07l27.26-15.57 23.77 13.71a1.57 1.57 0 0 0 2.15-.59 1.43 1.43 0 0 0 .21-.7l1.87-38.42z" fill="#0c070e"/><path d="m83 151.5s7 49 4 62h7s7-48 5-52c0 0 10 3 19-1 0 0 3 49 2 53h7s8-54 7-65z" fill="#3e353a"/><path d="m40.5 121.5s22 9 45-27l39 3s14 34 38 34v7s-13 3-23-5c0 0 2 13 2 16 0 0-32 15-68 2 0 0-1-17 3-30 0 0-22 15-37 6z" fill="#0c070e"/><path d="m89.5 98 22 37 9.93-37.7z" fill="#fff"/><path d="m94.5 68s-5 11-7 12l-3.5 9.5s-2 7 1 10c0 0 25 15 41 1 0 0 8-6-3-33s-28.5.5-28.5.5z" fill="#f3bfaf"/><ellipse cx="85" cy="84" fill="#f3bfaf" rx="5" ry="4.5"/><ellipse cx="126.5" cy="82.5" fill="#f3bfaf" rx="4.5" ry="4"/><path d="m93.83 76a8.21 8.21 0 0 1 7.11-.06.33.33 0 0 0 .45-.13.33.33 0 0 0 0-.36c-1.26-1.77-4.24-4.74-7.8.21a.22.22 0 0 0 0 .31.21.21 0 0 0 .24.03z" fill="#e3e2e0"/><path d="m115.83 76a8.21 8.21 0 0 1 7.11-.06.33.33 0 0 0 .45-.13.33.33 0 0 0 0-.36c-1.26-1.77-4.24-4.74-7.8.21a.22.22 0 0 0 0 .31.21.21 0 0 0 .24.03z" fill="#e3e2e0"/><path d="m90.7 100.14-7.36 15.63a.38.38 0 0 0 .17.5.39.39 0 0 0 .26 0l9.53-2.6a.39.39 0 0 1 .46.28.38.38 0 0 1 0 .21l-2.65 7a.36.36 0 0 0 .14.43l20.43 14a.37.37 0 0 0 .52-.49l-20.84-35a.37.37 0 0 0 -.49-.17.36.36 0 0 0 -.17.21z" fill="#564b4e"/><path d="m118.16 103.44 6.5-2.37 4.86 14a.79.79 0 0 1 -1 1l-9.52-2.61 3.52 5.28a1.22 1.22 0 0 1 0 1.41l-10.65 15.2a.3.3 0 0 1 -.53-.25l6.66-31.48a.35.35 0 0 1 .16-.18z" fill="#564b4e"/><path d="m87 217.5s7 1 12 0c0 0-5-2-6-9h-5l-2 9z" fill="#b9b5b4"/><path d="m120 217.5s7 1 12 0c0 0-5-2-6-9h-5l-2 9z" fill="#b9b5b4"/><path d="m158 131v8l5-.54v-7s-4 .04-5-.46z" fill="#e3e2e1"/><circle cx="154" cy="136.5" fill="#fe913d" r="1"/><path d="m45.58 122.48s-4.58 0-5.58-1l-1 6 4.51 2z" fill="#e3e2e1"/><circle cx="47" cy="127.5" fill="#fe913d" r="1"/><path d="m108 116.5s-3 7-9 6-1-8-1-8-9-6-2-9c0 0 8-1 13 5 0 0 10-8 14-5s-1 8-1 8 5 7-3 10c0 0-5 2-8-8z" fill="#b62f2d"/><ellipse cx="110" cy="113" fill="#902c26" rx="3" ry="4.5"/><path d="m82.5 81s6 5 18-17c4.12-7.55 12-12 12-12s12 24 14 24 0-6 0-6l-8-22-24 2z" fill="#e3e2e0"/><path d="m72 65.5s32 17 70 1c0 0 11-5-2-5 0 0-41 6-64 1 0 0-14-3-4 3z" fill="#0c070e"/><path d="m138.31 16c-12.22 43-9.16 51-9.16 51-18.34 4-42.78-1-42.78-1 2-10-9.17-50-9.17-50 29.54-8 61.11 0 61.11 0z" fill="#0c070e"/><g clip-path="url(#b)"><path d="m77.2 16s11.2 40 9.17 50c0 0 24.44 5 42.78 1 0 0-3.06-8 9.16-51 0 0-31.57-8-61.11 0z" fill="#0e0510"/><path d="m138.31 16c-12.22 43-9.16 51-9.16 51-18.34 4-42.78-1-42.78-1 2-10-9.17-50-9.17-50 29.54-8 61.11 0 61.11 0z" fill="#564c4d"/></g></svg>